<?xml version="1.0" encoding="UTF-8" standalone="no"?>
<!-- Created with Inkscape (http://www.inkscape.org/) -->

<svg
   width="128.59637mm"
   height="89.698135mm"
   viewBox="0 0 128.59637 89.698135"
   version="1.1"
   id="svg1"
   xmlns:xlink="http://www.w3.org/1999/xlink"
   xmlns="http://www.w3.org/2000/svg"
   xmlns:svg="http://www.w3.org/2000/svg">
  <defs
     id="defs1">
    <pattern
       xlink:href="#pattern14-7-5-8-1-0-5-7"
       preserveAspectRatio="xMidYMid"
       id="pattern15-8-8-3-3-0-9-6"
       patternTransform="matrix(0,-0.05,0.05,0,324.73045,1072.5037)"
       x="0"
       y="0" />
    <pattern
       patternUnits="userSpaceOnUse"
       width="372.6899"
       height="66.1838"
       patternTransform="scale(0.2)"
       preserveAspectRatio="xMidYMid"
       id="pattern14-7-5-8-1-0-5-7"
       style="fill:#000000">
      <path
         id="path13-8-5-02-1-3-56-2"
         style="stroke-width:0.487199;stroke-linecap:square;paint-order:markers fill stroke;stop-color:#000000"
         d="m 371.6961,0 h 0.9938 v 66.1838 h -0.9938 z m -7.9084,0 h 1.1312 v 66.1838 h -1.1312 z m -7.9085,0 h 1.2687 v 66.1838 h -1.2687 z m -7.9084,0 h 1.4062 v 66.1838 h -1.4062 z m -7.9084,0 h 1.5436 v 66.1838 h -1.5436 z m -7.9084,0 h 1.681 v 66.1838 h -1.681 z m -7.9085,0 h 1.8185 v 66.1838 h -1.8185 z m -7.9084,0 h 1.9559 v 66.1838 h -1.9559 z m -7.9084,0 h 2.0934 v 66.1838 h -2.0934 z m -7.9085,0 h 2.2309 v 66.1838 h -2.2309 z m -7.9084,0 h 2.3683 v 66.1838 h -2.3683 z m -7.9084,0 h 2.5057 v 66.1838 h -2.5057 z m -7.9084,0 h 2.6431 v 66.1838 h -2.6431 z m -7.9085,0 h 2.7807 v 66.1838 h -2.7807 z m -7.9084,0 h 2.9181 v 66.1838 h -2.9181 z m -7.9084,0 h 3.0555 v 66.1838 h -3.0555 z m -7.9084,0 h 3.1929 v 66.1838 h -3.1929 z m -7.9085,0 h 3.3304 v 66.1838 h -3.3304 z m -7.9084,0 h 3.4679 v 66.1838 h -3.4679 z m -7.9084,0 h 3.6053 v 66.1838 h -3.6053 z m -7.9085,0 h 3.7428 v 66.1838 h -3.7428 z m -7.9084,0 h 3.8802 v 66.1838 h -3.8802 z m -7.9084,0 h 4.0176 v 66.1838 h -4.0176 z m -7.9084,0 h 4.1551 v 66.1838 h -4.1551 z m -7.9085,0 h 4.2926 v 66.1838 h -4.2926 z m -7.9084,0 h 4.43 v 66.1838 h -4.43 z m -7.9084,0 h 4.5674 v 66.1838 h -4.5674 z m -7.9084,0 h 4.7048 v 66.1838 h -4.7048 z m -7.9085,0 h 4.8424 v 66.1838 h -4.8424 z m -7.9084,0 h 4.9798 v 66.1838 h -4.9798 z m -7.9084,0 h 5.1172 v 66.1838 h -5.1172 z m -7.9084,0 h 5.2546 v 66.1838 h -5.2546 z m -7.9085,0 h 5.3921 v 66.1838 h -5.3921 z m -7.9084,0 h 5.5295 v 66.1838 h -5.5295 z m -7.9084,0 h 5.667 v 66.1838 h -5.667 z m -7.9085,0 h 5.8045 v 66.1838 h -5.8045 z m -7.9084,0 h 5.9419 v 66.1838 h -5.9419 z m -7.9084,0 h 6.0793 v 66.1838 h -6.0793 z m -7.9084,0 h 6.2167 v 66.1838 h -6.2167 z m -7.9085,0 h 6.3543 V 66.1838 H 63.2674 Z M 55.359,0 h 6.4917 V 66.1838 H 55.359 Z m -7.9084,0 h 6.6291 v 66.1838 h -6.6291 z m -7.9084,0 h 6.7665 v 66.1838 h -6.7665 z m -7.9085,0 h 6.904 v 66.1838 h -6.904 z m -7.9084,0 h 7.0415 v 66.1838 h -7.0415 z m -7.9084,0 h 7.1789 V 66.1838 H 15.8169 Z M 7.9084,0 h 7.3164 V 66.1838 H 7.9084 Z M 0,0 H 7.4538 V 66.1838 H 0 Z" />
    </pattern>
    <pattern
       xlink:href="#pattern14-8-8-8-9-3-9-6"
       preserveAspectRatio="xMidYMid"
       id="pattern15-1-4-4-4-8-15-0"
       patternTransform="matrix(0,-0.09,0.09,0,372.36185,1095.0037)"
       x="-128"
       y="0" />
    <pattern
       patternUnits="userSpaceOnUse"
       width="372.6899"
       height="66.1838"
       patternTransform="scale(0.2)"
       preserveAspectRatio="xMidYMid"
       id="pattern14-8-8-8-9-3-9-6"
       style="fill:#000000">
      <path
         id="path13-1-0-3-5-6-1-1"
         style="stroke-width:0.487199;stroke-linecap:square;paint-order:markers fill stroke;stop-color:#000000"
         d="m 371.6961,0 h 0.9938 v 66.1838 h -0.9938 z m -7.9084,0 h 1.1312 v 66.1838 h -1.1312 z m -7.9085,0 h 1.2687 v 66.1838 h -1.2687 z m -7.9084,0 h 1.4062 v 66.1838 h -1.4062 z m -7.9084,0 h 1.5436 v 66.1838 h -1.5436 z m -7.9084,0 h 1.681 v 66.1838 h -1.681 z m -7.9085,0 h 1.8185 v 66.1838 h -1.8185 z m -7.9084,0 h 1.9559 v 66.1838 h -1.9559 z m -7.9084,0 h 2.0934 v 66.1838 h -2.0934 z m -7.9085,0 h 2.2309 v 66.1838 h -2.2309 z m -7.9084,0 h 2.3683 v 66.1838 h -2.3683 z m -7.9084,0 h 2.5057 v 66.1838 h -2.5057 z m -7.9084,0 h 2.6431 v 66.1838 h -2.6431 z m -7.9085,0 h 2.7807 v 66.1838 h -2.7807 z m -7.9084,0 h 2.9181 v 66.1838 h -2.9181 z m -7.9084,0 h 3.0555 v 66.1838 h -3.0555 z m -7.9084,0 h 3.1929 v 66.1838 h -3.1929 z m -7.9085,0 h 3.3304 v 66.1838 h -3.3304 z m -7.9084,0 h 3.4679 v 66.1838 h -3.4679 z m -7.9084,0 h 3.6053 v 66.1838 h -3.6053 z m -7.9085,0 h 3.7428 v 66.1838 h -3.7428 z m -7.9084,0 h 3.8802 v 66.1838 h -3.8802 z m -7.9084,0 h 4.0176 v 66.1838 h -4.0176 z m -7.9084,0 h 4.1551 v 66.1838 h -4.1551 z m -7.9085,0 h 4.2926 v 66.1838 h -4.2926 z m -7.9084,0 h 4.43 v 66.1838 h -4.43 z m -7.9084,0 h 4.5674 v 66.1838 h -4.5674 z m -7.9084,0 h 4.7048 v 66.1838 h -4.7048 z m -7.9085,0 h 4.8424 v 66.1838 h -4.8424 z m -7.9084,0 h 4.9798 v 66.1838 h -4.9798 z m -7.9084,0 h 5.1172 v 66.1838 h -5.1172 z m -7.9084,0 h 5.2546 v 66.1838 h -5.2546 z m -7.9085,0 h 5.3921 v 66.1838 h -5.3921 z m -7.9084,0 h 5.5295 v 66.1838 h -5.5295 z m -7.9084,0 h 5.667 v 66.1838 h -5.667 z m -7.9085,0 h 5.8045 v 66.1838 h -5.8045 z m -7.9084,0 h 5.9419 v 66.1838 h -5.9419 z m -7.9084,0 h 6.0793 v 66.1838 h -6.0793 z m -7.9084,0 h 6.2167 v 66.1838 h -6.2167 z m -7.9085,0 h 6.3543 V 66.1838 H 63.2674 Z M 55.359,0 h 6.4917 V 66.1838 H 55.359 Z m -7.9084,0 h 6.6291 v 66.1838 h -6.6291 z m -7.9084,0 h 6.7665 v 66.1838 h -6.7665 z m -7.9085,0 h 6.904 v 66.1838 h -6.904 z m -7.9084,0 h 7.0415 v 66.1838 h -7.0415 z m -7.9084,0 h 7.1789 V 66.1838 H 15.8169 Z M 7.9084,0 h 7.3164 V 66.1838 H 7.9084 Z M 0,0 H 7.4538 V 66.1838 H 0 Z" />
    </pattern>
    <pattern
       xlink:href="#shading6-9-4-0-0-4-8-4"
       preserveAspectRatio="xMidYMid"
       id="pattern10-5-6-9-9-0-3-5"
       patternTransform="matrix(0.05,0,0,0.05,52.061516,25.050008)"
       x="-123"
       y="0" />
    <pattern
       patternUnits="userSpaceOnUse"
       width="372.6899"
       height="66.1838"
       patternTransform="scale(0.2)"
       preserveAspectRatio="xMidYMid"
       id="shading6-9-4-0-0-4-8-4"
       style="fill:#000000">
      <path
         id="path34-4-6-5-9-0-8-6"
         style="stroke-width:0.487199;stroke-linecap:square;paint-order:markers fill stroke;stop-color:#000000"
         d="m 371.6961,0 h 0.9938 v 66.1838 h -0.9938 z m -7.9084,0 h 1.1312 v 66.1838 h -1.1312 z m -7.9085,0 h 1.2687 v 66.1838 h -1.2687 z m -7.9084,0 h 1.4062 v 66.1838 h -1.4062 z m -7.9084,0 h 1.5436 v 66.1838 h -1.5436 z m -7.9084,0 h 1.681 v 66.1838 h -1.681 z m -7.9085,0 h 1.8185 v 66.1838 h -1.8185 z m -7.9084,0 h 1.9559 v 66.1838 h -1.9559 z m -7.9084,0 h 2.0934 v 66.1838 h -2.0934 z m -7.9085,0 h 2.2309 v 66.1838 h -2.2309 z m -7.9084,0 h 2.3683 v 66.1838 h -2.3683 z m -7.9084,0 h 2.5057 v 66.1838 h -2.5057 z m -7.9084,0 h 2.6431 v 66.1838 h -2.6431 z m -7.9085,0 h 2.7807 v 66.1838 h -2.7807 z m -7.9084,0 h 2.9181 v 66.1838 h -2.9181 z m -7.9084,0 h 3.0555 v 66.1838 h -3.0555 z m -7.9084,0 h 3.1929 v 66.1838 h -3.1929 z m -7.9085,0 h 3.3304 v 66.1838 h -3.3304 z m -7.9084,0 h 3.4679 v 66.1838 h -3.4679 z m -7.9084,0 h 3.6053 v 66.1838 h -3.6053 z m -7.9085,0 h 3.7428 v 66.1838 h -3.7428 z m -7.9084,0 h 3.8802 v 66.1838 h -3.8802 z m -7.9084,0 h 4.0176 v 66.1838 h -4.0176 z m -7.9084,0 h 4.1551 v 66.1838 h -4.1551 z m -7.9085,0 h 4.2926 v 66.1838 h -4.2926 z m -7.9084,0 h 4.43 v 66.1838 h -4.43 z m -7.9084,0 h 4.5674 v 66.1838 h -4.5674 z m -7.9084,0 h 4.7048 v 66.1838 h -4.7048 z m -7.9085,0 h 4.8424 v 66.1838 h -4.8424 z m -7.9084,0 h 4.9798 v 66.1838 h -4.9798 z m -7.9084,0 h 5.1172 v 66.1838 h -5.1172 z m -7.9084,0 h 5.2546 v 66.1838 h -5.2546 z m -7.9085,0 h 5.3921 v 66.1838 h -5.3921 z m -7.9084,0 h 5.5295 v 66.1838 h -5.5295 z m -7.9084,0 h 5.667 v 66.1838 h -5.667 z m -7.9085,0 h 5.8045 v 66.1838 h -5.8045 z m -7.9084,0 h 5.9419 v 66.1838 h -5.9419 z m -7.9084,0 h 6.0793 v 66.1838 h -6.0793 z m -7.9084,0 h 6.2167 v 66.1838 h -6.2167 z m -7.9085,0 h 6.3543 V 66.1838 H 63.2674 Z M 55.359,0 h 6.4917 V 66.1838 H 55.359 Z m -7.9084,0 h 6.6291 v 66.1838 h -6.6291 z m -7.9084,0 h 6.7665 v 66.1838 h -6.7665 z m -7.9085,0 h 6.904 v 66.1838 h -6.904 z m -7.9084,0 h 7.0415 v 66.1838 h -7.0415 z m -7.9084,0 h 7.1789 V 66.1838 H 15.8169 Z M 7.9084,0 h 7.3164 V 66.1838 H 7.9084 Z M 0,0 H 7.4538 V 66.1838 H 0 Z" />
    </pattern>
    <pattern
       xlink:href="#shading6-9-6-1-3-2-5-4-4-7"
       preserveAspectRatio="xMidYMid"
       id="pattern10-5-5-7-4-2-7-92-9-4"
       patternTransform="matrix(0.05,0,0,0.05,82.272414,25.499974)"
       x="-123"
       y="0" />
    <pattern
       patternUnits="userSpaceOnUse"
       width="372.6899"
       height="66.1838"
       patternTransform="scale(0.2)"
       preserveAspectRatio="xMidYMid"
       id="shading6-9-6-1-3-2-5-4-4-7"
       style="fill:#000000">
      <path
         id="path34-4-5-5-8-7-7-9-3-5"
         style="stroke-width:0.487199;stroke-linecap:square;paint-order:markers fill stroke;stop-color:#000000"
         d="m 371.6961,0 h 0.9938 v 66.1838 h -0.9938 z m -7.9084,0 h 1.1312 v 66.1838 h -1.1312 z m -7.9085,0 h 1.2687 v 66.1838 h -1.2687 z m -7.9084,0 h 1.4062 v 66.1838 h -1.4062 z m -7.9084,0 h 1.5436 v 66.1838 h -1.5436 z m -7.9084,0 h 1.681 v 66.1838 h -1.681 z m -7.9085,0 h 1.8185 v 66.1838 h -1.8185 z m -7.9084,0 h 1.9559 v 66.1838 h -1.9559 z m -7.9084,0 h 2.0934 v 66.1838 h -2.0934 z m -7.9085,0 h 2.2309 v 66.1838 h -2.2309 z m -7.9084,0 h 2.3683 v 66.1838 h -2.3683 z m -7.9084,0 h 2.5057 v 66.1838 h -2.5057 z m -7.9084,0 h 2.6431 v 66.1838 h -2.6431 z m -7.9085,0 h 2.7807 v 66.1838 h -2.7807 z m -7.9084,0 h 2.9181 v 66.1838 h -2.9181 z m -7.9084,0 h 3.0555 v 66.1838 h -3.0555 z m -7.9084,0 h 3.1929 v 66.1838 h -3.1929 z m -7.9085,0 h 3.3304 v 66.1838 h -3.3304 z m -7.9084,0 h 3.4679 v 66.1838 h -3.4679 z m -7.9084,0 h 3.6053 v 66.1838 h -3.6053 z m -7.9085,0 h 3.7428 v 66.1838 h -3.7428 z m -7.9084,0 h 3.8802 v 66.1838 h -3.8802 z m -7.9084,0 h 4.0176 v 66.1838 h -4.0176 z m -7.9084,0 h 4.1551 v 66.1838 h -4.1551 z m -7.9085,0 h 4.2926 v 66.1838 h -4.2926 z m -7.9084,0 h 4.43 v 66.1838 h -4.43 z m -7.9084,0 h 4.5674 v 66.1838 h -4.5674 z m -7.9084,0 h 4.7048 v 66.1838 h -4.7048 z m -7.9085,0 h 4.8424 v 66.1838 h -4.8424 z m -7.9084,0 h 4.9798 v 66.1838 h -4.9798 z m -7.9084,0 h 5.1172 v 66.1838 h -5.1172 z m -7.9084,0 h 5.2546 v 66.1838 h -5.2546 z m -7.9085,0 h 5.3921 v 66.1838 h -5.3921 z m -7.9084,0 h 5.5295 v 66.1838 h -5.5295 z m -7.9084,0 h 5.667 v 66.1838 h -5.667 z m -7.9085,0 h 5.8045 v 66.1838 h -5.8045 z m -7.9084,0 h 5.9419 v 66.1838 h -5.9419 z m -7.9084,0 h 6.0793 v 66.1838 h -6.0793 z m -7.9084,0 h 6.2167 v 66.1838 h -6.2167 z m -7.9085,0 h 6.3543 V 66.1838 H 63.2674 Z M 55.359,0 h 6.4917 V 66.1838 H 55.359 Z m -7.9084,0 h 6.6291 v 66.1838 h -6.6291 z m -7.9084,0 h 6.7665 v 66.1838 h -6.7665 z m -7.9085,0 h 6.904 v 66.1838 h -6.904 z m -7.9084,0 h 7.0415 v 66.1838 h -7.0415 z m -7.9084,0 h 7.1789 V 66.1838 H 15.8169 Z M 7.9084,0 h 7.3164 V 66.1838 H 7.9084 Z M 0,0 H 7.4538 V 66.1838 H 0 Z" />
    </pattern>
    <pattern
       xlink:href="#pattern14-7-5-8-1-1-9-4"
       preserveAspectRatio="xMidYMid"
       id="pattern15-8-8-3-3-1-7-8"
       patternTransform="matrix(0,-0.05,0.05,0,411.36209,1122.5)"
       x="0"
       y="0" />
    <pattern
       patternUnits="userSpaceOnUse"
       width="372.6899"
       height="66.1838"
       patternTransform="scale(0.2)"
       preserveAspectRatio="xMidYMid"
       id="pattern14-7-5-8-1-1-9-4"
       style="fill:#000000">
      <path
         id="path13-8-5-02-1-0-0-8"
         style="stroke-width:0.487199;stroke-linecap:square;paint-order:markers fill stroke;stop-color:#000000"
         d="m 371.6961,0 h 0.9938 v 66.1838 h -0.9938 z m -7.9084,0 h 1.1312 v 66.1838 h -1.1312 z m -7.9085,0 h 1.2687 v 66.1838 h -1.2687 z m -7.9084,0 h 1.4062 v 66.1838 h -1.4062 z m -7.9084,0 h 1.5436 v 66.1838 h -1.5436 z m -7.9084,0 h 1.681 v 66.1838 h -1.681 z m -7.9085,0 h 1.8185 v 66.1838 h -1.8185 z m -7.9084,0 h 1.9559 v 66.1838 h -1.9559 z m -7.9084,0 h 2.0934 v 66.1838 h -2.0934 z m -7.9085,0 h 2.2309 v 66.1838 h -2.2309 z m -7.9084,0 h 2.3683 v 66.1838 h -2.3683 z m -7.9084,0 h 2.5057 v 66.1838 h -2.5057 z m -7.9084,0 h 2.6431 v 66.1838 h -2.6431 z m -7.9085,0 h 2.7807 v 66.1838 h -2.7807 z m -7.9084,0 h 2.9181 v 66.1838 h -2.9181 z m -7.9084,0 h 3.0555 v 66.1838 h -3.0555 z m -7.9084,0 h 3.1929 v 66.1838 h -3.1929 z m -7.9085,0 h 3.3304 v 66.1838 h -3.3304 z m -7.9084,0 h 3.4679 v 66.1838 h -3.4679 z m -7.9084,0 h 3.6053 v 66.1838 h -3.6053 z m -7.9085,0 h 3.7428 v 66.1838 h -3.7428 z m -7.9084,0 h 3.8802 v 66.1838 h -3.8802 z m -7.9084,0 h 4.0176 v 66.1838 h -4.0176 z m -7.9084,0 h 4.1551 v 66.1838 h -4.1551 z m -7.9085,0 h 4.2926 v 66.1838 h -4.2926 z m -7.9084,0 h 4.43 v 66.1838 h -4.43 z m -7.9084,0 h 4.5674 v 66.1838 h -4.5674 z m -7.9084,0 h 4.7048 v 66.1838 h -4.7048 z m -7.9085,0 h 4.8424 v 66.1838 h -4.8424 z m -7.9084,0 h 4.9798 v 66.1838 h -4.9798 z m -7.9084,0 h 5.1172 v 66.1838 h -5.1172 z m -7.9084,0 h 5.2546 v 66.1838 h -5.2546 z m -7.9085,0 h 5.3921 v 66.1838 h -5.3921 z m -7.9084,0 h 5.5295 v 66.1838 h -5.5295 z m -7.9084,0 h 5.667 v 66.1838 h -5.667 z m -7.9085,0 h 5.8045 v 66.1838 h -5.8045 z m -7.9084,0 h 5.9419 v 66.1838 h -5.9419 z m -7.9084,0 h 6.0793 v 66.1838 h -6.0793 z m -7.9084,0 h 6.2167 v 66.1838 h -6.2167 z m -7.9085,0 h 6.3543 V 66.1838 H 63.2674 Z M 55.359,0 h 6.4917 V 66.1838 H 55.359 Z m -7.9084,0 h 6.6291 v 66.1838 h -6.6291 z m -7.9084,0 h 6.7665 v 66.1838 h -6.7665 z m -7.9085,0 h 6.904 v 66.1838 h -6.904 z m -7.9084,0 h 7.0415 v 66.1838 h -7.0415 z m -7.9084,0 h 7.1789 V 66.1838 H 15.8169 Z M 7.9084,0 h 7.3164 V 66.1838 H 7.9084 Z M 0,0 H 7.4538 V 66.1838 H 0 Z" />
    </pattern>
    <pattern
       xlink:href="#shading6-9-4-0-0-5-5-1"
       preserveAspectRatio="xMidYMid"
       id="pattern10-5-6-9-9-4-6-4"
       patternTransform="matrix(0.05,0,0,0.05,52.061516,25.050008)"
       x="-123"
       y="0" />
    <pattern
       patternUnits="userSpaceOnUse"
       width="372.6899"
       height="66.1838"
       patternTransform="scale(0.2)"
       preserveAspectRatio="xMidYMid"
       id="shading6-9-4-0-0-5-5-1"
       style="fill:#000000">
      <path
         id="path34-4-6-5-9-2-1-0"
         style="stroke-width:0.487199;stroke-linecap:square;paint-order:markers fill stroke;stop-color:#000000"
         d="m 371.6961,0 h 0.9938 v 66.1838 h -0.9938 z m -7.9084,0 h 1.1312 v 66.1838 h -1.1312 z m -7.9085,0 h 1.2687 v 66.1838 h -1.2687 z m -7.9084,0 h 1.4062 v 66.1838 h -1.4062 z m -7.9084,0 h 1.5436 v 66.1838 h -1.5436 z m -7.9084,0 h 1.681 v 66.1838 h -1.681 z m -7.9085,0 h 1.8185 v 66.1838 h -1.8185 z m -7.9084,0 h 1.9559 v 66.1838 h -1.9559 z m -7.9084,0 h 2.0934 v 66.1838 h -2.0934 z m -7.9085,0 h 2.2309 v 66.1838 h -2.2309 z m -7.9084,0 h 2.3683 v 66.1838 h -2.3683 z m -7.9084,0 h 2.5057 v 66.1838 h -2.5057 z m -7.9084,0 h 2.6431 v 66.1838 h -2.6431 z m -7.9085,0 h 2.7807 v 66.1838 h -2.7807 z m -7.9084,0 h 2.9181 v 66.1838 h -2.9181 z m -7.9084,0 h 3.0555 v 66.1838 h -3.0555 z m -7.9084,0 h 3.1929 v 66.1838 h -3.1929 z m -7.9085,0 h 3.3304 v 66.1838 h -3.3304 z m -7.9084,0 h 3.4679 v 66.1838 h -3.4679 z m -7.9084,0 h 3.6053 v 66.1838 h -3.6053 z m -7.9085,0 h 3.7428 v 66.1838 h -3.7428 z m -7.9084,0 h 3.8802 v 66.1838 h -3.8802 z m -7.9084,0 h 4.0176 v 66.1838 h -4.0176 z m -7.9084,0 h 4.1551 v 66.1838 h -4.1551 z m -7.9085,0 h 4.2926 v 66.1838 h -4.2926 z m -7.9084,0 h 4.43 v 66.1838 h -4.43 z m -7.9084,0 h 4.5674 v 66.1838 h -4.5674 z m -7.9084,0 h 4.7048 v 66.1838 h -4.7048 z m -7.9085,0 h 4.8424 v 66.1838 h -4.8424 z m -7.9084,0 h 4.9798 v 66.1838 h -4.9798 z m -7.9084,0 h 5.1172 v 66.1838 h -5.1172 z m -7.9084,0 h 5.2546 v 66.1838 h -5.2546 z m -7.9085,0 h 5.3921 v 66.1838 h -5.3921 z m -7.9084,0 h 5.5295 v 66.1838 h -5.5295 z m -7.9084,0 h 5.667 v 66.1838 h -5.667 z m -7.9085,0 h 5.8045 v 66.1838 h -5.8045 z m -7.9084,0 h 5.9419 v 66.1838 h -5.9419 z m -7.9084,0 h 6.0793 v 66.1838 h -6.0793 z m -7.9084,0 h 6.2167 v 66.1838 h -6.2167 z m -7.9085,0 h 6.3543 V 66.1838 H 63.2674 Z M 55.359,0 h 6.4917 V 66.1838 H 55.359 Z m -7.9084,0 h 6.6291 v 66.1838 h -6.6291 z m -7.9084,0 h 6.7665 v 66.1838 h -6.7665 z m -7.9085,0 h 6.904 v 66.1838 h -6.904 z m -7.9084,0 h 7.0415 v 66.1838 h -7.0415 z m -7.9084,0 h 7.1789 V 66.1838 H 15.8169 Z M 7.9084,0 h 7.3164 V 66.1838 H 7.9084 Z M 0,0 H 7.4538 V 66.1838 H 0 Z" />
    </pattern>
    <pattern
       xlink:href="#shading6-9-6-1-3-2-5-3-97-8"
       preserveAspectRatio="xMidYMid"
       id="pattern10-5-5-7-4-2-7-3-7-0"
       patternTransform="matrix(0.05,0,0,0.05,82.272414,25.499974)"
       x="-123"
       y="0" />
    <pattern
       patternUnits="userSpaceOnUse"
       width="372.6899"
       height="66.1838"
       patternTransform="scale(0.2)"
       preserveAspectRatio="xMidYMid"
       id="shading6-9-6-1-3-2-5-3-97-8"
       style="fill:#000000">
      <path
         id="path34-4-5-5-8-7-7-6-3-5"
         style="stroke-width:0.487199;stroke-linecap:square;paint-order:markers fill stroke;stop-color:#000000"
         d="m 371.6961,0 h 0.9938 v 66.1838 h -0.9938 z m -7.9084,0 h 1.1312 v 66.1838 h -1.1312 z m -7.9085,0 h 1.2687 v 66.1838 h -1.2687 z m -7.9084,0 h 1.4062 v 66.1838 h -1.4062 z m -7.9084,0 h 1.5436 v 66.1838 h -1.5436 z m -7.9084,0 h 1.681 v 66.1838 h -1.681 z m -7.9085,0 h 1.8185 v 66.1838 h -1.8185 z m -7.9084,0 h 1.9559 v 66.1838 h -1.9559 z m -7.9084,0 h 2.0934 v 66.1838 h -2.0934 z m -7.9085,0 h 2.2309 v 66.1838 h -2.2309 z m -7.9084,0 h 2.3683 v 66.1838 h -2.3683 z m -7.9084,0 h 2.5057 v 66.1838 h -2.5057 z m -7.9084,0 h 2.6431 v 66.1838 h -2.6431 z m -7.9085,0 h 2.7807 v 66.1838 h -2.7807 z m -7.9084,0 h 2.9181 v 66.1838 h -2.9181 z m -7.9084,0 h 3.0555 v 66.1838 h -3.0555 z m -7.9084,0 h 3.1929 v 66.1838 h -3.1929 z m -7.9085,0 h 3.3304 v 66.1838 h -3.3304 z m -7.9084,0 h 3.4679 v 66.1838 h -3.4679 z m -7.9084,0 h 3.6053 v 66.1838 h -3.6053 z m -7.9085,0 h 3.7428 v 66.1838 h -3.7428 z m -7.9084,0 h 3.8802 v 66.1838 h -3.8802 z m -7.9084,0 h 4.0176 v 66.1838 h -4.0176 z m -7.9084,0 h 4.1551 v 66.1838 h -4.1551 z m -7.9085,0 h 4.2926 v 66.1838 h -4.2926 z m -7.9084,0 h 4.43 v 66.1838 h -4.43 z m -7.9084,0 h 4.5674 v 66.1838 h -4.5674 z m -7.9084,0 h 4.7048 v 66.1838 h -4.7048 z m -7.9085,0 h 4.8424 v 66.1838 h -4.8424 z m -7.9084,0 h 4.9798 v 66.1838 h -4.9798 z m -7.9084,0 h 5.1172 v 66.1838 h -5.1172 z m -7.9084,0 h 5.2546 v 66.1838 h -5.2546 z m -7.9085,0 h 5.3921 v 66.1838 h -5.3921 z m -7.9084,0 h 5.5295 v 66.1838 h -5.5295 z m -7.9084,0 h 5.667 v 66.1838 h -5.667 z m -7.9085,0 h 5.8045 v 66.1838 h -5.8045 z m -7.9084,0 h 5.9419 v 66.1838 h -5.9419 z m -7.9084,0 h 6.0793 v 66.1838 h -6.0793 z m -7.9084,0 h 6.2167 v 66.1838 h -6.2167 z m -7.9085,0 h 6.3543 V 66.1838 H 63.2674 Z M 55.359,0 h 6.4917 V 66.1838 H 55.359 Z m -7.9084,0 h 6.6291 v 66.1838 h -6.6291 z m -7.9084,0 h 6.7665 v 66.1838 h -6.7665 z m -7.9085,0 h 6.904 v 66.1838 h -6.904 z m -7.9084,0 h 7.0415 v 66.1838 h -7.0415 z m -7.9084,0 h 7.1789 V 66.1838 H 15.8169 Z M 7.9084,0 h 7.3164 V 66.1838 H 7.9084 Z M 0,0 H 7.4538 V 66.1838 H 0 Z" />
    </pattern>
    <pattern
       xlink:href="#shading6-9-6-1-5-4-4-6-6-4-4"
       preserveAspectRatio="xMidYMid"
       id="pattern10-5-5-7-7-8-2-6-9-5-8"
       patternTransform="matrix(0.05,0,0,0.05,82.372409,3.920155)"
       x="-123"
       y="0" />
    <pattern
       patternUnits="userSpaceOnUse"
       width="372.6899"
       height="66.1838"
       patternTransform="scale(0.2)"
       preserveAspectRatio="xMidYMid"
       id="shading6-9-6-1-5-4-4-6-6-4-4"
       style="fill:#000000">
      <path
         id="path34-4-5-5-3-9-9-4-6-0-7"
         style="stroke-width:0.487199;stroke-linecap:square;paint-order:markers fill stroke;stop-color:#000000"
         d="m 371.6961,0 h 0.9938 v 66.1838 h -0.9938 z m -7.9084,0 h 1.1312 v 66.1838 h -1.1312 z m -7.9085,0 h 1.2687 v 66.1838 h -1.2687 z m -7.9084,0 h 1.4062 v 66.1838 h -1.4062 z m -7.9084,0 h 1.5436 v 66.1838 h -1.5436 z m -7.9084,0 h 1.681 v 66.1838 h -1.681 z m -7.9085,0 h 1.8185 v 66.1838 h -1.8185 z m -7.9084,0 h 1.9559 v 66.1838 h -1.9559 z m -7.9084,0 h 2.0934 v 66.1838 h -2.0934 z m -7.9085,0 h 2.2309 v 66.1838 h -2.2309 z m -7.9084,0 h 2.3683 v 66.1838 h -2.3683 z m -7.9084,0 h 2.5057 v 66.1838 h -2.5057 z m -7.9084,0 h 2.6431 v 66.1838 h -2.6431 z m -7.9085,0 h 2.7807 v 66.1838 h -2.7807 z m -7.9084,0 h 2.9181 v 66.1838 h -2.9181 z m -7.9084,0 h 3.0555 v 66.1838 h -3.0555 z m -7.9084,0 h 3.1929 v 66.1838 h -3.1929 z m -7.9085,0 h 3.3304 v 66.1838 h -3.3304 z m -7.9084,0 h 3.4679 v 66.1838 h -3.4679 z m -7.9084,0 h 3.6053 v 66.1838 h -3.6053 z m -7.9085,0 h 3.7428 v 66.1838 h -3.7428 z m -7.9084,0 h 3.8802 v 66.1838 h -3.8802 z m -7.9084,0 h 4.0176 v 66.1838 h -4.0176 z m -7.9084,0 h 4.1551 v 66.1838 h -4.1551 z m -7.9085,0 h 4.2926 v 66.1838 h -4.2926 z m -7.9084,0 h 4.43 v 66.1838 h -4.43 z m -7.9084,0 h 4.5674 v 66.1838 h -4.5674 z m -7.9084,0 h 4.7048 v 66.1838 h -4.7048 z m -7.9085,0 h 4.8424 v 66.1838 h -4.8424 z m -7.9084,0 h 4.9798 v 66.1838 h -4.9798 z m -7.9084,0 h 5.1172 v 66.1838 h -5.1172 z m -7.9084,0 h 5.2546 v 66.1838 h -5.2546 z m -7.9085,0 h 5.3921 v 66.1838 h -5.3921 z m -7.9084,0 h 5.5295 v 66.1838 h -5.5295 z m -7.9084,0 h 5.667 v 66.1838 h -5.667 z m -7.9085,0 h 5.8045 v 66.1838 h -5.8045 z m -7.9084,0 h 5.9419 v 66.1838 h -5.9419 z m -7.9084,0 h 6.0793 v 66.1838 h -6.0793 z m -7.9084,0 h 6.2167 v 66.1838 h -6.2167 z m -7.9085,0 h 6.3543 V 66.1838 H 63.2674 Z M 55.359,0 h 6.4917 V 66.1838 H 55.359 Z m -7.9084,0 h 6.6291 v 66.1838 h -6.6291 z m -7.9084,0 h 6.7665 v 66.1838 h -6.7665 z m -7.9085,0 h 6.904 v 66.1838 h -6.904 z m -7.9084,0 h 7.0415 v 66.1838 h -7.0415 z m -7.9084,0 h 7.1789 V 66.1838 H 15.8169 Z M 7.9084,0 h 7.3164 V 66.1838 H 7.9084 Z M 0,0 H 7.4538 V 66.1838 H 0 Z" />
    </pattern>
  </defs>
  <g
     id="layer1"
     transform="translate(-412.66957,-1160.4316)">
    <rect
       style="fill:#f9f06b;fill-opacity:1;stroke:#000000;stroke-width:0.426347;stroke-linecap:round;stroke-linejoin:round;stroke-dasharray:none"
       id="rect7-3-6-7-8-3-8-3-2-9"
       width="34.035614"
       height="20.00098"
       x="506.93521"
       y="1174.4523"
       ry="1.1648849" />
    <g
       id="g1-4-0-1-9"
       transform="translate(358.43422,744.95385)">
      <path
         style="fill:#f8e45c;fill-opacity:0.5;stroke:#000000;stroke-width:0.3;stroke-linecap:round;stroke-linejoin:bevel;stroke-dasharray:none"
         d="m 122.1808,437.5498 4.33013,-2.5 17.32051,10 -4.33013,2.5 z"
         id="path4-8-1-1-3-0-7-5-0-1-4-0" />
      <path
         style="fill:#f6d32d;fill-opacity:0.5;stroke:#000000;stroke-width:0.115015;stroke-linecap:round;stroke-linejoin:bevel"
         d="m 126.51093,435.0498 0.008,24.99641 17.3416,10.00145 -0.0293,-24.99786 z"
         id="path5-3-2-6-1-9-0-9-7-2" />
      <path
         style="fill:#f8e45c;fill-opacity:0.5;stroke:#000000;stroke-width:0.3;stroke-linecap:round;stroke-linejoin:bevel;stroke-dasharray:none"
         d="m 139.50131,447.5498 4.33013,-2.5 -10e-6,25 -4.30103,2.49786 z"
         id="path4-8-1-1-3-0-5-1-3-6-8-7-83" />
    </g>
    <path
       style="opacity:0.2;fill:url(#pattern15-8-8-3-3-0-9-6);fill-opacity:1;stroke:none;stroke-width:0.3;stroke-linecap:round;stroke-linejoin:round;stroke-dasharray:none;stroke-dashoffset:0"
       d="m 432.98362,1200.0036 h 8.66027 l 12.99038,-7.5 -12.99038,-7.5 h -8.66027 l 12.99039,7.5 z"
       id="path10-3-2-39-2-6-0-6" />
    <rect
       style="fill:#ffffff;fill-opacity:1;stroke:#000000;stroke-width:0.171021;stroke-linecap:round;stroke-linejoin:round;stroke-dasharray:none"
       id="rect7-3-9-4-9-9-6"
       width="11.657883"
       height="4.2557225"
       x="427.28543"
       y="1160.5172"
       ry="0.85114431" />
    <text
       xml:space="preserve"
       style="font-weight:500;font-size:2.11667px;line-height:1;font-family:'Kohinoor Telugu';-inkscape-font-specification:'Kohinoor Telugu Medium';text-align:start;letter-spacing:0px;writing-mode:lr-tb;direction:ltr;text-anchor:start;fill:#000000;fill-opacity:1;stroke:none;stroke-width:1;stroke-linecap:round;stroke-linejoin:round;stroke-dasharray:none"
       x="430.4537"
       y="1163.1816"
       id="text7-1-9-7-0-5-3"><tspan
         id="tspan7-0-1-4-1-7-7"
         style="font-size:2.11667px;fill:#000000;stroke:none;stroke-width:1"
         x="430.4537"
         y="1163.1816">Input</tspan></text>
    <path
       style="opacity:0.2;fill:url(#pattern15-1-4-4-4-8-15-0);fill-opacity:1;stroke:none;stroke-width:0.499999;stroke-linecap:round;stroke-linejoin:round;stroke-dasharray:none;stroke-dashoffset:0"
       d="m 476.2849,1230.0036 h 8.66026 l 21.65063,-12.4999 -17.32051,-10 h -8.66025 l 17.32051,10 z"
       id="path10-0-5-7-1-6-2-3" />
    <path
       style="fill:#9a9996;fill-opacity:0.5;stroke:#000000;stroke-width:0.3;stroke-linecap:round;stroke-linejoin:bevel;stroke-dasharray:none"
       d="m 458.9352,1220.0008 21.67983,-12.4971 17.32051,10 -21.62144,12.4914 z"
       id="path4-8-1-6-7-2-8-4-9-38" />
    <path
       style="fill:#9a9996;fill-opacity:0.881766;stroke:#000000;stroke-width:0.3;stroke-linecap:round;stroke-linejoin:bevel;stroke-dasharray:none"
       d="m 480.61504,1182.5037 0.008,24.9964 17.34159,10.0014 -0.0291,-24.9978 z"
       id="path5-3-2-9-5-3-5-4-7-4" />
    <path
       style="fill:none;fill-opacity:0.5;stroke:#000000;stroke-width:1;stroke-linecap:round;stroke-linejoin:round;stroke-dasharray:none"
       d="m 439.4788,1196.2536 30.24629,17.4553"
       id="path7-0-6-6-8-8-68-6" />
    <path
       style="fill:none;fill-opacity:0.5;stroke:#000000;stroke-width:1;stroke-linecap:round;stroke-linejoin:round;stroke-dasharray:none"
       d="m 487.11021,1223.7536 25.98078,15"
       id="path7-0-6-8-5-9-6-2-30" />
    <path
       style="fill:#000000;fill-opacity:1;stroke:#000000;stroke-width:0.1;stroke-linecap:round;stroke-linejoin:bevel"
       d="m 440.34485,1201.7537 8.66025,-5 4.33013,7.5 z"
       id="path6-8-7-5-9-1-9-16" />
    <path
       style="fill:#000000;fill-opacity:1;stroke:#000000;stroke-width:0.1;stroke-linecap:round;stroke-linejoin:bevel"
       d="m 491.50623,1231.3723 8.66026,-5 4.33013,7.5 z"
       id="path6-8-2-8-8-9-4-9-59" />
    <path
       style="fill:#d6d6d4;fill-opacity:0.854701;stroke:#000000;stroke-width:0.3;stroke-linecap:round;stroke-linejoin:bevel;stroke-dasharray:none"
       d="m 458.9352,1195.0008 21.67983,-12.4971 17.32051,10 -21.62144,12.4914 z"
       id="path4-8-1-1-3-6-1-3-0-8-5" />
    <path
       style="fill:#b3b2b1;fill-opacity:0.900285;stroke:#000000;stroke-width:0.3;stroke-linecap:round;stroke-linejoin:bevel;stroke-dasharray:none"
       d="m 458.9644,1195.0037 0.008,24.9964 17.34159,10.0014 -0.0293,-24.9978 z"
       id="path5-3-2-5-4-3-8-3-8" />
    <g
       id="g4-0-7-7-1-7-5"
       style="stroke-width:0.3;stroke-dasharray:none"
       transform="translate(272.66892,1047.4536)">
      <path
         style="fill:#c061cb;fill-opacity:0.5;stroke:#000000;stroke-width:0.3;stroke-linecap:round;stroke-linejoin:bevel;stroke-dasharray:none"
         d="m 147.32431,145.05 12.99038,-7.49999 12.99038,7.49999 -12.99038,7.5 z"
         id="path4-4-9-1-7-0-12-9" />
      <path
         style="fill:#c061cb;fill-opacity:0.5;stroke:#000000;stroke-width:0.3;stroke-linecap:round;stroke-linejoin:bevel;stroke-dasharray:none"
         d="m 147.32431,140.05001 12.99038,-7.49999 12.99038,7.49999 -12.99038,7.5 z"
         id="path4-8-0-3-3-3-3-6-1" />
      <path
         style="fill:#c061cb;fill-opacity:0.5;stroke:#000000;stroke-width:0.3;stroke-linecap:round;stroke-linejoin:bevel;stroke-dasharray:none"
         d="M 147.32431,140.05001 V 145.05 l 12.99038,7.5 v -5 z"
         id="path5-46-7-8-2-1-1-4" />
      <path
         style="fill:#c061cb;fill-opacity:0.5;stroke:#000000;stroke-width:0.3;stroke-linecap:round;stroke-linejoin:bevel;stroke-dasharray:none"
         d="m 173.30507,140.05002 v 4.99999 l -12.99038,7.5 v -5 z"
         id="path5-7-4-57-4-56-1-7-0" />
      <path
         style="opacity:0.3;mix-blend-mode:darken;fill:url(#pattern10-5-6-9-9-0-3-5);fill-opacity:1;stroke:#000000;stroke-width:0.3;stroke-linecap:round;stroke-linejoin:bevel;stroke-dasharray:none"
         d="m 173.30507,140.05002 v 4.99999 l -12.99038,7.5 v -5 z"
         id="path5-7-2-64-2-8-3-5-6-6" />
    </g>
    <g
       id="g8-9-0-5-0-5-2"
       style="stroke-width:0.3;stroke-dasharray:none"
       transform="translate(242.45803,1042.0036)">
      <path
         style="fill:#33d17a;fill-opacity:0.5;stroke:#000000;stroke-width:0.3;stroke-linecap:round;stroke-linejoin:bevel;stroke-dasharray:none"
         d="M 177.5352,145.49999 190.52558,138 l 12.99038,7.49999 -12.99038,7.5 z"
         id="path4-4-0-5-7-46-6-8-0-3" />
      <path
         style="fill:#33d17a;fill-opacity:0.5;stroke:#000000;stroke-width:0.3;stroke-linecap:round;stroke-linejoin:bevel;stroke-dasharray:none"
         d="m 177.5352,140.5 12.99038,-7.49999 12.99038,7.49999 -12.99038,7.5 z"
         id="path4-8-0-4-6-5-0-8-4-45-3" />
      <path
         style="fill:#33d17a;fill-opacity:0.5;stroke:#000000;stroke-width:0.3;stroke-linecap:round;stroke-linejoin:bevel;stroke-dasharray:none"
         d="m 177.5352,140.5 v 4.99999 l 12.99038,7.5 v -5 z"
         id="path5-46-8-7-6-3-5-9-1-5" />
      <path
         style="fill:#33d17a;fill-opacity:0.5;stroke:#000000;stroke-width:0.3;stroke-linecap:round;stroke-linejoin:bevel;stroke-dasharray:none"
         d="M 203.51596,140.50001 V 145.5 l -12.99038,7.5 v -5 z"
         id="path5-7-4-5-9-5-2-3-3-2-1" />
      <path
         style="opacity:0.3;mix-blend-mode:darken;fill:url(#pattern10-5-5-7-4-2-7-92-9-4);fill-opacity:1;stroke:#000000;stroke-width:0.3;stroke-linecap:round;stroke-linejoin:bevel;stroke-dasharray:none"
         d="m 203.51596,140.50001 v 4.99998 l -12.99038,7.5 v -5 z"
         id="path5-7-2-64-5-4-3-6-7-0-3-5" />
    </g>
    <text
       xml:space="preserve"
       style="font-weight:bold;font-stretch:condensed;font-size:5.64703px;line-height:1;font-family:'DIN Condensed';-inkscape-font-specification:'DIN Condensed,  Bold Condensed';text-align:start;letter-spacing:0px;writing-mode:lr-tb;direction:ltr;text-anchor:start;fill:#000000;stroke-width:0.0727607;stroke-linecap:round;stroke-linejoin:bevel"
       x="-414.79636"
       y="1187.1069"
       id="text2-7-4-1-1-6-5-7-2"
       transform="matrix(-0.99999942,0.00107563,0.00107563,0.99999942,0,0)"><tspan
         id="tspan2-9-7-4-8-8-2-2-8"
         style="stroke-width:0.0727607"
         x="-414.79636"
         y="1187.1069">}</tspan></text>
    <text
       xml:space="preserve"
       style="font-weight:bold;font-stretch:condensed;font-size:5.64703px;line-height:1;font-family:'DIN Condensed';-inkscape-font-specification:'DIN Condensed,  Bold Condensed';text-align:start;letter-spacing:0px;writing-mode:lr-tb;direction:ltr;text-anchor:start;fill:#000000;stroke-width:0.0727607;stroke-linecap:round;stroke-linejoin:bevel"
       x="-414.79025"
       y="1192.7703"
       id="text2-7-4-1-9-8-6-3-4-5"
       transform="matrix(-0.99999942,0.00107563,0.00107563,0.99999942,0,0)"><tspan
         id="tspan2-9-7-4-3-3-7-8-1-2"
         style="stroke-width:0.0727607"
         x="-414.79025"
         y="1192.7703">}</tspan></text>
    <text
       xml:space="preserve"
       style="font-weight:500;font-size:2.11667px;line-height:1;font-family:'Kohinoor Telugu';-inkscape-font-specification:'Kohinoor Telugu Medium';text-align:start;letter-spacing:0px;writing-mode:lr-tb;direction:ltr;text-anchor:start;fill:#000000;fill-opacity:0.881766;stroke:none;stroke-width:0.0115198;stroke-linecap:round;stroke-linejoin:round;stroke-dasharray:none;stroke-dashoffset:0;stroke-opacity:1"
       x="412.64838"
       y="1185.4874"
       id="text17-9-7-8-7-5-5-1-7-82-0"><tspan
         style="font-size:2.11667px;fill:#000000;stroke:none;stroke-width:0.0115198"
         x="412.64838"
         y="1185.4874"
         id="tspan18-0-2-1-3-9-2-8-8-6-1">A</tspan></text>
    <text
       xml:space="preserve"
       style="font-weight:500;font-size:2.11667px;line-height:1;font-family:'Kohinoor Telugu';-inkscape-font-specification:'Kohinoor Telugu Medium';text-align:start;letter-spacing:0px;writing-mode:lr-tb;direction:ltr;text-anchor:start;fill:#000000;fill-opacity:0.881766;stroke:none;stroke-width:0.0115198;stroke-linecap:round;stroke-linejoin:round;stroke-dasharray:none;stroke-dashoffset:0;stroke-opacity:1"
       x="412.61768"
       y="1191.3381"
       id="text17-9-7-8-7-5-6-2-4-0-0-0"><tspan
         style="font-size:2.11667px;fill:#000000;stroke:none;stroke-width:0.0115198"
         x="412.61768"
         y="1191.3381"
         id="tspan18-0-2-1-3-9-4-6-9-4-3-3">B</tspan></text>
    <path
       style="fill:#000000;fill-opacity:1;stroke:#000000;stroke-width:0.554675;stroke-linecap:round;stroke-linejoin:round;stroke-dasharray:0.554675, 1.10935;stroke-dashoffset:0"
       d="m 432.98364,1165.0036 v 10"
       id="path8-1-5-3-0-32-9" />
    <rect
       style="fill:#ffffff;fill-opacity:1;stroke:#000000;stroke-width:0.345038;stroke-linecap:round;stroke-linejoin:round;stroke-dasharray:none"
       id="rect7-3-6-7-8-37-2-3-9"
       width="69.684784"
       height="3.9858096"
       x="471.4086"
       y="1172.1732"
       ry="0.79716176" />
    <text
       xml:space="preserve"
       style="font-weight:500;font-size:2.11667px;line-height:1;font-family:'Kohinoor Telugu';-inkscape-font-specification:'Kohinoor Telugu Medium';text-align:start;letter-spacing:0px;writing-mode:lr-tb;direction:ltr;text-anchor:start;fill:#000000;fill-opacity:1;stroke:none;stroke-width:1;stroke-linecap:round;stroke-linejoin:round;stroke-dasharray:none"
       x="476.82089"
       y="1175.0001"
       id="text7-1-6-9-2-4-3-9-6"><tspan
         id="tspan7-0-7-8-0-80-2-5-9"
         style="font-weight:bold;font-size:2.11667px;fill:#000000;stroke:none;stroke-width:1"
         x="476.82089"
         y="1175.0001">assign</tspan><tspan
         style="font-size:2.11667px;fill:#000000;stroke:none;stroke-width:1"
         x="476.82089"
         y="1177.1168"
         id="tspan3-7-40-7-3-1" /></text>
    <path
       style="fill:#000000;fill-opacity:1;stroke:#000000;stroke-width:0.554675;stroke-linecap:round;stroke-linejoin:round;stroke-dasharray:0.554675, 1.10935;stroke-dashoffset:0"
       d="m 480.59224,1177.2323 v 10"
       id="path8-1-0-4-4-5-1-1-6" />
    <text
       xml:space="preserve"
       style="font-weight:500;font-size:2.11667px;line-height:1;font-family:'Kohinoor Telugu';-inkscape-font-specification:'Kohinoor Telugu Medium';text-align:start;letter-spacing:0px;writing-mode:lr-tb;direction:ltr;text-anchor:start;fill:#000000;fill-opacity:1;stroke:none;stroke-width:1;stroke-linecap:round;stroke-linejoin:round;stroke-dasharray:none"
       x="508.17258"
       y="1178.4218"
       id="text7-1-6-9-2-0-7-0-1-0"><tspan
         id="tspan7-0-7-8-0-8-0-0-2-1"
         style="font-style:normal;font-size:2.11667px;fill:#e5a50a;stroke:none;stroke-width:1"
         x="508.17258"
         y="1178.4218">parameter</tspan><tspan
         style="font-style:normal;font-size:2.11667px;fill:#e5a50a;stroke:none;stroke-width:1"
         x="508.17258"
         y="1180.5385"
         id="tspan12-02" /><tspan
         style="font-size:2.11667px;fill:#000000;stroke:none;stroke-width:1"
         x="508.17258"
         y="1182.6552"
         id="tspan4-0-9-6-1">variable name: &quot;C&quot; </tspan><tspan
         style="font-size:2.11667px;fill:#000000;stroke:none;stroke-width:1"
         x="508.17258"
         y="1184.7717"
         id="tspan10-4" /><tspan
         style="font-size:2.11667px;fill:#000000;stroke:none;stroke-width:1"
         x="508.17258"
         y="1186.8884"
         id="tspan13-7" /><tspan
         style="font-size:2.11667px;fill:#000000;stroke:none;stroke-width:1"
         x="508.17258"
         y="1189.0051"
         id="tspan9-3">right-hand-side rule:</tspan><tspan
         style="font-size:2.11667px;fill:#000000;stroke:none;stroke-width:1"
         x="508.17258"
         y="1191.1218"
         id="tspan11-8" /><tspan
         style="font-size:2.11667px;fill:#000000;stroke:none;stroke-width:1"
         x="508.17258"
         y="1193.2384"
         id="tspan3-7-4-5-7-9-16" /></text>
    <path
       style="fill:#000000;fill-opacity:1;stroke:#000000;stroke-width:0.482759;stroke-linecap:round;stroke-linejoin:round;stroke-dasharray:0.482759, 0.965517;stroke-dashoffset:0"
       d="m 506.72205,1189.8738 -4.30639,-0.071"
       id="path8-1-0-4-4-0-6-1-1-3" />
    <g
       id="g13-7-8"
       transform="matrix(0.14416163,0,0,0.14416163,512.06053,1073.4808)">
      <path
         style="fill:#9a9996;fill-opacity:0.5;stroke:#000000;stroke-width:0.3;stroke-linecap:round;stroke-linejoin:bevel;stroke-dasharray:none"
         d="m 119.12817,816.32316 21.67984,-12.49716 17.3205,10 -21.62143,12.4915 z"
         id="path4-8-1-6-7-2-8-4-7-4-3-7" />
      <path
         style="fill:#9a9996;fill-opacity:0.881766;stroke:#000000;stroke-width:0.3;stroke-linecap:round;stroke-linejoin:bevel;stroke-dasharray:none"
         d="m 140.80802,778.826 0.008,24.99641 17.34158,10.00145 -0.0291,-24.99786 z"
         id="path5-3-2-9-5-3-5-4-9-9-3-6" />
      <path
         style="fill:#d6d6d4;fill-opacity:0.854701;stroke:#000000;stroke-width:0.3;stroke-linecap:round;stroke-linejoin:bevel;stroke-dasharray:none"
         d="m 119.12817,791.32316 21.67984,-12.49716 17.3205,10 -21.62143,12.49149 z"
         id="path4-8-1-1-3-6-1-3-0-7-0-2-2" />
      <path
         style="fill:#b3b2b1;fill-opacity:0.900285;stroke:#000000;stroke-width:0.3;stroke-linecap:round;stroke-linejoin:bevel;stroke-dasharray:none"
         d="m 119.15737,791.326 0.008,24.99641 17.3416,10.00145 -0.0293,-24.99786 z"
         id="path5-3-2-5-4-3-8-0-0-1-8" />
    </g>
    <path
       style="opacity:0.2;fill:url(#pattern15-8-8-3-3-1-7-8);fill-opacity:1;stroke:none;stroke-width:0.3;stroke-linecap:round;stroke-linejoin:round;stroke-dasharray:none;stroke-dashoffset:0"
       d="m 519.61527,1250 h 8.66026 l 12.99038,-7.5 -12.99038,-7.5 h -8.66026 l 12.99038,7.5 z"
       id="path10-3-2-39-2-7-2-0" />
    <g
       id="g4-0-7-7-9-8-2"
       style="stroke-width:0.3;stroke-dasharray:none"
       transform="translate(359.30056,1097.45)">
      <path
         style="fill:#c061cb;fill-opacity:0.5;stroke:#000000;stroke-width:0.3;stroke-linecap:round;stroke-linejoin:bevel;stroke-dasharray:none"
         d="m 147.32431,145.05 12.99038,-7.49999 12.99038,7.49999 -12.99038,7.5 z"
         id="path4-4-9-1-7-9-3-5" />
      <path
         style="fill:#c061cb;fill-opacity:0.5;stroke:#000000;stroke-width:0.3;stroke-linecap:round;stroke-linejoin:bevel;stroke-dasharray:none"
         d="m 147.32431,140.05001 12.99038,-7.49999 12.99038,7.49999 -12.99038,7.5 z"
         id="path4-8-0-3-3-3-30-9-4" />
      <path
         style="fill:#c061cb;fill-opacity:0.5;stroke:#000000;stroke-width:0.3;stroke-linecap:round;stroke-linejoin:bevel;stroke-dasharray:none"
         d="M 147.32431,140.05001 V 145.05 l 12.99038,7.5 v -5 z"
         id="path5-46-7-8-2-15-8-0" />
      <path
         style="fill:#c061cb;fill-opacity:0.5;stroke:#000000;stroke-width:0.3;stroke-linecap:round;stroke-linejoin:bevel;stroke-dasharray:none"
         d="m 173.30507,140.05002 v 4.99999 l -12.99038,7.5 v -5 z"
         id="path5-7-4-57-4-56-2-74-6" />
      <path
         style="opacity:0.3;mix-blend-mode:darken;fill:url(#pattern10-5-6-9-9-4-6-4);fill-opacity:1;stroke:#000000;stroke-width:0.3;stroke-linecap:round;stroke-linejoin:bevel;stroke-dasharray:none"
         d="m 173.30507,140.05002 v 4.99999 l -12.99038,7.5 v -5 z"
         id="path5-7-2-64-2-8-3-7-1-3" />
    </g>
    <g
       id="g8-9-0-5-39-7-0"
       style="stroke-width:0.3;stroke-dasharray:none"
       transform="translate(329.08968,1092)">
      <path
         style="fill:#33d17a;fill-opacity:0.5;stroke:#000000;stroke-width:0.3;stroke-linecap:round;stroke-linejoin:bevel;stroke-dasharray:none"
         d="M 177.5352,145.49999 190.52558,138 l 12.99038,7.49999 -12.99038,7.5 z"
         id="path4-4-0-5-7-46-6-6-6-0" />
      <path
         style="fill:#33d17a;fill-opacity:0.5;stroke:#000000;stroke-width:0.3;stroke-linecap:round;stroke-linejoin:bevel;stroke-dasharray:none"
         d="m 177.5352,140.5 12.99038,-7.49999 12.99038,7.49999 -12.99038,7.5 z"
         id="path4-8-0-4-6-5-0-8-49-0-5" />
      <path
         style="fill:#33d17a;fill-opacity:0.5;stroke:#000000;stroke-width:0.3;stroke-linecap:round;stroke-linejoin:bevel;stroke-dasharray:none"
         d="m 177.5352,140.5 v 4.99999 l 12.99038,7.5 v -5 z"
         id="path5-46-8-7-6-3-5-2-2-2" />
      <path
         style="fill:#33d17a;fill-opacity:0.5;stroke:#000000;stroke-width:0.3;stroke-linecap:round;stroke-linejoin:bevel;stroke-dasharray:none"
         d="M 203.51596,140.50001 V 145.5 l -12.99038,7.5 v -5 z"
         id="path5-7-4-5-9-5-2-3-35-10-2" />
      <path
         style="opacity:0.3;mix-blend-mode:darken;fill:url(#pattern10-5-5-7-4-2-7-3-7-0);fill-opacity:1;stroke:#000000;stroke-width:0.3;stroke-linecap:round;stroke-linejoin:bevel;stroke-dasharray:none"
         d="m 203.51596,140.50001 v 4.99998 l -12.99038,7.5 v -5 z"
         id="path5-7-2-64-5-4-3-6-7-9-8-0" />
    </g>
    <text
       xml:space="preserve"
       style="font-weight:bold;font-stretch:condensed;font-size:5.64703px;line-height:1;font-family:'DIN Condensed';-inkscape-font-specification:'DIN Condensed,  Bold Condensed';text-align:start;letter-spacing:0px;writing-mode:lr-tb;direction:ltr;text-anchor:start;fill:#000000;stroke-width:0.0727607;stroke-linecap:round;stroke-linejoin:bevel"
       x="537.50482"
       y="1241.2587"
       id="text2-7-4-1-9-8-6-2-4-8"
       transform="rotate(0.06162907)"><tspan
         id="tspan2-9-7-4-3-3-7-4-7-2"
         style="stroke-width:0.0727607"
         x="537.50482"
         y="1241.2587">}</tspan></text>
    <text
       xml:space="preserve"
       style="font-weight:bold;font-stretch:condensed;font-size:5.64703px;line-height:1;font-family:'DIN Condensed';-inkscape-font-specification:'DIN Condensed,  Bold Condensed';text-align:start;letter-spacing:0px;writing-mode:lr-tb;direction:ltr;text-anchor:start;fill:#000000;stroke-width:0.0727607;stroke-linecap:round;stroke-linejoin:bevel"
       x="537.45752"
       y="1235.4305"
       id="text2-7-4-1-9-8-6-2-4-2-5"
       transform="rotate(0.06162907)"><tspan
         id="tspan2-9-7-4-3-3-7-4-7-8-5"
         style="stroke-width:0.0727607"
         x="537.45752"
         y="1235.4305">}</tspan></text>
    <text
       xml:space="preserve"
       style="font-weight:bold;font-stretch:condensed;font-size:5.64703px;line-height:1;font-family:'DIN Condensed';-inkscape-font-specification:'DIN Condensed,  Bold Condensed';text-align:start;letter-spacing:0px;writing-mode:lr-tb;direction:ltr;text-anchor:start;fill:#000000;stroke-width:0.0727607;stroke-linecap:round;stroke-linejoin:bevel"
       x="537.45148"
       y="1229.7955"
       id="text2-7-4-1-9-8-6-2-4-1-7"
       transform="rotate(0.06162907)"><tspan
         id="tspan2-9-7-4-3-3-7-4-7-9-4"
         style="stroke-width:0.0727607"
         x="537.45148"
         y="1229.7955">}</tspan></text>
    <text
       xml:space="preserve"
       style="font-weight:500;font-size:2.11667px;line-height:1;font-family:'Kohinoor Telugu';-inkscape-font-specification:'Kohinoor Telugu Medium';text-align:start;letter-spacing:0px;writing-mode:lr-tb;direction:ltr;text-anchor:start;fill:#000000;fill-opacity:0.881766;stroke:none;stroke-width:0.0115198;stroke-linecap:round;stroke-linejoin:round;stroke-dasharray:none;stroke-dashoffset:0;stroke-opacity:1"
       x="539.98322"
       y="1235.7418"
       id="text17-9-7-8-7-5-5-1-6-2-7"><tspan
         style="font-size:2.11667px;fill:#000000;stroke:none;stroke-width:0.0115198"
         x="539.98322"
         y="1235.7418"
         id="tspan18-0-2-1-3-9-2-8-7-9-40">A</tspan></text>
    <text
       xml:space="preserve"
       style="font-weight:500;font-size:2.11667px;line-height:1;font-family:'Kohinoor Telugu';-inkscape-font-specification:'Kohinoor Telugu Medium';text-align:start;letter-spacing:0px;writing-mode:lr-tb;direction:ltr;text-anchor:start;fill:#000000;fill-opacity:0.881766;stroke:none;stroke-width:0.0115198;stroke-linecap:round;stroke-linejoin:round;stroke-dasharray:none;stroke-dashoffset:0;stroke-opacity:1"
       x="539.98322"
       y="1229.3875"
       id="text17-9-7-8-7-5-5-1-6-2-2-0"><tspan
         style="font-size:2.11667px;fill:#000000;stroke:none;stroke-width:0.0115198"
         x="539.98322"
         y="1229.3875"
         id="tspan18-0-2-1-3-9-2-8-7-9-4-6">C</tspan></text>
    <text
       xml:space="preserve"
       style="font-weight:500;font-size:2.11667px;line-height:1;font-family:'Kohinoor Telugu';-inkscape-font-specification:'Kohinoor Telugu Medium';text-align:start;letter-spacing:0px;writing-mode:lr-tb;direction:ltr;text-anchor:start;fill:#000000;fill-opacity:0.881766;stroke:none;stroke-width:0.0115198;stroke-linecap:round;stroke-linejoin:round;stroke-dasharray:none;stroke-dashoffset:0;stroke-opacity:1"
       x="539.95258"
       y="1241.5925"
       id="text17-9-7-8-7-5-6-2-4-5-7-6"><tspan
         style="font-size:2.11667px;fill:#000000;stroke:none;stroke-width:0.0115198"
         x="539.95258"
         y="1241.5925"
         id="tspan18-0-2-1-3-9-4-6-9-9-0-1">B</tspan></text>
    <g
       id="g6-0-2-2-4-3-3"
       style="stroke-width:0.3;stroke-dasharray:none"
       transform="translate(328.98968,1108.5798)">
      <path
         style="fill:#ff7800;fill-opacity:0.5;stroke:#000000;stroke-width:0.3;stroke-linecap:round;stroke-linejoin:bevel;stroke-dasharray:none"
         d="m 177.6352,123.92017 12.99038,-7.49999 12.99038,7.49999 -12.99038,7.5 z"
         id="path4-4-0-5-2-4-9-0-6-7-2" />
      <path
         style="fill:#ff7800;fill-opacity:0.5;stroke:#000000;stroke-width:0.3;stroke-linecap:round;stroke-linejoin:bevel;stroke-dasharray:none"
         d="m 177.6352,118.92018 12.99038,-7.49999 12.99038,7.49999 -12.99038,7.5 z"
         id="path4-8-0-4-6-0-5-9-6-3-4-5" />
      <path
         style="fill:#ff7800;fill-opacity:0.5;stroke:#000000;stroke-width:0.3;stroke-linecap:round;stroke-linejoin:bevel;stroke-dasharray:none"
         d="m 177.6352,118.92018 v 4.99999 l 12.99038,7.5 v -5 z"
         id="path5-46-8-7-4-7-8-0-7-8-8" />
      <path
         style="fill:#ff7800;fill-opacity:0.5;stroke:#000000;stroke-width:0.3;stroke-linecap:round;stroke-linejoin:bevel;stroke-dasharray:none"
         d="m 203.61596,118.92019 v 4.99999 l -12.99038,7.5 v -5 z"
         id="path5-7-4-5-9-4-1-3-7-8-7-5" />
      <path
         style="opacity:0.3;mix-blend-mode:darken;fill:url(#pattern10-5-5-7-7-8-2-6-9-5-8);fill-opacity:1;stroke:#000000;stroke-width:0.3;stroke-linecap:round;stroke-linejoin:bevel;stroke-dasharray:none"
         d="m 203.61596,118.92019 v 4.99998 l -12.99038,7.5 v -5 z"
         id="path5-7-2-64-5-4-0-0-7-2-4-5-0" />
    </g>
  </g>
</svg>
