<?xml version="1.0" encoding="UTF-8" standalone="no"?>
<!-- Created with Inkscape (http://www.inkscape.org/) -->

<svg
   width="121.97699mm"
   height="135.29503mm"
   viewBox="0 0 121.97699 135.29503"
   version="1.1"
   id="svg1"
   xmlns:xlink="http://www.w3.org/1999/xlink"
   xmlns="http://www.w3.org/2000/svg"
   xmlns:svg="http://www.w3.org/2000/svg">
  <defs
     id="defs1">
    <pattern
       xlink:href="#pattern14-7-0"
       preserveAspectRatio="xMidYMid"
       id="pattern21"
       patternTransform="matrix(0,-0.03,0.03,0,4.661114,-26.004082)"
       x="0"
       y="0"
       width="596.30385742" />
    <pattern
       xlink:href="#pattern14-7-5-8-1-0-5-7-1"
       preserveAspectRatio="xMidYMid"
       id="pattern15-8-8-3-3-0-9-6-3"
       patternTransform="matrix(0,-0.05,0.05,0,463.31961,905.00188)"
       x="0"
       y="0" />
    <pattern
       patternUnits="userSpaceOnUse"
       width="372.6899"
       height="66.1838"
       patternTransform="scale(0.2)"
       preserveAspectRatio="xMidYMid"
       id="pattern14-7-5-8-1-0-5-7-1"
       style="fill:#000000">
      <path
         id="path13-8-5-02-1-3-56-2-7"
         style="stroke-width:0.487199;stroke-linecap:square;paint-order:markers fill stroke;stop-color:#000000"
         d="m 371.6961,0 h 0.9938 v 66.1838 h -0.9938 z m -7.9084,0 h 1.1312 v 66.1838 h -1.1312 z m -7.9085,0 h 1.2687 v 66.1838 h -1.2687 z m -7.9084,0 h 1.4062 v 66.1838 h -1.4062 z m -7.9084,0 h 1.5436 v 66.1838 h -1.5436 z m -7.9084,0 h 1.681 v 66.1838 h -1.681 z m -7.9085,0 h 1.8185 v 66.1838 h -1.8185 z m -7.9084,0 h 1.9559 v 66.1838 h -1.9559 z m -7.9084,0 h 2.0934 v 66.1838 h -2.0934 z m -7.9085,0 h 2.2309 v 66.1838 h -2.2309 z m -7.9084,0 h 2.3683 v 66.1838 h -2.3683 z m -7.9084,0 h 2.5057 v 66.1838 h -2.5057 z m -7.9084,0 h 2.6431 v 66.1838 h -2.6431 z m -7.9085,0 h 2.7807 v 66.1838 h -2.7807 z m -7.9084,0 h 2.9181 v 66.1838 h -2.9181 z m -7.9084,0 h 3.0555 v 66.1838 h -3.0555 z m -7.9084,0 h 3.1929 v 66.1838 h -3.1929 z m -7.9085,0 h 3.3304 v 66.1838 h -3.3304 z m -7.9084,0 h 3.4679 v 66.1838 h -3.4679 z m -7.9084,0 h 3.6053 v 66.1838 h -3.6053 z m -7.9085,0 h 3.7428 v 66.1838 h -3.7428 z m -7.9084,0 h 3.8802 v 66.1838 h -3.8802 z m -7.9084,0 h 4.0176 v 66.1838 h -4.0176 z m -7.9084,0 h 4.1551 v 66.1838 h -4.1551 z m -7.9085,0 h 4.2926 v 66.1838 h -4.2926 z m -7.9084,0 h 4.43 v 66.1838 h -4.43 z m -7.9084,0 h 4.5674 v 66.1838 h -4.5674 z m -7.9084,0 h 4.7048 v 66.1838 h -4.7048 z m -7.9085,0 h 4.8424 v 66.1838 h -4.8424 z m -7.9084,0 h 4.9798 v 66.1838 h -4.9798 z m -7.9084,0 h 5.1172 v 66.1838 h -5.1172 z m -7.9084,0 h 5.2546 v 66.1838 h -5.2546 z m -7.9085,0 h 5.3921 v 66.1838 h -5.3921 z m -7.9084,0 h 5.5295 v 66.1838 h -5.5295 z m -7.9084,0 h 5.667 v 66.1838 h -5.667 z m -7.9085,0 h 5.8045 v 66.1838 h -5.8045 z m -7.9084,0 h 5.9419 v 66.1838 h -5.9419 z m -7.9084,0 h 6.0793 v 66.1838 h -6.0793 z m -7.9084,0 h 6.2167 v 66.1838 h -6.2167 z m -7.9085,0 h 6.3543 V 66.1838 H 63.2674 Z M 55.359,0 h 6.4917 V 66.1838 H 55.359 Z m -7.9084,0 h 6.6291 v 66.1838 h -6.6291 z m -7.9084,0 h 6.7665 v 66.1838 h -6.7665 z m -7.9085,0 h 6.904 v 66.1838 h -6.904 z m -7.9084,0 h 7.0415 v 66.1838 h -7.0415 z m -7.9084,0 h 7.1789 V 66.1838 H 15.8169 Z M 7.9084,0 h 7.3164 V 66.1838 H 7.9084 Z M 0,0 H 7.4538 V 66.1838 H 0 Z" />
    </pattern>
    <pattern
       xlink:href="#pattern14-8-8-8-9-3-9-6-7"
       preserveAspectRatio="xMidYMid"
       id="pattern15-1-4-4-4-8-15-0-9"
       patternTransform="matrix(0,-0.09,0.09,0,510.95101,927.50188)"
       x="-128"
       y="0" />
    <pattern
       patternUnits="userSpaceOnUse"
       width="372.6899"
       height="66.1838"
       patternTransform="scale(0.2)"
       preserveAspectRatio="xMidYMid"
       id="pattern14-8-8-8-9-3-9-6-7"
       style="fill:#000000">
      <path
         id="path13-1-0-3-5-6-1-1-6"
         style="stroke-width:0.487199;stroke-linecap:square;paint-order:markers fill stroke;stop-color:#000000"
         d="m 371.6961,0 h 0.9938 v 66.1838 h -0.9938 z m -7.9084,0 h 1.1312 v 66.1838 h -1.1312 z m -7.9085,0 h 1.2687 v 66.1838 h -1.2687 z m -7.9084,0 h 1.4062 v 66.1838 h -1.4062 z m -7.9084,0 h 1.5436 v 66.1838 h -1.5436 z m -7.9084,0 h 1.681 v 66.1838 h -1.681 z m -7.9085,0 h 1.8185 v 66.1838 h -1.8185 z m -7.9084,0 h 1.9559 v 66.1838 h -1.9559 z m -7.9084,0 h 2.0934 v 66.1838 h -2.0934 z m -7.9085,0 h 2.2309 v 66.1838 h -2.2309 z m -7.9084,0 h 2.3683 v 66.1838 h -2.3683 z m -7.9084,0 h 2.5057 v 66.1838 h -2.5057 z m -7.9084,0 h 2.6431 v 66.1838 h -2.6431 z m -7.9085,0 h 2.7807 v 66.1838 h -2.7807 z m -7.9084,0 h 2.9181 v 66.1838 h -2.9181 z m -7.9084,0 h 3.0555 v 66.1838 h -3.0555 z m -7.9084,0 h 3.1929 v 66.1838 h -3.1929 z m -7.9085,0 h 3.3304 v 66.1838 h -3.3304 z m -7.9084,0 h 3.4679 v 66.1838 h -3.4679 z m -7.9084,0 h 3.6053 v 66.1838 h -3.6053 z m -7.9085,0 h 3.7428 v 66.1838 h -3.7428 z m -7.9084,0 h 3.8802 v 66.1838 h -3.8802 z m -7.9084,0 h 4.0176 v 66.1838 h -4.0176 z m -7.9084,0 h 4.1551 v 66.1838 h -4.1551 z m -7.9085,0 h 4.2926 v 66.1838 h -4.2926 z m -7.9084,0 h 4.43 v 66.1838 h -4.43 z m -7.9084,0 h 4.5674 v 66.1838 h -4.5674 z m -7.9084,0 h 4.7048 v 66.1838 h -4.7048 z m -7.9085,0 h 4.8424 v 66.1838 h -4.8424 z m -7.9084,0 h 4.9798 v 66.1838 h -4.9798 z m -7.9084,0 h 5.1172 v 66.1838 h -5.1172 z m -7.9084,0 h 5.2546 v 66.1838 h -5.2546 z m -7.9085,0 h 5.3921 v 66.1838 h -5.3921 z m -7.9084,0 h 5.5295 v 66.1838 h -5.5295 z m -7.9084,0 h 5.667 v 66.1838 h -5.667 z m -7.9085,0 h 5.8045 v 66.1838 h -5.8045 z m -7.9084,0 h 5.9419 v 66.1838 h -5.9419 z m -7.9084,0 h 6.0793 v 66.1838 h -6.0793 z m -7.9084,0 h 6.2167 v 66.1838 h -6.2167 z m -7.9085,0 h 6.3543 V 66.1838 H 63.2674 Z M 55.359,0 h 6.4917 V 66.1838 H 55.359 Z m -7.9084,0 h 6.6291 v 66.1838 h -6.6291 z m -7.9084,0 h 6.7665 v 66.1838 h -6.7665 z m -7.9085,0 h 6.904 v 66.1838 h -6.904 z m -7.9084,0 h 7.0415 v 66.1838 h -7.0415 z m -7.9084,0 h 7.1789 V 66.1838 H 15.8169 Z M 7.9084,0 h 7.3164 V 66.1838 H 7.9084 Z M 0,0 H 7.4538 V 66.1838 H 0 Z" />
    </pattern>
    <pattern
       xlink:href="#shading6-9-4-0-0-4-8-4-4"
       preserveAspectRatio="xMidYMid"
       id="pattern10-5-6-9-9-0-3-5-1"
       patternTransform="matrix(0.05,0,0,0.05,52.061516,25.050008)"
       x="-123"
       y="0" />
    <pattern
       patternUnits="userSpaceOnUse"
       width="372.6899"
       height="66.1838"
       patternTransform="scale(0.2)"
       preserveAspectRatio="xMidYMid"
       id="shading6-9-4-0-0-4-8-4-4"
       style="fill:#000000">
      <path
         id="path34-4-6-5-9-0-8-6-2"
         style="stroke-width:0.487199;stroke-linecap:square;paint-order:markers fill stroke;stop-color:#000000"
         d="m 371.6961,0 h 0.9938 v 66.1838 h -0.9938 z m -7.9084,0 h 1.1312 v 66.1838 h -1.1312 z m -7.9085,0 h 1.2687 v 66.1838 h -1.2687 z m -7.9084,0 h 1.4062 v 66.1838 h -1.4062 z m -7.9084,0 h 1.5436 v 66.1838 h -1.5436 z m -7.9084,0 h 1.681 v 66.1838 h -1.681 z m -7.9085,0 h 1.8185 v 66.1838 h -1.8185 z m -7.9084,0 h 1.9559 v 66.1838 h -1.9559 z m -7.9084,0 h 2.0934 v 66.1838 h -2.0934 z m -7.9085,0 h 2.2309 v 66.1838 h -2.2309 z m -7.9084,0 h 2.3683 v 66.1838 h -2.3683 z m -7.9084,0 h 2.5057 v 66.1838 h -2.5057 z m -7.9084,0 h 2.6431 v 66.1838 h -2.6431 z m -7.9085,0 h 2.7807 v 66.1838 h -2.7807 z m -7.9084,0 h 2.9181 v 66.1838 h -2.9181 z m -7.9084,0 h 3.0555 v 66.1838 h -3.0555 z m -7.9084,0 h 3.1929 v 66.1838 h -3.1929 z m -7.9085,0 h 3.3304 v 66.1838 h -3.3304 z m -7.9084,0 h 3.4679 v 66.1838 h -3.4679 z m -7.9084,0 h 3.6053 v 66.1838 h -3.6053 z m -7.9085,0 h 3.7428 v 66.1838 h -3.7428 z m -7.9084,0 h 3.8802 v 66.1838 h -3.8802 z m -7.9084,0 h 4.0176 v 66.1838 h -4.0176 z m -7.9084,0 h 4.1551 v 66.1838 h -4.1551 z m -7.9085,0 h 4.2926 v 66.1838 h -4.2926 z m -7.9084,0 h 4.43 v 66.1838 h -4.43 z m -7.9084,0 h 4.5674 v 66.1838 h -4.5674 z m -7.9084,0 h 4.7048 v 66.1838 h -4.7048 z m -7.9085,0 h 4.8424 v 66.1838 h -4.8424 z m -7.9084,0 h 4.9798 v 66.1838 h -4.9798 z m -7.9084,0 h 5.1172 v 66.1838 h -5.1172 z m -7.9084,0 h 5.2546 v 66.1838 h -5.2546 z m -7.9085,0 h 5.3921 v 66.1838 h -5.3921 z m -7.9084,0 h 5.5295 v 66.1838 h -5.5295 z m -7.9084,0 h 5.667 v 66.1838 h -5.667 z m -7.9085,0 h 5.8045 v 66.1838 h -5.8045 z m -7.9084,0 h 5.9419 v 66.1838 h -5.9419 z m -7.9084,0 h 6.0793 v 66.1838 h -6.0793 z m -7.9084,0 h 6.2167 v 66.1838 h -6.2167 z m -7.9085,0 h 6.3543 V 66.1838 H 63.2674 Z M 55.359,0 h 6.4917 V 66.1838 H 55.359 Z m -7.9084,0 h 6.6291 v 66.1838 h -6.6291 z m -7.9084,0 h 6.7665 v 66.1838 h -6.7665 z m -7.9085,0 h 6.904 v 66.1838 h -6.904 z m -7.9084,0 h 7.0415 v 66.1838 h -7.0415 z m -7.9084,0 h 7.1789 V 66.1838 H 15.8169 Z M 7.9084,0 h 7.3164 V 66.1838 H 7.9084 Z M 0,0 H 7.4538 V 66.1838 H 0 Z" />
    </pattern>
    <pattern
       xlink:href="#shading6-9-6-1-3-2-5-4-4-7-0"
       preserveAspectRatio="xMidYMid"
       id="pattern10-5-5-7-4-2-7-92-9-4-0"
       patternTransform="matrix(0.05,0,0,0.05,82.272414,25.499974)"
       x="-123"
       y="0" />
    <pattern
       patternUnits="userSpaceOnUse"
       width="372.6899"
       height="66.1838"
       patternTransform="scale(0.2)"
       preserveAspectRatio="xMidYMid"
       id="shading6-9-6-1-3-2-5-4-4-7-0"
       style="fill:#000000">
      <path
         id="path34-4-5-5-8-7-7-9-3-5-4"
         style="stroke-width:0.487199;stroke-linecap:square;paint-order:markers fill stroke;stop-color:#000000"
         d="m 371.6961,0 h 0.9938 v 66.1838 h -0.9938 z m -7.9084,0 h 1.1312 v 66.1838 h -1.1312 z m -7.9085,0 h 1.2687 v 66.1838 h -1.2687 z m -7.9084,0 h 1.4062 v 66.1838 h -1.4062 z m -7.9084,0 h 1.5436 v 66.1838 h -1.5436 z m -7.9084,0 h 1.681 v 66.1838 h -1.681 z m -7.9085,0 h 1.8185 v 66.1838 h -1.8185 z m -7.9084,0 h 1.9559 v 66.1838 h -1.9559 z m -7.9084,0 h 2.0934 v 66.1838 h -2.0934 z m -7.9085,0 h 2.2309 v 66.1838 h -2.2309 z m -7.9084,0 h 2.3683 v 66.1838 h -2.3683 z m -7.9084,0 h 2.5057 v 66.1838 h -2.5057 z m -7.9084,0 h 2.6431 v 66.1838 h -2.6431 z m -7.9085,0 h 2.7807 v 66.1838 h -2.7807 z m -7.9084,0 h 2.9181 v 66.1838 h -2.9181 z m -7.9084,0 h 3.0555 v 66.1838 h -3.0555 z m -7.9084,0 h 3.1929 v 66.1838 h -3.1929 z m -7.9085,0 h 3.3304 v 66.1838 h -3.3304 z m -7.9084,0 h 3.4679 v 66.1838 h -3.4679 z m -7.9084,0 h 3.6053 v 66.1838 h -3.6053 z m -7.9085,0 h 3.7428 v 66.1838 h -3.7428 z m -7.9084,0 h 3.8802 v 66.1838 h -3.8802 z m -7.9084,0 h 4.0176 v 66.1838 h -4.0176 z m -7.9084,0 h 4.1551 v 66.1838 h -4.1551 z m -7.9085,0 h 4.2926 v 66.1838 h -4.2926 z m -7.9084,0 h 4.43 v 66.1838 h -4.43 z m -7.9084,0 h 4.5674 v 66.1838 h -4.5674 z m -7.9084,0 h 4.7048 v 66.1838 h -4.7048 z m -7.9085,0 h 4.8424 v 66.1838 h -4.8424 z m -7.9084,0 h 4.9798 v 66.1838 h -4.9798 z m -7.9084,0 h 5.1172 v 66.1838 h -5.1172 z m -7.9084,0 h 5.2546 v 66.1838 h -5.2546 z m -7.9085,0 h 5.3921 v 66.1838 h -5.3921 z m -7.9084,0 h 5.5295 v 66.1838 h -5.5295 z m -7.9084,0 h 5.667 v 66.1838 h -5.667 z m -7.9085,0 h 5.8045 v 66.1838 h -5.8045 z m -7.9084,0 h 5.9419 v 66.1838 h -5.9419 z m -7.9084,0 h 6.0793 v 66.1838 h -6.0793 z m -7.9084,0 h 6.2167 v 66.1838 h -6.2167 z m -7.9085,0 h 6.3543 V 66.1838 H 63.2674 Z M 55.359,0 h 6.4917 V 66.1838 H 55.359 Z m -7.9084,0 h 6.6291 v 66.1838 h -6.6291 z m -7.9084,0 h 6.7665 v 66.1838 h -6.7665 z m -7.9085,0 h 6.904 v 66.1838 h -6.904 z m -7.9084,0 h 7.0415 v 66.1838 h -7.0415 z m -7.9084,0 h 7.1789 V 66.1838 H 15.8169 Z M 7.9084,0 h 7.3164 V 66.1838 H 7.9084 Z M 0,0 H 7.4538 V 66.1838 H 0 Z" />
    </pattern>
    <pattern
       xlink:href="#pattern14-7-5-8-1-1-9-4-9"
       preserveAspectRatio="xMidYMid"
       id="pattern15-8-8-3-3-1-7-8-6"
       patternTransform="matrix(0,-0.05,0.05,0,549.95125,954.99813)"
       x="0"
       y="0" />
    <pattern
       patternUnits="userSpaceOnUse"
       width="372.6899"
       height="66.1838"
       patternTransform="scale(0.2)"
       preserveAspectRatio="xMidYMid"
       id="pattern14-7-5-8-1-1-9-4-9"
       style="fill:#000000">
      <path
         id="path13-8-5-02-1-0-0-8-7"
         style="stroke-width:0.487199;stroke-linecap:square;paint-order:markers fill stroke;stop-color:#000000"
         d="m 371.6961,0 h 0.9938 v 66.1838 h -0.9938 z m -7.9084,0 h 1.1312 v 66.1838 h -1.1312 z m -7.9085,0 h 1.2687 v 66.1838 h -1.2687 z m -7.9084,0 h 1.4062 v 66.1838 h -1.4062 z m -7.9084,0 h 1.5436 v 66.1838 h -1.5436 z m -7.9084,0 h 1.681 v 66.1838 h -1.681 z m -7.9085,0 h 1.8185 v 66.1838 h -1.8185 z m -7.9084,0 h 1.9559 v 66.1838 h -1.9559 z m -7.9084,0 h 2.0934 v 66.1838 h -2.0934 z m -7.9085,0 h 2.2309 v 66.1838 h -2.2309 z m -7.9084,0 h 2.3683 v 66.1838 h -2.3683 z m -7.9084,0 h 2.5057 v 66.1838 h -2.5057 z m -7.9084,0 h 2.6431 v 66.1838 h -2.6431 z m -7.9085,0 h 2.7807 v 66.1838 h -2.7807 z m -7.9084,0 h 2.9181 v 66.1838 h -2.9181 z m -7.9084,0 h 3.0555 v 66.1838 h -3.0555 z m -7.9084,0 h 3.1929 v 66.1838 h -3.1929 z m -7.9085,0 h 3.3304 v 66.1838 h -3.3304 z m -7.9084,0 h 3.4679 v 66.1838 h -3.4679 z m -7.9084,0 h 3.6053 v 66.1838 h -3.6053 z m -7.9085,0 h 3.7428 v 66.1838 h -3.7428 z m -7.9084,0 h 3.8802 v 66.1838 h -3.8802 z m -7.9084,0 h 4.0176 v 66.1838 h -4.0176 z m -7.9084,0 h 4.1551 v 66.1838 h -4.1551 z m -7.9085,0 h 4.2926 v 66.1838 h -4.2926 z m -7.9084,0 h 4.43 v 66.1838 h -4.43 z m -7.9084,0 h 4.5674 v 66.1838 h -4.5674 z m -7.9084,0 h 4.7048 v 66.1838 h -4.7048 z m -7.9085,0 h 4.8424 v 66.1838 h -4.8424 z m -7.9084,0 h 4.9798 v 66.1838 h -4.9798 z m -7.9084,0 h 5.1172 v 66.1838 h -5.1172 z m -7.9084,0 h 5.2546 v 66.1838 h -5.2546 z m -7.9085,0 h 5.3921 v 66.1838 h -5.3921 z m -7.9084,0 h 5.5295 v 66.1838 h -5.5295 z m -7.9084,0 h 5.667 v 66.1838 h -5.667 z m -7.9085,0 h 5.8045 v 66.1838 h -5.8045 z m -7.9084,0 h 5.9419 v 66.1838 h -5.9419 z m -7.9084,0 h 6.0793 v 66.1838 h -6.0793 z m -7.9084,0 h 6.2167 v 66.1838 h -6.2167 z m -7.9085,0 h 6.3543 V 66.1838 H 63.2674 Z M 55.359,0 h 6.4917 V 66.1838 H 55.359 Z m -7.9084,0 h 6.6291 v 66.1838 h -6.6291 z m -7.9084,0 h 6.7665 v 66.1838 h -6.7665 z m -7.9085,0 h 6.904 v 66.1838 h -6.904 z m -7.9084,0 h 7.0415 v 66.1838 h -7.0415 z m -7.9084,0 h 7.1789 V 66.1838 H 15.8169 Z M 7.9084,0 h 7.3164 V 66.1838 H 7.9084 Z M 0,0 H 7.4538 V 66.1838 H 0 Z" />
    </pattern>
    <pattern
       xlink:href="#shading6-9-4-0-0-5-5-1-9"
       preserveAspectRatio="xMidYMid"
       id="pattern10-5-6-9-9-4-6-4-3"
       patternTransform="matrix(0.05,0,0,0.05,52.061516,25.050008)"
       x="-123"
       y="0" />
    <pattern
       patternUnits="userSpaceOnUse"
       width="372.6899"
       height="66.1838"
       patternTransform="scale(0.2)"
       preserveAspectRatio="xMidYMid"
       id="shading6-9-4-0-0-5-5-1-9"
       style="fill:#000000">
      <path
         id="path34-4-6-5-9-2-1-0-3"
         style="stroke-width:0.487199;stroke-linecap:square;paint-order:markers fill stroke;stop-color:#000000"
         d="m 371.6961,0 h 0.9938 v 66.1838 h -0.9938 z m -7.9084,0 h 1.1312 v 66.1838 h -1.1312 z m -7.9085,0 h 1.2687 v 66.1838 h -1.2687 z m -7.9084,0 h 1.4062 v 66.1838 h -1.4062 z m -7.9084,0 h 1.5436 v 66.1838 h -1.5436 z m -7.9084,0 h 1.681 v 66.1838 h -1.681 z m -7.9085,0 h 1.8185 v 66.1838 h -1.8185 z m -7.9084,0 h 1.9559 v 66.1838 h -1.9559 z m -7.9084,0 h 2.0934 v 66.1838 h -2.0934 z m -7.9085,0 h 2.2309 v 66.1838 h -2.2309 z m -7.9084,0 h 2.3683 v 66.1838 h -2.3683 z m -7.9084,0 h 2.5057 v 66.1838 h -2.5057 z m -7.9084,0 h 2.6431 v 66.1838 h -2.6431 z m -7.9085,0 h 2.7807 v 66.1838 h -2.7807 z m -7.9084,0 h 2.9181 v 66.1838 h -2.9181 z m -7.9084,0 h 3.0555 v 66.1838 h -3.0555 z m -7.9084,0 h 3.1929 v 66.1838 h -3.1929 z m -7.9085,0 h 3.3304 v 66.1838 h -3.3304 z m -7.9084,0 h 3.4679 v 66.1838 h -3.4679 z m -7.9084,0 h 3.6053 v 66.1838 h -3.6053 z m -7.9085,0 h 3.7428 v 66.1838 h -3.7428 z m -7.9084,0 h 3.8802 v 66.1838 h -3.8802 z m -7.9084,0 h 4.0176 v 66.1838 h -4.0176 z m -7.9084,0 h 4.1551 v 66.1838 h -4.1551 z m -7.9085,0 h 4.2926 v 66.1838 h -4.2926 z m -7.9084,0 h 4.43 v 66.1838 h -4.43 z m -7.9084,0 h 4.5674 v 66.1838 h -4.5674 z m -7.9084,0 h 4.7048 v 66.1838 h -4.7048 z m -7.9085,0 h 4.8424 v 66.1838 h -4.8424 z m -7.9084,0 h 4.9798 v 66.1838 h -4.9798 z m -7.9084,0 h 5.1172 v 66.1838 h -5.1172 z m -7.9084,0 h 5.2546 v 66.1838 h -5.2546 z m -7.9085,0 h 5.3921 v 66.1838 h -5.3921 z m -7.9084,0 h 5.5295 v 66.1838 h -5.5295 z m -7.9084,0 h 5.667 v 66.1838 h -5.667 z m -7.9085,0 h 5.8045 v 66.1838 h -5.8045 z m -7.9084,0 h 5.9419 v 66.1838 h -5.9419 z m -7.9084,0 h 6.0793 v 66.1838 h -6.0793 z m -7.9084,0 h 6.2167 v 66.1838 h -6.2167 z m -7.9085,0 h 6.3543 V 66.1838 H 63.2674 Z M 55.359,0 h 6.4917 V 66.1838 H 55.359 Z m -7.9084,0 h 6.6291 v 66.1838 h -6.6291 z m -7.9084,0 h 6.7665 v 66.1838 h -6.7665 z m -7.9085,0 h 6.904 v 66.1838 h -6.904 z m -7.9084,0 h 7.0415 v 66.1838 h -7.0415 z m -7.9084,0 h 7.1789 V 66.1838 H 15.8169 Z M 7.9084,0 h 7.3164 V 66.1838 H 7.9084 Z M 0,0 H 7.4538 V 66.1838 H 0 Z" />
    </pattern>
    <pattern
       xlink:href="#shading6-9-6-1-3-2-5-3-97-8-9"
       preserveAspectRatio="xMidYMid"
       id="pattern10-5-5-7-4-2-7-3-7-0-2"
       patternTransform="matrix(0.05,0,0,0.05,82.272414,25.499974)"
       x="-123"
       y="0" />
    <pattern
       patternUnits="userSpaceOnUse"
       width="372.6899"
       height="66.1838"
       patternTransform="scale(0.2)"
       preserveAspectRatio="xMidYMid"
       id="shading6-9-6-1-3-2-5-3-97-8-9"
       style="fill:#000000">
      <path
         id="path34-4-5-5-8-7-7-6-3-5-4"
         style="stroke-width:0.487199;stroke-linecap:square;paint-order:markers fill stroke;stop-color:#000000"
         d="m 371.6961,0 h 0.9938 v 66.1838 h -0.9938 z m -7.9084,0 h 1.1312 v 66.1838 h -1.1312 z m -7.9085,0 h 1.2687 v 66.1838 h -1.2687 z m -7.9084,0 h 1.4062 v 66.1838 h -1.4062 z m -7.9084,0 h 1.5436 v 66.1838 h -1.5436 z m -7.9084,0 h 1.681 v 66.1838 h -1.681 z m -7.9085,0 h 1.8185 v 66.1838 h -1.8185 z m -7.9084,0 h 1.9559 v 66.1838 h -1.9559 z m -7.9084,0 h 2.0934 v 66.1838 h -2.0934 z m -7.9085,0 h 2.2309 v 66.1838 h -2.2309 z m -7.9084,0 h 2.3683 v 66.1838 h -2.3683 z m -7.9084,0 h 2.5057 v 66.1838 h -2.5057 z m -7.9084,0 h 2.6431 v 66.1838 h -2.6431 z m -7.9085,0 h 2.7807 v 66.1838 h -2.7807 z m -7.9084,0 h 2.9181 v 66.1838 h -2.9181 z m -7.9084,0 h 3.0555 v 66.1838 h -3.0555 z m -7.9084,0 h 3.1929 v 66.1838 h -3.1929 z m -7.9085,0 h 3.3304 v 66.1838 h -3.3304 z m -7.9084,0 h 3.4679 v 66.1838 h -3.4679 z m -7.9084,0 h 3.6053 v 66.1838 h -3.6053 z m -7.9085,0 h 3.7428 v 66.1838 h -3.7428 z m -7.9084,0 h 3.8802 v 66.1838 h -3.8802 z m -7.9084,0 h 4.0176 v 66.1838 h -4.0176 z m -7.9084,0 h 4.1551 v 66.1838 h -4.1551 z m -7.9085,0 h 4.2926 v 66.1838 h -4.2926 z m -7.9084,0 h 4.43 v 66.1838 h -4.43 z m -7.9084,0 h 4.5674 v 66.1838 h -4.5674 z m -7.9084,0 h 4.7048 v 66.1838 h -4.7048 z m -7.9085,0 h 4.8424 v 66.1838 h -4.8424 z m -7.9084,0 h 4.9798 v 66.1838 h -4.9798 z m -7.9084,0 h 5.1172 v 66.1838 h -5.1172 z m -7.9084,0 h 5.2546 v 66.1838 h -5.2546 z m -7.9085,0 h 5.3921 v 66.1838 h -5.3921 z m -7.9084,0 h 5.5295 v 66.1838 h -5.5295 z m -7.9084,0 h 5.667 v 66.1838 h -5.667 z m -7.9085,0 h 5.8045 v 66.1838 h -5.8045 z m -7.9084,0 h 5.9419 v 66.1838 h -5.9419 z m -7.9084,0 h 6.0793 v 66.1838 h -6.0793 z m -7.9084,0 h 6.2167 v 66.1838 h -6.2167 z m -7.9085,0 h 6.3543 V 66.1838 H 63.2674 Z M 55.359,0 h 6.4917 V 66.1838 H 55.359 Z m -7.9084,0 h 6.6291 v 66.1838 h -6.6291 z m -7.9084,0 h 6.7665 v 66.1838 h -6.7665 z m -7.9085,0 h 6.904 v 66.1838 h -6.904 z m -7.9084,0 h 7.0415 v 66.1838 h -7.0415 z m -7.9084,0 h 7.1789 V 66.1838 H 15.8169 Z M 7.9084,0 h 7.3164 V 66.1838 H 7.9084 Z M 0,0 H 7.4538 V 66.1838 H 0 Z" />
    </pattern>
    <pattern
       xlink:href="#shading6-9-6-1-5-4-4-6-6-4-4-3"
       preserveAspectRatio="xMidYMid"
       id="pattern10-5-5-7-7-8-2-6-9-5-8-8"
       patternTransform="matrix(0.05,0,0,0.05,82.372409,3.920155)"
       x="-123"
       y="0" />
    <pattern
       patternUnits="userSpaceOnUse"
       width="372.6899"
       height="66.1838"
       patternTransform="scale(0.2)"
       preserveAspectRatio="xMidYMid"
       id="shading6-9-6-1-5-4-4-6-6-4-4-3"
       style="fill:#000000">
      <path
         id="path34-4-5-5-3-9-9-4-6-0-7-9"
         style="stroke-width:0.487199;stroke-linecap:square;paint-order:markers fill stroke;stop-color:#000000"
         d="m 371.6961,0 h 0.9938 v 66.1838 h -0.9938 z m -7.9084,0 h 1.1312 v 66.1838 h -1.1312 z m -7.9085,0 h 1.2687 v 66.1838 h -1.2687 z m -7.9084,0 h 1.4062 v 66.1838 h -1.4062 z m -7.9084,0 h 1.5436 v 66.1838 h -1.5436 z m -7.9084,0 h 1.681 v 66.1838 h -1.681 z m -7.9085,0 h 1.8185 v 66.1838 h -1.8185 z m -7.9084,0 h 1.9559 v 66.1838 h -1.9559 z m -7.9084,0 h 2.0934 v 66.1838 h -2.0934 z m -7.9085,0 h 2.2309 v 66.1838 h -2.2309 z m -7.9084,0 h 2.3683 v 66.1838 h -2.3683 z m -7.9084,0 h 2.5057 v 66.1838 h -2.5057 z m -7.9084,0 h 2.6431 v 66.1838 h -2.6431 z m -7.9085,0 h 2.7807 v 66.1838 h -2.7807 z m -7.9084,0 h 2.9181 v 66.1838 h -2.9181 z m -7.9084,0 h 3.0555 v 66.1838 h -3.0555 z m -7.9084,0 h 3.1929 v 66.1838 h -3.1929 z m -7.9085,0 h 3.3304 v 66.1838 h -3.3304 z m -7.9084,0 h 3.4679 v 66.1838 h -3.4679 z m -7.9084,0 h 3.6053 v 66.1838 h -3.6053 z m -7.9085,0 h 3.7428 v 66.1838 h -3.7428 z m -7.9084,0 h 3.8802 v 66.1838 h -3.8802 z m -7.9084,0 h 4.0176 v 66.1838 h -4.0176 z m -7.9084,0 h 4.1551 v 66.1838 h -4.1551 z m -7.9085,0 h 4.2926 v 66.1838 h -4.2926 z m -7.9084,0 h 4.43 v 66.1838 h -4.43 z m -7.9084,0 h 4.5674 v 66.1838 h -4.5674 z m -7.9084,0 h 4.7048 v 66.1838 h -4.7048 z m -7.9085,0 h 4.8424 v 66.1838 h -4.8424 z m -7.9084,0 h 4.9798 v 66.1838 h -4.9798 z m -7.9084,0 h 5.1172 v 66.1838 h -5.1172 z m -7.9084,0 h 5.2546 v 66.1838 h -5.2546 z m -7.9085,0 h 5.3921 v 66.1838 h -5.3921 z m -7.9084,0 h 5.5295 v 66.1838 h -5.5295 z m -7.9084,0 h 5.667 v 66.1838 h -5.667 z m -7.9085,0 h 5.8045 v 66.1838 h -5.8045 z m -7.9084,0 h 5.9419 v 66.1838 h -5.9419 z m -7.9084,0 h 6.0793 v 66.1838 h -6.0793 z m -7.9084,0 h 6.2167 v 66.1838 h -6.2167 z m -7.9085,0 h 6.3543 V 66.1838 H 63.2674 Z M 55.359,0 h 6.4917 V 66.1838 H 55.359 Z m -7.9084,0 h 6.6291 v 66.1838 h -6.6291 z m -7.9084,0 h 6.7665 v 66.1838 h -6.7665 z m -7.9085,0 h 6.904 v 66.1838 h -6.904 z m -7.9084,0 h 7.0415 v 66.1838 h -7.0415 z m -7.9084,0 h 7.1789 V 66.1838 H 15.8169 Z M 7.9084,0 h 7.3164 V 66.1838 H 7.9084 Z M 0,0 H 7.4538 V 66.1838 H 0 Z" />
    </pattern>
    <pattern
       xlink:href="#shading6-7-3"
       preserveAspectRatio="xMidYMid"
       id="pattern10-1-0"
       patternTransform="matrix(0.05,0,0,0.05,462.8196,929.99752)"
       x="-123"
       y="0" />
    <pattern
       patternUnits="userSpaceOnUse"
       width="372.6899"
       height="66.1838"
       patternTransform="scale(0.2)"
       preserveAspectRatio="xMidYMid"
       id="shading6-7-3"
       style="fill:#000000">
      <path
         id="path34-1-9"
         style="stroke-width:0.487199;stroke-linecap:square;paint-order:markers fill stroke;stop-color:#000000"
         d="m 371.6961,0 h 0.9938 v 66.1838 h -0.9938 z m -7.9084,0 h 1.1312 v 66.1838 h -1.1312 z m -7.9085,0 h 1.2687 v 66.1838 h -1.2687 z m -7.9084,0 h 1.4062 v 66.1838 h -1.4062 z m -7.9084,0 h 1.5436 v 66.1838 h -1.5436 z m -7.9084,0 h 1.681 v 66.1838 h -1.681 z m -7.9085,0 h 1.8185 v 66.1838 h -1.8185 z m -7.9084,0 h 1.9559 v 66.1838 h -1.9559 z m -7.9084,0 h 2.0934 v 66.1838 h -2.0934 z m -7.9085,0 h 2.2309 v 66.1838 h -2.2309 z m -7.9084,0 h 2.3683 v 66.1838 h -2.3683 z m -7.9084,0 h 2.5057 v 66.1838 h -2.5057 z m -7.9084,0 h 2.6431 v 66.1838 h -2.6431 z m -7.9085,0 h 2.7807 v 66.1838 h -2.7807 z m -7.9084,0 h 2.9181 v 66.1838 h -2.9181 z m -7.9084,0 h 3.0555 v 66.1838 h -3.0555 z m -7.9084,0 h 3.1929 v 66.1838 h -3.1929 z m -7.9085,0 h 3.3304 v 66.1838 h -3.3304 z m -7.9084,0 h 3.4679 v 66.1838 h -3.4679 z m -7.9084,0 h 3.6053 v 66.1838 h -3.6053 z m -7.9085,0 h 3.7428 v 66.1838 h -3.7428 z m -7.9084,0 h 3.8802 v 66.1838 h -3.8802 z m -7.9084,0 h 4.0176 v 66.1838 h -4.0176 z m -7.9084,0 h 4.1551 v 66.1838 h -4.1551 z m -7.9085,0 h 4.2926 v 66.1838 h -4.2926 z m -7.9084,0 h 4.43 v 66.1838 h -4.43 z m -7.9084,0 h 4.5674 v 66.1838 h -4.5674 z m -7.9084,0 h 4.7048 v 66.1838 h -4.7048 z m -7.9085,0 h 4.8424 v 66.1838 h -4.8424 z m -7.9084,0 h 4.9798 v 66.1838 h -4.9798 z m -7.9084,0 h 5.1172 v 66.1838 h -5.1172 z m -7.9084,0 h 5.2546 v 66.1838 h -5.2546 z m -7.9085,0 h 5.3921 v 66.1838 h -5.3921 z m -7.9084,0 h 5.5295 v 66.1838 h -5.5295 z m -7.9084,0 h 5.667 v 66.1838 h -5.667 z m -7.9085,0 h 5.8045 v 66.1838 h -5.8045 z m -7.9084,0 h 5.9419 v 66.1838 h -5.9419 z m -7.9084,0 h 6.0793 v 66.1838 h -6.0793 z m -7.9084,0 h 6.2167 v 66.1838 h -6.2167 z m -7.9085,0 h 6.3543 V 66.1838 H 63.2674 Z M 55.359,0 h 6.4917 V 66.1838 H 55.359 Z m -7.9084,0 h 6.6291 v 66.1838 h -6.6291 z m -7.9084,0 h 6.7665 v 66.1838 h -6.7665 z m -7.9085,0 h 6.904 v 66.1838 h -6.904 z m -7.9084,0 h 7.0415 v 66.1838 h -7.0415 z m -7.9084,0 h 7.1789 V 66.1838 H 15.8169 Z M 7.9084,0 h 7.3164 V 66.1838 H 7.9084 Z M 0,0 H 7.4538 V 66.1838 H 0 Z" />
    </pattern>
    <pattern
       xlink:href="#pattern14-7-0"
       preserveAspectRatio="xMidYMid"
       id="pattern15-8-2"
       patternTransform="matrix(0,-0.05,0.05,0,462.8196,929.99755)"
       x="0"
       y="0" />
    <pattern
       patternUnits="userSpaceOnUse"
       width="372.6899"
       height="66.1838"
       patternTransform="scale(0.2)"
       preserveAspectRatio="xMidYMid"
       id="pattern14-7-0"
       style="fill:#c3c3c3">
      <path
         id="path13-8-9"
         style="stroke-width:0.487199;stroke-linecap:square;paint-order:markers fill stroke;stop-color:#000000"
         d="m 371.6961,0 h 0.9938 v 66.1838 h -0.9938 z m -7.9084,0 h 1.1312 v 66.1838 h -1.1312 z m -7.9085,0 h 1.2687 v 66.1838 h -1.2687 z m -7.9084,0 h 1.4062 v 66.1838 h -1.4062 z m -7.9084,0 h 1.5436 v 66.1838 h -1.5436 z m -7.9084,0 h 1.681 v 66.1838 h -1.681 z m -7.9085,0 h 1.8185 v 66.1838 h -1.8185 z m -7.9084,0 h 1.9559 v 66.1838 h -1.9559 z m -7.9084,0 h 2.0934 v 66.1838 h -2.0934 z m -7.9085,0 h 2.2309 v 66.1838 h -2.2309 z m -7.9084,0 h 2.3683 v 66.1838 h -2.3683 z m -7.9084,0 h 2.5057 v 66.1838 h -2.5057 z m -7.9084,0 h 2.6431 v 66.1838 h -2.6431 z m -7.9085,0 h 2.7807 v 66.1838 h -2.7807 z m -7.9084,0 h 2.9181 v 66.1838 h -2.9181 z m -7.9084,0 h 3.0555 v 66.1838 h -3.0555 z m -7.9084,0 h 3.1929 v 66.1838 h -3.1929 z m -7.9085,0 h 3.3304 v 66.1838 h -3.3304 z m -7.9084,0 h 3.4679 v 66.1838 h -3.4679 z m -7.9084,0 h 3.6053 v 66.1838 h -3.6053 z m -7.9085,0 h 3.7428 v 66.1838 h -3.7428 z m -7.9084,0 h 3.8802 v 66.1838 h -3.8802 z m -7.9084,0 h 4.0176 v 66.1838 h -4.0176 z m -7.9084,0 h 4.1551 v 66.1838 h -4.1551 z m -7.9085,0 h 4.2926 v 66.1838 h -4.2926 z m -7.9084,0 h 4.43 v 66.1838 h -4.43 z m -7.9084,0 h 4.5674 v 66.1838 h -4.5674 z m -7.9084,0 h 4.7048 v 66.1838 h -4.7048 z m -7.9085,0 h 4.8424 v 66.1838 h -4.8424 z m -7.9084,0 h 4.9798 v 66.1838 h -4.9798 z m -7.9084,0 h 5.1172 v 66.1838 h -5.1172 z m -7.9084,0 h 5.2546 v 66.1838 h -5.2546 z m -7.9085,0 h 5.3921 v 66.1838 h -5.3921 z m -7.9084,0 h 5.5295 v 66.1838 h -5.5295 z m -7.9084,0 h 5.667 v 66.1838 h -5.667 z m -7.9085,0 h 5.8045 v 66.1838 h -5.8045 z m -7.9084,0 h 5.9419 v 66.1838 h -5.9419 z m -7.9084,0 h 6.0793 v 66.1838 h -6.0793 z m -7.9084,0 h 6.2167 v 66.1838 h -6.2167 z m -7.9085,0 h 6.3543 V 66.1838 H 63.2674 Z M 55.359,0 h 6.4917 V 66.1838 H 55.359 Z m -7.9084,0 h 6.6291 v 66.1838 h -6.6291 z m -7.9084,0 h 6.7665 v 66.1838 h -6.7665 z m -7.9085,0 h 6.904 v 66.1838 h -6.904 z m -7.9084,0 h 7.0415 v 66.1838 h -7.0415 z m -7.9084,0 h 7.1789 V 66.1838 H 15.8169 Z M 7.9084,0 h 7.3164 V 66.1838 H 7.9084 Z M 0,0 H 7.4538 V 66.1838 H 0 Z" />
    </pattern>
    <pattern
       xlink:href="#pattern14-8-7-74-0"
       preserveAspectRatio="xMidYMid"
       id="pattern17-4-7-4"
       patternTransform="matrix(0.03464101,-0.01992043,0.02,0.03450319,13.423397,-3.2626277)"
       x="-101"
       y="0" />
    <pattern
       patternUnits="userSpaceOnUse"
       width="372.6899"
       height="66.1838"
       patternTransform="scale(0.2)"
       preserveAspectRatio="xMidYMid"
       id="pattern14-8-7-74-0"
       style="fill:#000000">
      <path
         id="path13-1-4-4-6"
         style="stroke-width:0.487199;stroke-linecap:square;paint-order:markers fill stroke;stop-color:#000000"
         d="m 371.6961,0 h 0.9938 v 66.1838 h -0.9938 z m -7.9084,0 h 1.1312 v 66.1838 h -1.1312 z m -7.9085,0 h 1.2687 v 66.1838 h -1.2687 z m -7.9084,0 h 1.4062 v 66.1838 h -1.4062 z m -7.9084,0 h 1.5436 v 66.1838 h -1.5436 z m -7.9084,0 h 1.681 v 66.1838 h -1.681 z m -7.9085,0 h 1.8185 v 66.1838 h -1.8185 z m -7.9084,0 h 1.9559 v 66.1838 h -1.9559 z m -7.9084,0 h 2.0934 v 66.1838 h -2.0934 z m -7.9085,0 h 2.2309 v 66.1838 h -2.2309 z m -7.9084,0 h 2.3683 v 66.1838 h -2.3683 z m -7.9084,0 h 2.5057 v 66.1838 h -2.5057 z m -7.9084,0 h 2.6431 v 66.1838 h -2.6431 z m -7.9085,0 h 2.7807 v 66.1838 h -2.7807 z m -7.9084,0 h 2.9181 v 66.1838 h -2.9181 z m -7.9084,0 h 3.0555 v 66.1838 h -3.0555 z m -7.9084,0 h 3.1929 v 66.1838 h -3.1929 z m -7.9085,0 h 3.3304 v 66.1838 h -3.3304 z m -7.9084,0 h 3.4679 v 66.1838 h -3.4679 z m -7.9084,0 h 3.6053 v 66.1838 h -3.6053 z m -7.9085,0 h 3.7428 v 66.1838 h -3.7428 z m -7.9084,0 h 3.8802 v 66.1838 h -3.8802 z m -7.9084,0 h 4.0176 v 66.1838 h -4.0176 z m -7.9084,0 h 4.1551 v 66.1838 h -4.1551 z m -7.9085,0 h 4.2926 v 66.1838 h -4.2926 z m -7.9084,0 h 4.43 v 66.1838 h -4.43 z m -7.9084,0 h 4.5674 v 66.1838 h -4.5674 z m -7.9084,0 h 4.7048 v 66.1838 h -4.7048 z m -7.9085,0 h 4.8424 v 66.1838 h -4.8424 z m -7.9084,0 h 4.9798 v 66.1838 h -4.9798 z m -7.9084,0 h 5.1172 v 66.1838 h -5.1172 z m -7.9084,0 h 5.2546 v 66.1838 h -5.2546 z m -7.9085,0 h 5.3921 v 66.1838 h -5.3921 z m -7.9084,0 h 5.5295 v 66.1838 h -5.5295 z m -7.9084,0 h 5.667 v 66.1838 h -5.667 z m -7.9085,0 h 5.8045 v 66.1838 h -5.8045 z m -7.9084,0 h 5.9419 v 66.1838 h -5.9419 z m -7.9084,0 h 6.0793 v 66.1838 h -6.0793 z m -7.9084,0 h 6.2167 v 66.1838 h -6.2167 z m -7.9085,0 h 6.3543 V 66.1838 H 63.2674 Z M 55.359,0 h 6.4917 V 66.1838 H 55.359 Z m -7.9084,0 h 6.6291 v 66.1838 h -6.6291 z m -7.9084,0 h 6.7665 v 66.1838 h -6.7665 z m -7.9085,0 h 6.904 v 66.1838 h -6.904 z m -7.9084,0 h 7.0415 v 66.1838 h -7.0415 z m -7.9084,0 h 7.1789 V 66.1838 H 15.8169 Z M 7.9084,0 h 7.3164 V 66.1838 H 7.9084 Z M 0,0 H 7.4538 V 66.1838 H 0 Z" />
    </pattern>
    <pattern
       xlink:href="#pattern14-8-7-7-1-4"
       preserveAspectRatio="xMidYMid"
       id="pattern17-4-1-9-9"
       patternTransform="matrix(0.03464101,-0.01992043,0.02,0.03450319,13.423397,-3.2626277)"
       x="-101"
       y="0" />
    <pattern
       patternUnits="userSpaceOnUse"
       width="372.6899"
       height="66.1838"
       patternTransform="scale(0.2)"
       preserveAspectRatio="xMidYMid"
       id="pattern14-8-7-7-1-4"
       style="fill:#000000">
      <path
         id="path13-1-4-2-5-8"
         style="stroke-width:0.487199;stroke-linecap:square;paint-order:markers fill stroke;stop-color:#000000"
         d="m 371.6961,0 h 0.9938 v 66.1838 h -0.9938 z m -7.9084,0 h 1.1312 v 66.1838 h -1.1312 z m -7.9085,0 h 1.2687 v 66.1838 h -1.2687 z m -7.9084,0 h 1.4062 v 66.1838 h -1.4062 z m -7.9084,0 h 1.5436 v 66.1838 h -1.5436 z m -7.9084,0 h 1.681 v 66.1838 h -1.681 z m -7.9085,0 h 1.8185 v 66.1838 h -1.8185 z m -7.9084,0 h 1.9559 v 66.1838 h -1.9559 z m -7.9084,0 h 2.0934 v 66.1838 h -2.0934 z m -7.9085,0 h 2.2309 v 66.1838 h -2.2309 z m -7.9084,0 h 2.3683 v 66.1838 h -2.3683 z m -7.9084,0 h 2.5057 v 66.1838 h -2.5057 z m -7.9084,0 h 2.6431 v 66.1838 h -2.6431 z m -7.9085,0 h 2.7807 v 66.1838 h -2.7807 z m -7.9084,0 h 2.9181 v 66.1838 h -2.9181 z m -7.9084,0 h 3.0555 v 66.1838 h -3.0555 z m -7.9084,0 h 3.1929 v 66.1838 h -3.1929 z m -7.9085,0 h 3.3304 v 66.1838 h -3.3304 z m -7.9084,0 h 3.4679 v 66.1838 h -3.4679 z m -7.9084,0 h 3.6053 v 66.1838 h -3.6053 z m -7.9085,0 h 3.7428 v 66.1838 h -3.7428 z m -7.9084,0 h 3.8802 v 66.1838 h -3.8802 z m -7.9084,0 h 4.0176 v 66.1838 h -4.0176 z m -7.9084,0 h 4.1551 v 66.1838 h -4.1551 z m -7.9085,0 h 4.2926 v 66.1838 h -4.2926 z m -7.9084,0 h 4.43 v 66.1838 h -4.43 z m -7.9084,0 h 4.5674 v 66.1838 h -4.5674 z m -7.9084,0 h 4.7048 v 66.1838 h -4.7048 z m -7.9085,0 h 4.8424 v 66.1838 h -4.8424 z m -7.9084,0 h 4.9798 v 66.1838 h -4.9798 z m -7.9084,0 h 5.1172 v 66.1838 h -5.1172 z m -7.9084,0 h 5.2546 v 66.1838 h -5.2546 z m -7.9085,0 h 5.3921 v 66.1838 h -5.3921 z m -7.9084,0 h 5.5295 v 66.1838 h -5.5295 z m -7.9084,0 h 5.667 v 66.1838 h -5.667 z m -7.9085,0 h 5.8045 v 66.1838 h -5.8045 z m -7.9084,0 h 5.9419 v 66.1838 h -5.9419 z m -7.9084,0 h 6.0793 v 66.1838 h -6.0793 z m -7.9084,0 h 6.2167 v 66.1838 h -6.2167 z m -7.9085,0 h 6.3543 V 66.1838 H 63.2674 Z M 55.359,0 h 6.4917 V 66.1838 H 55.359 Z m -7.9084,0 h 6.6291 v 66.1838 h -6.6291 z m -7.9084,0 h 6.7665 v 66.1838 h -6.7665 z m -7.9085,0 h 6.904 v 66.1838 h -6.904 z m -7.9084,0 h 7.0415 v 66.1838 h -7.0415 z m -7.9084,0 h 7.1789 V 66.1838 H 15.8169 Z M 7.9084,0 h 7.3164 V 66.1838 H 7.9084 Z M 0,0 H 7.4538 V 66.1838 H 0 Z" />
    </pattern>
    <pattern
       xlink:href="#pattern14-8-7-7-7-5-6"
       preserveAspectRatio="xMidYMid"
       id="pattern17-4-1-4-5-8"
       patternTransform="matrix(0.03464101,-0.01992043,0.02,0.03450319,13.423397,-3.2626277)"
       x="-101"
       y="0" />
    <pattern
       patternUnits="userSpaceOnUse"
       width="372.6899"
       height="66.1838"
       patternTransform="scale(0.2)"
       preserveAspectRatio="xMidYMid"
       id="pattern14-8-7-7-7-5-6"
       style="fill:#000000">
      <path
         id="path13-1-4-2-1-8-6"
         style="stroke-width:0.487199;stroke-linecap:square;paint-order:markers fill stroke;stop-color:#000000"
         d="m 371.6961,0 h 0.9938 v 66.1838 h -0.9938 z m -7.9084,0 h 1.1312 v 66.1838 h -1.1312 z m -7.9085,0 h 1.2687 v 66.1838 h -1.2687 z m -7.9084,0 h 1.4062 v 66.1838 h -1.4062 z m -7.9084,0 h 1.5436 v 66.1838 h -1.5436 z m -7.9084,0 h 1.681 v 66.1838 h -1.681 z m -7.9085,0 h 1.8185 v 66.1838 h -1.8185 z m -7.9084,0 h 1.9559 v 66.1838 h -1.9559 z m -7.9084,0 h 2.0934 v 66.1838 h -2.0934 z m -7.9085,0 h 2.2309 v 66.1838 h -2.2309 z m -7.9084,0 h 2.3683 v 66.1838 h -2.3683 z m -7.9084,0 h 2.5057 v 66.1838 h -2.5057 z m -7.9084,0 h 2.6431 v 66.1838 h -2.6431 z m -7.9085,0 h 2.7807 v 66.1838 h -2.7807 z m -7.9084,0 h 2.9181 v 66.1838 h -2.9181 z m -7.9084,0 h 3.0555 v 66.1838 h -3.0555 z m -7.9084,0 h 3.1929 v 66.1838 h -3.1929 z m -7.9085,0 h 3.3304 v 66.1838 h -3.3304 z m -7.9084,0 h 3.4679 v 66.1838 h -3.4679 z m -7.9084,0 h 3.6053 v 66.1838 h -3.6053 z m -7.9085,0 h 3.7428 v 66.1838 h -3.7428 z m -7.9084,0 h 3.8802 v 66.1838 h -3.8802 z m -7.9084,0 h 4.0176 v 66.1838 h -4.0176 z m -7.9084,0 h 4.1551 v 66.1838 h -4.1551 z m -7.9085,0 h 4.2926 v 66.1838 h -4.2926 z m -7.9084,0 h 4.43 v 66.1838 h -4.43 z m -7.9084,0 h 4.5674 v 66.1838 h -4.5674 z m -7.9084,0 h 4.7048 v 66.1838 h -4.7048 z m -7.9085,0 h 4.8424 v 66.1838 h -4.8424 z m -7.9084,0 h 4.9798 v 66.1838 h -4.9798 z m -7.9084,0 h 5.1172 v 66.1838 h -5.1172 z m -7.9084,0 h 5.2546 v 66.1838 h -5.2546 z m -7.9085,0 h 5.3921 v 66.1838 h -5.3921 z m -7.9084,0 h 5.5295 v 66.1838 h -5.5295 z m -7.9084,0 h 5.667 v 66.1838 h -5.667 z m -7.9085,0 h 5.8045 v 66.1838 h -5.8045 z m -7.9084,0 h 5.9419 v 66.1838 h -5.9419 z m -7.9084,0 h 6.0793 v 66.1838 h -6.0793 z m -7.9084,0 h 6.2167 v 66.1838 h -6.2167 z m -7.9085,0 h 6.3543 V 66.1838 H 63.2674 Z M 55.359,0 h 6.4917 V 66.1838 H 55.359 Z m -7.9084,0 h 6.6291 v 66.1838 h -6.6291 z m -7.9084,0 h 6.7665 v 66.1838 h -6.7665 z m -7.9085,0 h 6.904 v 66.1838 h -6.904 z m -7.9084,0 h 7.0415 v 66.1838 h -7.0415 z m -7.9084,0 h 7.1789 V 66.1838 H 15.8169 Z M 7.9084,0 h 7.3164 V 66.1838 H 7.9084 Z M 0,0 H 7.4538 V 66.1838 H 0 Z" />
    </pattern>
    <pattern
       xlink:href="#pattern14-8-4-0-1"
       preserveAspectRatio="xMidYMid"
       id="pattern17-5-0-4"
       patternTransform="matrix(0.03433259,-0.00406471,0.00559411,0.03522549,527.34808,936.43357)"
       x="-101"
       y="0" />
    <pattern
       patternUnits="userSpaceOnUse"
       width="372.6899"
       height="66.1838"
       patternTransform="scale(0.2)"
       preserveAspectRatio="xMidYMid"
       id="pattern14-8-4-0-1"
       style="fill:#000000">
      <path
         id="path13-1-2-6-6"
         style="stroke-width:0.487199;stroke-linecap:square;paint-order:markers fill stroke;stop-color:#000000"
         d="m 371.6961,0 h 0.9938 v 66.1838 h -0.9938 z m -7.9084,0 h 1.1312 v 66.1838 h -1.1312 z m -7.9085,0 h 1.2687 v 66.1838 h -1.2687 z m -7.9084,0 h 1.4062 v 66.1838 h -1.4062 z m -7.9084,0 h 1.5436 v 66.1838 h -1.5436 z m -7.9084,0 h 1.681 v 66.1838 h -1.681 z m -7.9085,0 h 1.8185 v 66.1838 h -1.8185 z m -7.9084,0 h 1.9559 v 66.1838 h -1.9559 z m -7.9084,0 h 2.0934 v 66.1838 h -2.0934 z m -7.9085,0 h 2.2309 v 66.1838 h -2.2309 z m -7.9084,0 h 2.3683 v 66.1838 h -2.3683 z m -7.9084,0 h 2.5057 v 66.1838 h -2.5057 z m -7.9084,0 h 2.6431 v 66.1838 h -2.6431 z m -7.9085,0 h 2.7807 v 66.1838 h -2.7807 z m -7.9084,0 h 2.9181 v 66.1838 h -2.9181 z m -7.9084,0 h 3.0555 v 66.1838 h -3.0555 z m -7.9084,0 h 3.1929 v 66.1838 h -3.1929 z m -7.9085,0 h 3.3304 v 66.1838 h -3.3304 z m -7.9084,0 h 3.4679 v 66.1838 h -3.4679 z m -7.9084,0 h 3.6053 v 66.1838 h -3.6053 z m -7.9085,0 h 3.7428 v 66.1838 h -3.7428 z m -7.9084,0 h 3.8802 v 66.1838 h -3.8802 z m -7.9084,0 h 4.0176 v 66.1838 h -4.0176 z m -7.9084,0 h 4.1551 v 66.1838 h -4.1551 z m -7.9085,0 h 4.2926 v 66.1838 h -4.2926 z m -7.9084,0 h 4.43 v 66.1838 h -4.43 z m -7.9084,0 h 4.5674 v 66.1838 h -4.5674 z m -7.9084,0 h 4.7048 v 66.1838 h -4.7048 z m -7.9085,0 h 4.8424 v 66.1838 h -4.8424 z m -7.9084,0 h 4.9798 v 66.1838 h -4.9798 z m -7.9084,0 h 5.1172 v 66.1838 h -5.1172 z m -7.9084,0 h 5.2546 v 66.1838 h -5.2546 z m -7.9085,0 h 5.3921 v 66.1838 h -5.3921 z m -7.9084,0 h 5.5295 v 66.1838 h -5.5295 z m -7.9084,0 h 5.667 v 66.1838 h -5.667 z m -7.9085,0 h 5.8045 v 66.1838 h -5.8045 z m -7.9084,0 h 5.9419 v 66.1838 h -5.9419 z m -7.9084,0 h 6.0793 v 66.1838 h -6.0793 z m -7.9084,0 h 6.2167 v 66.1838 h -6.2167 z m -7.9085,0 h 6.3543 V 66.1838 H 63.2674 Z M 55.359,0 h 6.4917 V 66.1838 H 55.359 Z m -7.9084,0 h 6.6291 v 66.1838 h -6.6291 z m -7.9084,0 h 6.7665 v 66.1838 h -6.7665 z m -7.9085,0 h 6.904 v 66.1838 h -6.904 z m -7.9084,0 h 7.0415 v 66.1838 h -7.0415 z m -7.9084,0 h 7.1789 V 66.1838 H 15.8169 Z M 7.9084,0 h 7.3164 V 66.1838 H 7.9084 Z M 0,0 H 7.4538 V 66.1838 H 0 Z" />
    </pattern>
    <pattern
       xlink:href="#pattern14-8-43"
       preserveAspectRatio="xMidYMid"
       id="pattern17-43"
       patternTransform="matrix(0.03464101,-0.02,0.02,0.03464101,469.59343,938.25512)"
       x="-101"
       y="0" />
    <pattern
       patternUnits="userSpaceOnUse"
       width="372.6899"
       height="66.1838"
       patternTransform="scale(0.2)"
       preserveAspectRatio="xMidYMid"
       id="pattern14-8-43"
       style="fill:#000000">
      <path
         id="path13-1-1"
         style="stroke-width:0.487199;stroke-linecap:square;paint-order:markers fill stroke;stop-color:#000000"
         d="m 371.6961,0 h 0.9938 v 66.1838 h -0.9938 z m -7.9084,0 h 1.1312 v 66.1838 h -1.1312 z m -7.9085,0 h 1.2687 v 66.1838 h -1.2687 z m -7.9084,0 h 1.4062 v 66.1838 h -1.4062 z m -7.9084,0 h 1.5436 v 66.1838 h -1.5436 z m -7.9084,0 h 1.681 v 66.1838 h -1.681 z m -7.9085,0 h 1.8185 v 66.1838 h -1.8185 z m -7.9084,0 h 1.9559 v 66.1838 h -1.9559 z m -7.9084,0 h 2.0934 v 66.1838 h -2.0934 z m -7.9085,0 h 2.2309 v 66.1838 h -2.2309 z m -7.9084,0 h 2.3683 v 66.1838 h -2.3683 z m -7.9084,0 h 2.5057 v 66.1838 h -2.5057 z m -7.9084,0 h 2.6431 v 66.1838 h -2.6431 z m -7.9085,0 h 2.7807 v 66.1838 h -2.7807 z m -7.9084,0 h 2.9181 v 66.1838 h -2.9181 z m -7.9084,0 h 3.0555 v 66.1838 h -3.0555 z m -7.9084,0 h 3.1929 v 66.1838 h -3.1929 z m -7.9085,0 h 3.3304 v 66.1838 h -3.3304 z m -7.9084,0 h 3.4679 v 66.1838 h -3.4679 z m -7.9084,0 h 3.6053 v 66.1838 h -3.6053 z m -7.9085,0 h 3.7428 v 66.1838 h -3.7428 z m -7.9084,0 h 3.8802 v 66.1838 h -3.8802 z m -7.9084,0 h 4.0176 v 66.1838 h -4.0176 z m -7.9084,0 h 4.1551 v 66.1838 h -4.1551 z m -7.9085,0 h 4.2926 v 66.1838 h -4.2926 z m -7.9084,0 h 4.43 v 66.1838 h -4.43 z m -7.9084,0 h 4.5674 v 66.1838 h -4.5674 z m -7.9084,0 h 4.7048 v 66.1838 h -4.7048 z m -7.9085,0 h 4.8424 v 66.1838 h -4.8424 z m -7.9084,0 h 4.9798 v 66.1838 h -4.9798 z m -7.9084,0 h 5.1172 v 66.1838 h -5.1172 z m -7.9084,0 h 5.2546 v 66.1838 h -5.2546 z m -7.9085,0 h 5.3921 v 66.1838 h -5.3921 z m -7.9084,0 h 5.5295 v 66.1838 h -5.5295 z m -7.9084,0 h 5.667 v 66.1838 h -5.667 z m -7.9085,0 h 5.8045 v 66.1838 h -5.8045 z m -7.9084,0 h 5.9419 v 66.1838 h -5.9419 z m -7.9084,0 h 6.0793 v 66.1838 h -6.0793 z m -7.9084,0 h 6.2167 v 66.1838 h -6.2167 z m -7.9085,0 h 6.3543 V 66.1838 H 63.2674 Z M 55.359,0 h 6.4917 V 66.1838 H 55.359 Z m -7.9084,0 h 6.6291 v 66.1838 h -6.6291 z m -7.9084,0 h 6.7665 v 66.1838 h -6.7665 z m -7.9085,0 h 6.904 v 66.1838 h -6.904 z m -7.9084,0 h 7.0415 v 66.1838 h -7.0415 z m -7.9084,0 h 7.1789 V 66.1838 H 15.8169 Z M 7.9084,0 h 7.3164 V 66.1838 H 7.9084 Z M 0,0 H 7.4538 V 66.1838 H 0 Z" />
    </pattern>
    <pattern
       xlink:href="#pattern14-7-0-1"
       preserveAspectRatio="xMidYMid"
       id="pattern21-3"
       patternTransform="matrix(0,-0.03,0.03,0,7.73193,-18.669032)"
       x="0"
       y="0"
       width="596.30385742" />
    <pattern
       patternUnits="userSpaceOnUse"
       width="372.6899"
       height="66.1838"
       patternTransform="scale(0.2)"
       preserveAspectRatio="xMidYMid"
       id="pattern14-7-0-1"
       style="fill:#c3c3c3">
      <path
         id="path13-8-9-1"
         style="stroke-width:0.487199;stroke-linecap:square;paint-order:markers fill stroke;stop-color:#000000"
         d="m 371.6961,0 h 0.9938 v 66.1838 h -0.9938 z m -7.9084,0 h 1.1312 v 66.1838 h -1.1312 z m -7.9085,0 h 1.2687 v 66.1838 h -1.2687 z m -7.9084,0 h 1.4062 v 66.1838 h -1.4062 z m -7.9084,0 h 1.5436 v 66.1838 h -1.5436 z m -7.9084,0 h 1.681 v 66.1838 h -1.681 z m -7.9085,0 h 1.8185 v 66.1838 h -1.8185 z m -7.9084,0 h 1.9559 v 66.1838 h -1.9559 z m -7.9084,0 h 2.0934 v 66.1838 h -2.0934 z m -7.9085,0 h 2.2309 v 66.1838 h -2.2309 z m -7.9084,0 h 2.3683 v 66.1838 h -2.3683 z m -7.9084,0 h 2.5057 v 66.1838 h -2.5057 z m -7.9084,0 h 2.6431 v 66.1838 h -2.6431 z m -7.9085,0 h 2.7807 v 66.1838 h -2.7807 z m -7.9084,0 h 2.9181 v 66.1838 h -2.9181 z m -7.9084,0 h 3.0555 v 66.1838 h -3.0555 z m -7.9084,0 h 3.1929 v 66.1838 h -3.1929 z m -7.9085,0 h 3.3304 v 66.1838 h -3.3304 z m -7.9084,0 h 3.4679 v 66.1838 h -3.4679 z m -7.9084,0 h 3.6053 v 66.1838 h -3.6053 z m -7.9085,0 h 3.7428 v 66.1838 h -3.7428 z m -7.9084,0 h 3.8802 v 66.1838 h -3.8802 z m -7.9084,0 h 4.0176 v 66.1838 h -4.0176 z m -7.9084,0 h 4.1551 v 66.1838 h -4.1551 z m -7.9085,0 h 4.2926 v 66.1838 h -4.2926 z m -7.9084,0 h 4.43 v 66.1838 h -4.43 z m -7.9084,0 h 4.5674 v 66.1838 h -4.5674 z m -7.9084,0 h 4.7048 v 66.1838 h -4.7048 z m -7.9085,0 h 4.8424 v 66.1838 h -4.8424 z m -7.9084,0 h 4.9798 v 66.1838 h -4.9798 z m -7.9084,0 h 5.1172 v 66.1838 h -5.1172 z m -7.9084,0 h 5.2546 v 66.1838 h -5.2546 z m -7.9085,0 h 5.3921 v 66.1838 h -5.3921 z m -7.9084,0 h 5.5295 v 66.1838 h -5.5295 z m -7.9084,0 h 5.667 v 66.1838 h -5.667 z m -7.9085,0 h 5.8045 v 66.1838 h -5.8045 z m -7.9084,0 h 5.9419 v 66.1838 h -5.9419 z m -7.9084,0 h 6.0793 v 66.1838 h -6.0793 z m -7.9084,0 h 6.2167 v 66.1838 h -6.2167 z m -7.9085,0 h 6.3543 V 66.1838 H 63.2674 Z M 55.359,0 h 6.4917 V 66.1838 H 55.359 Z m -7.9084,0 h 6.6291 v 66.1838 h -6.6291 z m -7.9084,0 h 6.7665 v 66.1838 h -6.7665 z m -7.9085,0 h 6.904 v 66.1838 h -6.904 z m -7.9084,0 h 7.0415 v 66.1838 h -7.0415 z m -7.9084,0 h 7.1789 V 66.1838 H 15.8169 Z M 7.9084,0 h 7.3164 V 66.1838 H 7.9084 Z M 0,0 H 7.4538 V 66.1838 H 0 Z" />
    </pattern>
    <pattern
       xlink:href="#pattern14-7-0-0"
       preserveAspectRatio="xMidYMid"
       id="pattern21-9"
       patternTransform="matrix(0,-0.03,0.03,0,19.983867,-15.668461)"
       x="0"
       y="0"
       width="596.30385742" />
    <pattern
       patternUnits="userSpaceOnUse"
       width="372.6899"
       height="66.1838"
       patternTransform="scale(0.2)"
       preserveAspectRatio="xMidYMid"
       id="pattern14-7-0-0"
       style="fill:#c3c3c3">
      <path
         id="path13-8-9-15"
         style="stroke-width:0.487199;stroke-linecap:square;paint-order:markers fill stroke;stop-color:#000000"
         d="m 371.6961,0 h 0.9938 v 66.1838 h -0.9938 z m -7.9084,0 h 1.1312 v 66.1838 h -1.1312 z m -7.9085,0 h 1.2687 v 66.1838 h -1.2687 z m -7.9084,0 h 1.4062 v 66.1838 h -1.4062 z m -7.9084,0 h 1.5436 v 66.1838 h -1.5436 z m -7.9084,0 h 1.681 v 66.1838 h -1.681 z m -7.9085,0 h 1.8185 v 66.1838 h -1.8185 z m -7.9084,0 h 1.9559 v 66.1838 h -1.9559 z m -7.9084,0 h 2.0934 v 66.1838 h -2.0934 z m -7.9085,0 h 2.2309 v 66.1838 h -2.2309 z m -7.9084,0 h 2.3683 v 66.1838 h -2.3683 z m -7.9084,0 h 2.5057 v 66.1838 h -2.5057 z m -7.9084,0 h 2.6431 v 66.1838 h -2.6431 z m -7.9085,0 h 2.7807 v 66.1838 h -2.7807 z m -7.9084,0 h 2.9181 v 66.1838 h -2.9181 z m -7.9084,0 h 3.0555 v 66.1838 h -3.0555 z m -7.9084,0 h 3.1929 v 66.1838 h -3.1929 z m -7.9085,0 h 3.3304 v 66.1838 h -3.3304 z m -7.9084,0 h 3.4679 v 66.1838 h -3.4679 z m -7.9084,0 h 3.6053 v 66.1838 h -3.6053 z m -7.9085,0 h 3.7428 v 66.1838 h -3.7428 z m -7.9084,0 h 3.8802 v 66.1838 h -3.8802 z m -7.9084,0 h 4.0176 v 66.1838 h -4.0176 z m -7.9084,0 h 4.1551 v 66.1838 h -4.1551 z m -7.9085,0 h 4.2926 v 66.1838 h -4.2926 z m -7.9084,0 h 4.43 v 66.1838 h -4.43 z m -7.9084,0 h 4.5674 v 66.1838 h -4.5674 z m -7.9084,0 h 4.7048 v 66.1838 h -4.7048 z m -7.9085,0 h 4.8424 v 66.1838 h -4.8424 z m -7.9084,0 h 4.9798 v 66.1838 h -4.9798 z m -7.9084,0 h 5.1172 v 66.1838 h -5.1172 z m -7.9084,0 h 5.2546 v 66.1838 h -5.2546 z m -7.9085,0 h 5.3921 v 66.1838 h -5.3921 z m -7.9084,0 h 5.5295 v 66.1838 h -5.5295 z m -7.9084,0 h 5.667 v 66.1838 h -5.667 z m -7.9085,0 h 5.8045 v 66.1838 h -5.8045 z m -7.9084,0 h 5.9419 v 66.1838 h -5.9419 z m -7.9084,0 h 6.0793 v 66.1838 h -6.0793 z m -7.9084,0 h 6.2167 v 66.1838 h -6.2167 z m -7.9085,0 h 6.3543 V 66.1838 H 63.2674 Z M 55.359,0 h 6.4917 V 66.1838 H 55.359 Z m -7.9084,0 h 6.6291 v 66.1838 h -6.6291 z m -7.9084,0 h 6.7665 v 66.1838 h -6.7665 z m -7.9085,0 h 6.904 v 66.1838 h -6.904 z m -7.9084,0 h 7.0415 v 66.1838 h -7.0415 z m -7.9084,0 h 7.1789 V 66.1838 H 15.8169 Z M 7.9084,0 h 7.3164 V 66.1838 H 7.9084 Z M 0,0 H 7.4538 V 66.1838 H 0 Z" />
    </pattern>
  </defs>
  <g
     id="layer1"
     transform="translate(-557.8781,-947.33299)">
    <ellipse
       style="fill:url(#pattern21);fill-opacity:1;stroke:none;stroke-width:1;stroke-linecap:round;stroke-linejoin:bevel;stroke-dasharray:none"
       id="path21"
       cx="562.38147"
       cy="1059.4958"
       rx="3.4641016"
       ry="1.5" />
    <ellipse
       style="fill:url(#pattern21-3);fill-opacity:1;stroke:none;stroke-width:1;stroke-linecap:round;stroke-linejoin:bevel;stroke-dasharray:none"
       id="path21-7"
       cx="565.45233"
       cy="1066.8309"
       rx="3.4641016"
       ry="1.5" />
    <ellipse
       style="fill:url(#pattern21-9);fill-opacity:1;stroke:none;stroke-width:1;stroke-linecap:round;stroke-linejoin:bevel;stroke-dasharray:none"
       id="path21-6"
       cx="577.70422"
       cy="1069.8314"
       rx="3.4641016"
       ry="1.5" />
    <path
       style="fill:none;fill-opacity:0.5;stroke:#000000;stroke-width:0.1;stroke-linecap:round;stroke-linejoin:bevel"
       d="m 558.08239,1049.9975 12.99038,-7.5 12.99038,7.5 -12.99038,7.5 z"
       id="path4-82-8" />
    <path
       style="fill:none;fill-opacity:0.5;stroke:#000000;stroke-width:0.3;stroke-linecap:round;stroke-linejoin:bevel;stroke-dasharray:none"
       d="m 558.08239,1044.9975 12.99038,-7.5 12.99038,7.5 -12.99038,7.5 z"
       id="path4-8-07-1" />
    <path
       style="fill:none;fill-opacity:0.5;stroke:#000000;stroke-width:0.3;stroke-linecap:round;stroke-linejoin:bevel;stroke-dasharray:none"
       d="m 558.08239,1044.9975 v 5 l 12.99038,7.5 v -5 z"
       id="path5-48-7" />
    <path
       style="fill:none;fill-opacity:0.5;stroke:#000000;stroke-width:0.3;stroke-linecap:round;stroke-linejoin:bevel;stroke-dasharray:none"
       d="m 584.06315,1044.9975 v 5 l -12.99038,7.5 v -5 z"
       id="path5-7-5-5" />
    <path
       style="opacity:0.3;mix-blend-mode:darken;fill:url(#pattern10-1-0);fill-opacity:1;stroke:#000000;stroke-width:0.1;stroke-linecap:round;stroke-linejoin:bevel"
       d="m 584.06315,1044.9975 v 5 l -12.99038,7.5 v -5 z"
       id="path5-7-2-8-7" />
    <path
       style="opacity:0.2;fill:url(#pattern15-8-2);fill-opacity:1;stroke:none;stroke-width:0.3;stroke-linecap:round;stroke-linejoin:round;stroke-dasharray:none;stroke-dashoffset:0"
       d="m 571.07277,1057.4975 h 8.66026 l 12.99038,-7.5 -12.99038,-7.5 h -8.66026 l 12.99038,7.5 z"
       id="path10-3-1" />
    <g
       id="g2-0-9"
       transform="translate(462.8196,929.99753)">
      <path
         id="path15-7-6-8"
         style="opacity:0.231608;fill:url(#pattern17-4-7-4);fill-opacity:1;stroke:none;stroke-width:0.0998009;stroke-linecap:round;stroke-linejoin:round;stroke-dasharray:none;stroke-dashoffset:0;stroke-opacity:1"
         d="m 105.8896,114.24999 a 2.5980761,2.4900533 0 0 1 0.24857,1.0634 2.5980761,2.4900533 0 0 1 -2.59778,2.49015 2.5980761,2.4900533 0 0 1 -1.53582,-0.48949 2.5980761,2.4900533 0 0 0 2.35179,1.43553 2.5980761,2.4900533 0 0 0 2.59778,-2.48965 2.5980761,2.4900533 0 0 0 -1.06454,-2.00994 z" />
      <ellipse
         style="opacity:0.504087;fill:none;fill-opacity:0.881766;stroke:#000000;stroke-width:0.1;stroke-linecap:round;stroke-linejoin:round;stroke-dasharray:none;stroke-dashoffset:0;stroke-opacity:1"
         id="path15-0-9-5-2-5"
         cx="104.35606"
         cy="116.24999"
         rx="2.5980761"
         ry="2.4999998" />
    </g>
    <g
       id="g2-6-2-5"
       transform="translate(467.45944,936.49774)">
      <path
         id="path15-7-5-5-1"
         style="opacity:0.231608;fill:url(#pattern17-4-1-9-9);fill-opacity:1;stroke:none;stroke-width:0.0998009;stroke-linecap:round;stroke-linejoin:round;stroke-dasharray:none;stroke-dashoffset:0;stroke-opacity:1"
         d="m 105.8896,114.24999 a 2.5980761,2.4900533 0 0 1 0.24857,1.0634 2.5980761,2.4900533 0 0 1 -2.59778,2.49015 2.5980761,2.4900533 0 0 1 -1.53582,-0.48949 2.5980761,2.4900533 0 0 0 2.35179,1.43553 2.5980761,2.4900533 0 0 0 2.59778,-2.48965 2.5980761,2.4900533 0 0 0 -1.06454,-2.00994 z" />
      <ellipse
         style="opacity:0.504087;fill:none;fill-opacity:0.881766;stroke:#000000;stroke-width:0.1;stroke-linecap:round;stroke-linejoin:round;stroke-dasharray:none;stroke-dashoffset:0;stroke-opacity:1"
         id="path15-0-9-5-5-2-1"
         cx="104.35606"
         cy="116.24999"
         rx="2.5980761"
         ry="2.4999998" />
    </g>
    <g
       id="g2-6-8-2-2"
       transform="translate(470.18082,930.24753)">
      <path
         id="path15-7-5-4-7-2"
         style="opacity:0.231608;fill:url(#pattern17-4-1-4-5-8);fill-opacity:1;stroke:none;stroke-width:0.0998009;stroke-linecap:round;stroke-linejoin:round;stroke-dasharray:none;stroke-dashoffset:0;stroke-opacity:1"
         d="m 105.8896,114.24999 a 2.5980761,2.4900533 0 0 1 0.24857,1.0634 2.5980761,2.4900533 0 0 1 -2.59778,2.49015 2.5980761,2.4900533 0 0 1 -1.53582,-0.48949 2.5980761,2.4900533 0 0 0 2.35179,1.43553 2.5980761,2.4900533 0 0 0 2.59778,-2.48965 2.5980761,2.4900533 0 0 0 -1.06454,-2.00994 z" />
      <ellipse
         style="opacity:0.504087;fill:none;fill-opacity:0.881766;stroke:#000000;stroke-width:0.1;stroke-linecap:round;stroke-linejoin:round;stroke-dasharray:none;stroke-dashoffset:0;stroke-opacity:1"
         id="path15-0-9-5-5-8-1-9"
         cx="104.35606"
         cy="116.24999"
         rx="2.5980761"
         ry="2.4999998" />
    </g>
    <path
       id="path15-5-4-9"
       style="fill:url(#pattern17-5-0-4);fill-opacity:1;stroke:none;stroke-width:0.087754;stroke-linecap:round;stroke-linejoin:round;stroke-dasharray:none;stroke-dashoffset:0;stroke-opacity:1"
       d="m 566.20279,1064.9848 a 2.3207174,2.1552758 41.754241 0 1 -0.12673,0.956 2.3207174,2.1552758 41.754241 0 1 -2.8828,1.1185 2.3207174,2.1552758 41.754241 0 1 -1.09759,-0.9408 2.3207174,2.1552758 41.754241 0 0 1.46861,2.001 2.3207174,2.1552758 41.754241 0 0 2.88261,-1.1182 2.3207174,2.1552758 41.754241 0 0 -0.2441,-2.0165 z" />
    <path
       id="path15-0-9-1-7-5"
       style="opacity:0.6703;fill:#ffffff;fill-opacity:1;stroke:#000000;stroke-width:0.1;stroke-linecap:round;stroke-linejoin:round;stroke-dasharray:none;stroke-dashoffset:0;stroke-opacity:1"
       d="m 563.27318,1063.7235 a 2.4999998,2.5980761 56.185712 0 0 -0.76704,3.5228 2.4999998,2.5980761 56.185712 0 0 3.54972,0.6316 z" />
    <path
       id="path15-2"
       style="fill:url(#pattern17-43);fill-opacity:1;stroke:none;stroke-width:0.1;stroke-linecap:round;stroke-linejoin:round;stroke-dasharray:none;stroke-dashoffset:0;stroke-opacity:1"
       d="m 562.05964,1056.237 a 2.5980761,2.4999998 0 0 1 0.24856,1.0676 2.5980761,2.4999998 0 0 1 -2.59777,2.5001 2.5980761,2.4999998 0 0 1 -1.53582,-0.4914 2.5980761,2.4999998 0 0 0 2.35179,1.4413 2.5980761,2.4999998 0 0 0 2.59778,-2.4996 2.5980761,2.4999998 0 0 0 -1.06454,-2.018 z" />
    <ellipse
       style="fill:#ffffff;fill-opacity:0.881766;stroke:#000000;stroke-width:0.1;stroke-linecap:round;stroke-linejoin:round;stroke-dasharray:none;stroke-dashoffset:0;stroke-opacity:1"
       id="path15-0-9-2"
       cx="560.52618"
       cy="1058.2551"
       rx="2.5980761"
       ry="2.4999998" />
    <ellipse
       style="fill:#f9f06b;fill-opacity:1;stroke:#000000;stroke-width:0.0828494;stroke-linecap:round;stroke-linejoin:round;stroke-dasharray:none;stroke-dashoffset:0;stroke-opacity:1"
       id="path15-0-9-1-0-2"
       cx="-123.99024"
       cy="1199.7429"
       rx="1.7772294"
       ry="2.5085752"
       transform="rotate(-33.814288)" />
    <path
       style="opacity:0.504087;fill:none;fill-opacity:0.881766;stroke:#000000;stroke-width:0.1;stroke-linecap:round;stroke-linejoin:round;stroke-dasharray:none;stroke-dashoffset:0;stroke-opacity:1"
       d="m 560.5261,1055.755 v 5"
       id="path17-5" />
    <path
       id="path15-0-9-1-7-3-5"
       style="fill:#ffffff;fill-opacity:0.881766;stroke:#000000;stroke-width:0.1;stroke-linecap:round;stroke-linejoin:round;stroke-dasharray:none;stroke-dashoffset:0;stroke-opacity:1"
       d="m 578.72484,1068.7516 a 2.4999998,2.5980761 5.8710022 0 1 -2.75271,2.3284 2.4999998,2.5980761 5.8710022 0 1 -2.22126,-2.8399 z" />
    <ellipse
       style="fill:#deddda;fill-opacity:1;stroke:#000000;stroke-width:0.0828494;stroke-linecap:round;stroke-linejoin:round;stroke-dasharray:none;stroke-dashoffset:0;stroke-opacity:1"
       id="path15-0-9-1-0-1-4"
       cx="-1003.9668"
       cy="-682.5213"
       rx="1.7772294"
       ry="2.5085752"
       transform="matrix(0.1022891,-0.99475471,-0.99475471,-0.1022891,0,0)" />
    <text
       xml:space="preserve"
       style="font-weight:500;font-size:18.8506px;line-height:1;font-family:'Kohinoor Telugu';-inkscape-font-specification:'Kohinoor Telugu Medium';text-align:start;letter-spacing:0px;writing-mode:lr-tb;direction:ltr;text-anchor:start;fill:#000000;fill-opacity:1;stroke:none;stroke-width:8.90578;stroke-linecap:round;stroke-linejoin:round;stroke-dasharray:none"
       x="556.59851"
       y="961.62183"
       id="text7-1-6-8-1-3-5-4-6-3"><tspan
         id="tspan7-0-7-2-8-5-1-3-4-7"
         style="font-style:normal;font-variant:normal;font-weight:600;font-stretch:normal;font-size:18.8506px;font-family:'Kohinoor Telugu';-inkscape-font-specification:'Kohinoor Telugu Semi-Bold';fill:#000000;stroke:none;stroke-width:8.90578"
         x="556.59851"
         y="961.62183">MaxRegel</tspan></text>
    <text
       xml:space="preserve"
       style="font-weight:500;font-size:8.18537px;line-height:1.2;font-family:'Kohinoor Telugu';-inkscape-font-specification:'Kohinoor Telugu Medium';text-align:start;letter-spacing:0px;writing-mode:lr-tb;direction:ltr;text-anchor:start;fill:#000000;fill-opacity:1;stroke:none;stroke-width:3.8671;stroke-linecap:round;stroke-linejoin:round;stroke-dasharray:none"
       x="558.02814"
       y="977.15704"
       id="text7-1-6-8-1-3-5-4-6-3-4"><tspan
         id="tspan7-0-7-2-8-5-1-3-4-7-7"
         style="font-style:normal;font-variant:normal;font-weight:normal;font-stretch:normal;font-size:8.18537px;line-height:1.2;font-family:'Kohinoor Telugu';-inkscape-font-specification:'Kohinoor Telugu';text-align:start;text-anchor:start;fill:#000000;stroke:none;stroke-width:3.8671"
         x="558.02814"
         y="977.15704">Building a Rule Engine </tspan><tspan
         style="font-style:normal;font-variant:normal;font-weight:normal;font-stretch:normal;font-size:8.18537px;line-height:1.2;font-family:'Kohinoor Telugu';-inkscape-font-specification:'Kohinoor Telugu';text-align:start;text-anchor:start;fill:#000000;stroke:none;stroke-width:3.8671"
         x="558.02814"
         y="986.97949"
         id="tspan20">from the Ground Up</tspan></text>
    <g
       id="g1-4-0-1-9-0"
       transform="translate(497.02338,577.45203)">
      <path
         style="fill:#f8e45c;fill-opacity:0.5;stroke:#000000;stroke-width:0.3;stroke-linecap:round;stroke-linejoin:bevel;stroke-dasharray:none"
         d="m 122.1808,437.5498 4.33013,-2.5 17.32051,10 -4.33013,2.5 z"
         id="path4-8-1-1-3-0-7-5-0-1-4-0-7" />
      <path
         style="fill:#f6d32d;fill-opacity:0.5;stroke:#000000;stroke-width:0.115015;stroke-linecap:round;stroke-linejoin:bevel"
         d="m 126.51093,435.0498 0.008,24.99641 17.3416,10.00145 -0.0293,-24.99786 z"
         id="path5-3-2-6-1-9-0-9-7-2-7" />
      <path
         style="fill:#f8e45c;fill-opacity:0.5;stroke:#000000;stroke-width:0.3;stroke-linecap:round;stroke-linejoin:bevel;stroke-dasharray:none"
         d="m 139.50131,447.5498 4.33013,-2.5 -10e-6,25 -4.30103,2.49786 z"
         id="path4-8-1-1-3-0-5-1-3-6-8-7-83-9" />
    </g>
    <path
       style="opacity:0.2;fill:url(#pattern15-8-8-3-3-0-9-6-3);fill-opacity:1;stroke:none;stroke-width:0.3;stroke-linecap:round;stroke-linejoin:round;stroke-dasharray:none;stroke-dashoffset:0"
       d="m 571.57278,1032.5017 h 8.66027 l 12.99038,-7.5 -12.99038,-7.5 h -8.66027 l 12.99039,7.5 z"
       id="path10-3-2-39-2-6-0-6-8" />
    <path
       style="opacity:0.2;fill:url(#pattern15-1-4-4-4-8-15-0-9);fill-opacity:1;stroke:none;stroke-width:0.499999;stroke-linecap:round;stroke-linejoin:round;stroke-dasharray:none;stroke-dashoffset:0"
       d="m 614.87406,1062.5017 h 8.66026 l 21.65063,-12.4999 -17.32051,-10 h -8.66025 l 17.32051,10 z"
       id="path10-0-5-7-1-6-2-3-7" />
    <path
       style="fill:#9a9996;fill-opacity:0.5;stroke:#000000;stroke-width:0.3;stroke-linecap:round;stroke-linejoin:bevel;stroke-dasharray:none"
       d="m 597.52436,1052.4989 21.67983,-12.4971 17.32051,10 -21.62144,12.4914 z"
       id="path4-8-1-6-7-2-8-4-9-38-1" />
    <path
       style="fill:#9a9996;fill-opacity:0.881766;stroke:#000000;stroke-width:0.3;stroke-linecap:round;stroke-linejoin:bevel;stroke-dasharray:none"
       d="m 619.2042,1015.0018 0.008,24.9964 17.34159,10.0014 -0.0291,-24.9978 z"
       id="path5-3-2-9-5-3-5-4-7-4-8" />
    <path
       style="fill:none;fill-opacity:0.5;stroke:#000000;stroke-width:1;stroke-linecap:round;stroke-linejoin:round;stroke-dasharray:none"
       d="m 578.06796,1028.7517 30.24629,17.4553"
       id="path7-0-6-6-8-8-68-6-5" />
    <path
       style="fill:none;fill-opacity:0.5;stroke:#000000;stroke-width:1;stroke-linecap:round;stroke-linejoin:round;stroke-dasharray:none"
       d="m 625.69937,1056.2517 25.98078,15"
       id="path7-0-6-8-5-9-6-2-30-0" />
    <path
       style="fill:#000000;fill-opacity:1;stroke:#000000;stroke-width:0.1;stroke-linecap:round;stroke-linejoin:bevel"
       d="m 578.93401,1034.2518 8.66025,-5 4.33013,7.5 z"
       id="path6-8-7-5-9-1-9-16-4" />
    <path
       style="fill:#000000;fill-opacity:1;stroke:#000000;stroke-width:0.1;stroke-linecap:round;stroke-linejoin:bevel"
       d="m 630.09539,1063.8704 8.66026,-5 4.33013,7.5 z"
       id="path6-8-2-8-8-9-4-9-59-2" />
    <path
       style="fill:#d6d6d4;fill-opacity:0.854701;stroke:#000000;stroke-width:0.3;stroke-linecap:round;stroke-linejoin:bevel;stroke-dasharray:none"
       d="m 597.52436,1027.4989 21.67983,-12.4971 17.32051,10 -21.62144,12.4914 z"
       id="path4-8-1-1-3-6-1-3-0-8-5-6" />
    <path
       style="fill:#b3b2b1;fill-opacity:0.900285;stroke:#000000;stroke-width:0.3;stroke-linecap:round;stroke-linejoin:bevel;stroke-dasharray:none"
       d="m 597.55356,1027.5018 0.008,24.9964 17.34159,10.0014 -0.0293,-24.9978 z"
       id="path5-3-2-5-4-3-8-3-8-0" />
    <g
       id="g4-0-7-7-1-7-5-9"
       style="stroke-width:0.3;stroke-dasharray:none"
       transform="translate(411.25808,879.95178)">
      <path
         style="fill:#c061cb;fill-opacity:0.5;stroke:#000000;stroke-width:0.3;stroke-linecap:round;stroke-linejoin:bevel;stroke-dasharray:none"
         d="m 147.32431,145.05 12.99038,-7.49999 12.99038,7.49999 -12.99038,7.5 z"
         id="path4-4-9-1-7-0-12-9-9" />
      <path
         style="fill:#c061cb;fill-opacity:0.5;stroke:#000000;stroke-width:0.3;stroke-linecap:round;stroke-linejoin:bevel;stroke-dasharray:none"
         d="m 147.32431,140.05001 12.99038,-7.49999 12.99038,7.49999 -12.99038,7.5 z"
         id="path4-8-0-3-3-3-3-6-1-8" />
      <path
         style="fill:#c061cb;fill-opacity:0.5;stroke:#000000;stroke-width:0.3;stroke-linecap:round;stroke-linejoin:bevel;stroke-dasharray:none"
         d="M 147.32431,140.05001 V 145.05 l 12.99038,7.5 v -5 z"
         id="path5-46-7-8-2-1-1-4-9" />
      <path
         style="fill:#c061cb;fill-opacity:0.5;stroke:#000000;stroke-width:0.3;stroke-linecap:round;stroke-linejoin:bevel;stroke-dasharray:none"
         d="m 173.30507,140.05002 v 4.99999 l -12.99038,7.5 v -5 z"
         id="path5-7-4-57-4-56-1-7-0-2" />
      <path
         style="opacity:0.3;mix-blend-mode:darken;fill:url(#pattern10-5-6-9-9-0-3-5-1);fill-opacity:1;stroke:#000000;stroke-width:0.3;stroke-linecap:round;stroke-linejoin:bevel;stroke-dasharray:none"
         d="m 173.30507,140.05002 v 4.99999 l -12.99038,7.5 v -5 z"
         id="path5-7-2-64-2-8-3-5-6-6-2" />
    </g>
    <g
       id="g8-9-0-5-0-5-2-8"
       style="stroke-width:0.3;stroke-dasharray:none"
       transform="translate(381.04719,874.50178)">
      <path
         style="fill:#33d17a;fill-opacity:0.5;stroke:#000000;stroke-width:0.3;stroke-linecap:round;stroke-linejoin:bevel;stroke-dasharray:none"
         d="M 177.5352,145.49999 190.52558,138 l 12.99038,7.49999 -12.99038,7.5 z"
         id="path4-4-0-5-7-46-6-8-0-3-7" />
      <path
         style="fill:#33d17a;fill-opacity:0.5;stroke:#000000;stroke-width:0.3;stroke-linecap:round;stroke-linejoin:bevel;stroke-dasharray:none"
         d="m 177.5352,140.5 12.99038,-7.49999 12.99038,7.49999 -12.99038,7.5 z"
         id="path4-8-0-4-6-5-0-8-4-45-3-1" />
      <path
         style="fill:#33d17a;fill-opacity:0.5;stroke:#000000;stroke-width:0.3;stroke-linecap:round;stroke-linejoin:bevel;stroke-dasharray:none"
         d="m 177.5352,140.5 v 4.99999 l 12.99038,7.5 v -5 z"
         id="path5-46-8-7-6-3-5-9-1-5-2" />
      <path
         style="fill:#33d17a;fill-opacity:0.5;stroke:#000000;stroke-width:0.3;stroke-linecap:round;stroke-linejoin:bevel;stroke-dasharray:none"
         d="M 203.51596,140.50001 V 145.5 l -12.99038,7.5 v -5 z"
         id="path5-7-4-5-9-5-2-3-3-2-1-6" />
      <path
         style="opacity:0.3;mix-blend-mode:darken;fill:url(#pattern10-5-5-7-4-2-7-92-9-4-0);fill-opacity:1;stroke:#000000;stroke-width:0.3;stroke-linecap:round;stroke-linejoin:bevel;stroke-dasharray:none"
         d="m 203.51596,140.50001 v 4.99998 l -12.99038,7.5 v -5 z"
         id="path5-7-2-64-5-4-3-6-7-0-3-5-9" />
    </g>
    <path
       style="opacity:0.2;fill:url(#pattern15-8-8-3-3-1-7-8-6);fill-opacity:1;stroke:none;stroke-width:0.3;stroke-linecap:round;stroke-linejoin:round;stroke-dasharray:none;stroke-dashoffset:0"
       d="m 658.20443,1082.4981 h 8.66026 l 12.99038,-7.5 -12.99038,-7.5 h -8.66026 l 12.99038,7.5 z"
       id="path10-3-2-39-2-7-2-0-5" />
    <g
       id="g4-0-7-7-9-8-2-3"
       style="stroke-width:0.3;stroke-dasharray:none"
       transform="translate(497.88972,929.94818)">
      <path
         style="fill:#c061cb;fill-opacity:0.5;stroke:#000000;stroke-width:0.3;stroke-linecap:round;stroke-linejoin:bevel;stroke-dasharray:none"
         d="m 147.32431,145.05 12.99038,-7.49999 12.99038,7.49999 -12.99038,7.5 z"
         id="path4-4-9-1-7-9-3-5-0" />
      <path
         style="fill:#c061cb;fill-opacity:0.5;stroke:#000000;stroke-width:0.3;stroke-linecap:round;stroke-linejoin:bevel;stroke-dasharray:none"
         d="m 147.32431,140.05001 12.99038,-7.49999 12.99038,7.49999 -12.99038,7.5 z"
         id="path4-8-0-3-3-3-30-9-4-2" />
      <path
         style="fill:#c061cb;fill-opacity:0.5;stroke:#000000;stroke-width:0.3;stroke-linecap:round;stroke-linejoin:bevel;stroke-dasharray:none"
         d="M 147.32431,140.05001 V 145.05 l 12.99038,7.5 v -5 z"
         id="path5-46-7-8-2-15-8-0-0" />
      <path
         style="fill:#c061cb;fill-opacity:0.5;stroke:#000000;stroke-width:0.3;stroke-linecap:round;stroke-linejoin:bevel;stroke-dasharray:none"
         d="m 173.30507,140.05002 v 4.99999 l -12.99038,7.5 v -5 z"
         id="path5-7-4-57-4-56-2-74-6-0" />
      <path
         style="opacity:0.3;mix-blend-mode:darken;fill:url(#pattern10-5-6-9-9-4-6-4-3);fill-opacity:1;stroke:#000000;stroke-width:0.3;stroke-linecap:round;stroke-linejoin:bevel;stroke-dasharray:none"
         d="m 173.30507,140.05002 v 4.99999 l -12.99038,7.5 v -5 z"
         id="path5-7-2-64-2-8-3-7-1-3-3" />
    </g>
    <g
       id="g8-9-0-5-39-7-0-3"
       style="stroke-width:0.3;stroke-dasharray:none"
       transform="translate(467.67884,924.49818)">
      <path
         style="fill:#33d17a;fill-opacity:0.5;stroke:#000000;stroke-width:0.3;stroke-linecap:round;stroke-linejoin:bevel;stroke-dasharray:none"
         d="M 177.5352,145.49999 190.52558,138 l 12.99038,7.49999 -12.99038,7.5 z"
         id="path4-4-0-5-7-46-6-6-6-0-8" />
      <path
         style="fill:#33d17a;fill-opacity:0.5;stroke:#000000;stroke-width:0.3;stroke-linecap:round;stroke-linejoin:bevel;stroke-dasharray:none"
         d="m 177.5352,140.5 12.99038,-7.49999 12.99038,7.49999 -12.99038,7.5 z"
         id="path4-8-0-4-6-5-0-8-49-0-5-8" />
      <path
         style="fill:#33d17a;fill-opacity:0.5;stroke:#000000;stroke-width:0.3;stroke-linecap:round;stroke-linejoin:bevel;stroke-dasharray:none"
         d="m 177.5352,140.5 v 4.99999 l 12.99038,7.5 v -5 z"
         id="path5-46-8-7-6-3-5-2-2-2-3" />
      <path
         style="fill:#33d17a;fill-opacity:0.5;stroke:#000000;stroke-width:0.3;stroke-linecap:round;stroke-linejoin:bevel;stroke-dasharray:none"
         d="M 203.51596,140.50001 V 145.5 l -12.99038,7.5 v -5 z"
         id="path5-7-4-5-9-5-2-3-35-10-2-2" />
      <path
         style="opacity:0.3;mix-blend-mode:darken;fill:url(#pattern10-5-5-7-4-2-7-3-7-0-2);fill-opacity:1;stroke:#000000;stroke-width:0.3;stroke-linecap:round;stroke-linejoin:bevel;stroke-dasharray:none"
         d="m 203.51596,140.50001 v 4.99998 l -12.99038,7.5 v -5 z"
         id="path5-7-2-64-5-4-3-6-7-9-8-0-1" />
    </g>
    <g
       id="g6-0-2-2-4-3-3-4"
       style="stroke-width:0.3;stroke-dasharray:none"
       transform="translate(467.57884,941.07797)">
      <path
         style="fill:#ff7800;fill-opacity:0.5;stroke:#000000;stroke-width:0.3;stroke-linecap:round;stroke-linejoin:bevel;stroke-dasharray:none"
         d="m 177.6352,123.92017 12.99038,-7.49999 12.99038,7.49999 -12.99038,7.5 z"
         id="path4-4-0-5-2-4-9-0-6-7-2-3" />
      <path
         style="fill:#ff7800;fill-opacity:0.5;stroke:#000000;stroke-width:0.3;stroke-linecap:round;stroke-linejoin:bevel;stroke-dasharray:none"
         d="m 177.6352,118.92018 12.99038,-7.49999 12.99038,7.49999 -12.99038,7.5 z"
         id="path4-8-0-4-6-0-5-9-6-3-4-5-1" />
      <path
         style="fill:#ff7800;fill-opacity:0.5;stroke:#000000;stroke-width:0.3;stroke-linecap:round;stroke-linejoin:bevel;stroke-dasharray:none"
         d="m 177.6352,118.92018 v 4.99999 l 12.99038,7.5 v -5 z"
         id="path5-46-8-7-4-7-8-0-7-8-8-2" />
      <path
         style="fill:#ff7800;fill-opacity:0.5;stroke:#000000;stroke-width:0.3;stroke-linecap:round;stroke-linejoin:bevel;stroke-dasharray:none"
         d="m 203.61596,118.92019 v 4.99999 l -12.99038,7.5 v -5 z"
         id="path5-7-4-5-9-4-1-3-7-8-7-5-4" />
      <path
         style="opacity:0.3;mix-blend-mode:darken;fill:url(#pattern10-5-5-7-7-8-2-6-9-5-8-8);fill-opacity:1;stroke:#000000;stroke-width:0.3;stroke-linecap:round;stroke-linejoin:bevel;stroke-dasharray:none"
         d="m 203.61596,118.92019 v 4.99998 l -12.99038,7.5 v -5 z"
         id="path5-7-2-64-5-4-0-0-7-2-4-5-0-5" />
    </g>
  </g>
</svg>
