<?xml version="1.0" encoding="UTF-8" standalone="no"?>
<!-- Created with Inkscape (http://www.inkscape.org/) -->

<svg
   width="216.90422mm"
   height="135.93736mm"
   viewBox="0 0 216.90422 135.93736"
   version="1.1"
   id="svg1"
   xmlns:xlink="http://www.w3.org/1999/xlink"
   xmlns="http://www.w3.org/2000/svg"
   xmlns:svg="http://www.w3.org/2000/svg">
  <defs
     id="defs1">
    <pattern
       xlink:href="#pattern14-7-5-8-1-0-7-8-1"
       preserveAspectRatio="xMidYMid"
       id="pattern15-8-8-3-3-0-7-6-6"
       patternTransform="matrix(0,-0.05,0.05,0,95.262812,780.00006)"
       x="0"
       y="0" />
    <pattern
       patternUnits="userSpaceOnUse"
       width="372.6899"
       height="66.1838"
       patternTransform="scale(0.2)"
       preserveAspectRatio="xMidYMid"
       id="pattern14-7-5-8-1-0-7-8-1"
       style="fill:#000000">
      <path
         id="path13-8-5-02-1-3-5-2-1"
         style="stroke-width:0.487199;stroke-linecap:square;paint-order:markers fill stroke;stop-color:#000000"
         d="m 371.6961,0 h 0.9938 v 66.1838 h -0.9938 z m -7.9084,0 h 1.1312 v 66.1838 h -1.1312 z m -7.9085,0 h 1.2687 v 66.1838 h -1.2687 z m -7.9084,0 h 1.4062 v 66.1838 h -1.4062 z m -7.9084,0 h 1.5436 v 66.1838 h -1.5436 z m -7.9084,0 h 1.681 v 66.1838 h -1.681 z m -7.9085,0 h 1.8185 v 66.1838 h -1.8185 z m -7.9084,0 h 1.9559 v 66.1838 h -1.9559 z m -7.9084,0 h 2.0934 v 66.1838 h -2.0934 z m -7.9085,0 h 2.2309 v 66.1838 h -2.2309 z m -7.9084,0 h 2.3683 v 66.1838 h -2.3683 z m -7.9084,0 h 2.5057 v 66.1838 h -2.5057 z m -7.9084,0 h 2.6431 v 66.1838 h -2.6431 z m -7.9085,0 h 2.7807 v 66.1838 h -2.7807 z m -7.9084,0 h 2.9181 v 66.1838 h -2.9181 z m -7.9084,0 h 3.0555 v 66.1838 h -3.0555 z m -7.9084,0 h 3.1929 v 66.1838 h -3.1929 z m -7.9085,0 h 3.3304 v 66.1838 h -3.3304 z m -7.9084,0 h 3.4679 v 66.1838 h -3.4679 z m -7.9084,0 h 3.6053 v 66.1838 h -3.6053 z m -7.9085,0 h 3.7428 v 66.1838 h -3.7428 z m -7.9084,0 h 3.8802 v 66.1838 h -3.8802 z m -7.9084,0 h 4.0176 v 66.1838 h -4.0176 z m -7.9084,0 h 4.1551 v 66.1838 h -4.1551 z m -7.9085,0 h 4.2926 v 66.1838 h -4.2926 z m -7.9084,0 h 4.43 v 66.1838 h -4.43 z m -7.9084,0 h 4.5674 v 66.1838 h -4.5674 z m -7.9084,0 h 4.7048 v 66.1838 h -4.7048 z m -7.9085,0 h 4.8424 v 66.1838 h -4.8424 z m -7.9084,0 h 4.9798 v 66.1838 h -4.9798 z m -7.9084,0 h 5.1172 v 66.1838 h -5.1172 z m -7.9084,0 h 5.2546 v 66.1838 h -5.2546 z m -7.9085,0 h 5.3921 v 66.1838 h -5.3921 z m -7.9084,0 h 5.5295 v 66.1838 h -5.5295 z m -7.9084,0 h 5.667 v 66.1838 h -5.667 z m -7.9085,0 h 5.8045 v 66.1838 h -5.8045 z m -7.9084,0 h 5.9419 v 66.1838 h -5.9419 z m -7.9084,0 h 6.0793 v 66.1838 h -6.0793 z m -7.9084,0 h 6.2167 v 66.1838 h -6.2167 z m -7.9085,0 h 6.3543 V 66.1838 H 63.2674 Z M 55.359,0 h 6.4917 V 66.1838 H 55.359 Z m -7.9084,0 h 6.6291 v 66.1838 h -6.6291 z m -7.9084,0 h 6.7665 v 66.1838 h -6.7665 z m -7.9085,0 h 6.904 v 66.1838 h -6.904 z m -7.9084,0 h 7.0415 v 66.1838 h -7.0415 z m -7.9084,0 h 7.1789 V 66.1838 H 15.8169 Z M 7.9084,0 h 7.3164 V 66.1838 H 7.9084 Z M 0,0 H 7.4538 V 66.1838 H 0 Z" />
    </pattern>
    <pattern
       xlink:href="#pattern14-8-8-8-9-3-2-9-6"
       preserveAspectRatio="xMidYMid"
       id="pattern15-1-4-4-4-8-1-3-5"
       patternTransform="matrix(0,-0.09,0.09,0,142.89421,802.50005)"
       x="-128"
       y="0" />
    <pattern
       patternUnits="userSpaceOnUse"
       width="372.6899"
       height="66.1838"
       patternTransform="scale(0.2)"
       preserveAspectRatio="xMidYMid"
       id="pattern14-8-8-8-9-3-2-9-6"
       style="fill:#000000">
      <path
         id="path13-1-0-3-5-6-6-0-9"
         style="stroke-width:0.487199;stroke-linecap:square;paint-order:markers fill stroke;stop-color:#000000"
         d="m 371.6961,0 h 0.9938 v 66.1838 h -0.9938 z m -7.9084,0 h 1.1312 v 66.1838 h -1.1312 z m -7.9085,0 h 1.2687 v 66.1838 h -1.2687 z m -7.9084,0 h 1.4062 v 66.1838 h -1.4062 z m -7.9084,0 h 1.5436 v 66.1838 h -1.5436 z m -7.9084,0 h 1.681 v 66.1838 h -1.681 z m -7.9085,0 h 1.8185 v 66.1838 h -1.8185 z m -7.9084,0 h 1.9559 v 66.1838 h -1.9559 z m -7.9084,0 h 2.0934 v 66.1838 h -2.0934 z m -7.9085,0 h 2.2309 v 66.1838 h -2.2309 z m -7.9084,0 h 2.3683 v 66.1838 h -2.3683 z m -7.9084,0 h 2.5057 v 66.1838 h -2.5057 z m -7.9084,0 h 2.6431 v 66.1838 h -2.6431 z m -7.9085,0 h 2.7807 v 66.1838 h -2.7807 z m -7.9084,0 h 2.9181 v 66.1838 h -2.9181 z m -7.9084,0 h 3.0555 v 66.1838 h -3.0555 z m -7.9084,0 h 3.1929 v 66.1838 h -3.1929 z m -7.9085,0 h 3.3304 v 66.1838 h -3.3304 z m -7.9084,0 h 3.4679 v 66.1838 h -3.4679 z m -7.9084,0 h 3.6053 v 66.1838 h -3.6053 z m -7.9085,0 h 3.7428 v 66.1838 h -3.7428 z m -7.9084,0 h 3.8802 v 66.1838 h -3.8802 z m -7.9084,0 h 4.0176 v 66.1838 h -4.0176 z m -7.9084,0 h 4.1551 v 66.1838 h -4.1551 z m -7.9085,0 h 4.2926 v 66.1838 h -4.2926 z m -7.9084,0 h 4.43 v 66.1838 h -4.43 z m -7.9084,0 h 4.5674 v 66.1838 h -4.5674 z m -7.9084,0 h 4.7048 v 66.1838 h -4.7048 z m -7.9085,0 h 4.8424 v 66.1838 h -4.8424 z m -7.9084,0 h 4.9798 v 66.1838 h -4.9798 z m -7.9084,0 h 5.1172 v 66.1838 h -5.1172 z m -7.9084,0 h 5.2546 v 66.1838 h -5.2546 z m -7.9085,0 h 5.3921 v 66.1838 h -5.3921 z m -7.9084,0 h 5.5295 v 66.1838 h -5.5295 z m -7.9084,0 h 5.667 v 66.1838 h -5.667 z m -7.9085,0 h 5.8045 v 66.1838 h -5.8045 z m -7.9084,0 h 5.9419 v 66.1838 h -5.9419 z m -7.9084,0 h 6.0793 v 66.1838 h -6.0793 z m -7.9084,0 h 6.2167 v 66.1838 h -6.2167 z m -7.9085,0 h 6.3543 V 66.1838 H 63.2674 Z M 55.359,0 h 6.4917 V 66.1838 H 55.359 Z m -7.9084,0 h 6.6291 v 66.1838 h -6.6291 z m -7.9084,0 h 6.7665 v 66.1838 h -6.7665 z m -7.9085,0 h 6.904 v 66.1838 h -6.904 z m -7.9084,0 h 7.0415 v 66.1838 h -7.0415 z m -7.9084,0 h 7.1789 V 66.1838 H 15.8169 Z M 7.9084,0 h 7.3164 V 66.1838 H 7.9084 Z M 0,0 H 7.4538 V 66.1838 H 0 Z" />
    </pattern>
    <pattern
       xlink:href="#shading6-9-6-1-3-2-5-4-7-0-0"
       preserveAspectRatio="xMidYMid"
       id="pattern10-5-5-7-4-2-7-92-1-1-8"
       patternTransform="matrix(0.05,0,0,0.05,82.182708,30.869171)"
       x="-123"
       y="0" />
    <pattern
       patternUnits="userSpaceOnUse"
       width="372.6899"
       height="66.1838"
       patternTransform="scale(0.2)"
       preserveAspectRatio="xMidYMid"
       id="shading6-9-6-1-3-2-5-4-7-0-0"
       style="fill:#000000">
      <path
         id="path34-4-5-5-8-7-7-9-1-0-2"
         style="stroke-width:0.487199;stroke-linecap:square;paint-order:markers fill stroke;stop-color:#000000"
         d="m 371.6961,0 h 0.9938 v 66.1838 h -0.9938 z m -7.9084,0 h 1.1312 v 66.1838 h -1.1312 z m -7.9085,0 h 1.2687 v 66.1838 h -1.2687 z m -7.9084,0 h 1.4062 v 66.1838 h -1.4062 z m -7.9084,0 h 1.5436 v 66.1838 h -1.5436 z m -7.9084,0 h 1.681 v 66.1838 h -1.681 z m -7.9085,0 h 1.8185 v 66.1838 h -1.8185 z m -7.9084,0 h 1.9559 v 66.1838 h -1.9559 z m -7.9084,0 h 2.0934 v 66.1838 h -2.0934 z m -7.9085,0 h 2.2309 v 66.1838 h -2.2309 z m -7.9084,0 h 2.3683 v 66.1838 h -2.3683 z m -7.9084,0 h 2.5057 v 66.1838 h -2.5057 z m -7.9084,0 h 2.6431 v 66.1838 h -2.6431 z m -7.9085,0 h 2.7807 v 66.1838 h -2.7807 z m -7.9084,0 h 2.9181 v 66.1838 h -2.9181 z m -7.9084,0 h 3.0555 v 66.1838 h -3.0555 z m -7.9084,0 h 3.1929 v 66.1838 h -3.1929 z m -7.9085,0 h 3.3304 v 66.1838 h -3.3304 z m -7.9084,0 h 3.4679 v 66.1838 h -3.4679 z m -7.9084,0 h 3.6053 v 66.1838 h -3.6053 z m -7.9085,0 h 3.7428 v 66.1838 h -3.7428 z m -7.9084,0 h 3.8802 v 66.1838 h -3.8802 z m -7.9084,0 h 4.0176 v 66.1838 h -4.0176 z m -7.9084,0 h 4.1551 v 66.1838 h -4.1551 z m -7.9085,0 h 4.2926 v 66.1838 h -4.2926 z m -7.9084,0 h 4.43 v 66.1838 h -4.43 z m -7.9084,0 h 4.5674 v 66.1838 h -4.5674 z m -7.9084,0 h 4.7048 v 66.1838 h -4.7048 z m -7.9085,0 h 4.8424 v 66.1838 h -4.8424 z m -7.9084,0 h 4.9798 v 66.1838 h -4.9798 z m -7.9084,0 h 5.1172 v 66.1838 h -5.1172 z m -7.9084,0 h 5.2546 v 66.1838 h -5.2546 z m -7.9085,0 h 5.3921 v 66.1838 h -5.3921 z m -7.9084,0 h 5.5295 v 66.1838 h -5.5295 z m -7.9084,0 h 5.667 v 66.1838 h -5.667 z m -7.9085,0 h 5.8045 v 66.1838 h -5.8045 z m -7.9084,0 h 5.9419 v 66.1838 h -5.9419 z m -7.9084,0 h 6.0793 v 66.1838 h -6.0793 z m -7.9084,0 h 6.2167 v 66.1838 h -6.2167 z m -7.9085,0 h 6.3543 V 66.1838 H 63.2674 Z M 55.359,0 h 6.4917 V 66.1838 H 55.359 Z m -7.9084,0 h 6.6291 v 66.1838 h -6.6291 z m -7.9084,0 h 6.7665 v 66.1838 h -6.7665 z m -7.9085,0 h 6.904 v 66.1838 h -6.904 z m -7.9084,0 h 7.0415 v 66.1838 h -7.0415 z m -7.9084,0 h 7.1789 V 66.1838 H 15.8169 Z M 7.9084,0 h 7.3164 V 66.1838 H 7.9084 Z M 0,0 H 7.4538 V 66.1838 H 0 Z" />
    </pattern>
    <pattern
       xlink:href="#pattern14-7-5-0-6-0-9-4-0-6"
       preserveAspectRatio="xMidYMid"
       id="pattern15-8-8-7-7-5-2-3-8-2"
       patternTransform="matrix(0,-0.05,0.05,0,181.86536,830.00007)"
       x="0"
       y="0" />
    <pattern
       patternUnits="userSpaceOnUse"
       width="372.6899"
       height="66.1838"
       patternTransform="scale(0.2)"
       preserveAspectRatio="xMidYMid"
       id="pattern14-7-5-0-6-0-9-4-0-6"
       style="fill:#000000">
      <path
         id="path13-8-5-0-2-6-1-8-4-7"
         style="stroke-width:0.487199;stroke-linecap:square;paint-order:markers fill stroke;stop-color:#000000"
         d="m 371.6961,0 h 0.9938 v 66.1838 h -0.9938 z m -7.9084,0 h 1.1312 v 66.1838 h -1.1312 z m -7.9085,0 h 1.2687 v 66.1838 h -1.2687 z m -7.9084,0 h 1.4062 v 66.1838 h -1.4062 z m -7.9084,0 h 1.5436 v 66.1838 h -1.5436 z m -7.9084,0 h 1.681 v 66.1838 h -1.681 z m -7.9085,0 h 1.8185 v 66.1838 h -1.8185 z m -7.9084,0 h 1.9559 v 66.1838 h -1.9559 z m -7.9084,0 h 2.0934 v 66.1838 h -2.0934 z m -7.9085,0 h 2.2309 v 66.1838 h -2.2309 z m -7.9084,0 h 2.3683 v 66.1838 h -2.3683 z m -7.9084,0 h 2.5057 v 66.1838 h -2.5057 z m -7.9084,0 h 2.6431 v 66.1838 h -2.6431 z m -7.9085,0 h 2.7807 v 66.1838 h -2.7807 z m -7.9084,0 h 2.9181 v 66.1838 h -2.9181 z m -7.9084,0 h 3.0555 v 66.1838 h -3.0555 z m -7.9084,0 h 3.1929 v 66.1838 h -3.1929 z m -7.9085,0 h 3.3304 v 66.1838 h -3.3304 z m -7.9084,0 h 3.4679 v 66.1838 h -3.4679 z m -7.9084,0 h 3.6053 v 66.1838 h -3.6053 z m -7.9085,0 h 3.7428 v 66.1838 h -3.7428 z m -7.9084,0 h 3.8802 v 66.1838 h -3.8802 z m -7.9084,0 h 4.0176 v 66.1838 h -4.0176 z m -7.9084,0 h 4.1551 v 66.1838 h -4.1551 z m -7.9085,0 h 4.2926 v 66.1838 h -4.2926 z m -7.9084,0 h 4.43 v 66.1838 h -4.43 z m -7.9084,0 h 4.5674 v 66.1838 h -4.5674 z m -7.9084,0 h 4.7048 v 66.1838 h -4.7048 z m -7.9085,0 h 4.8424 v 66.1838 h -4.8424 z m -7.9084,0 h 4.9798 v 66.1838 h -4.9798 z m -7.9084,0 h 5.1172 v 66.1838 h -5.1172 z m -7.9084,0 h 5.2546 v 66.1838 h -5.2546 z m -7.9085,0 h 5.3921 v 66.1838 h -5.3921 z m -7.9084,0 h 5.5295 v 66.1838 h -5.5295 z m -7.9084,0 h 5.667 v 66.1838 h -5.667 z m -7.9085,0 h 5.8045 v 66.1838 h -5.8045 z m -7.9084,0 h 5.9419 v 66.1838 h -5.9419 z m -7.9084,0 h 6.0793 v 66.1838 h -6.0793 z m -7.9084,0 h 6.2167 v 66.1838 h -6.2167 z m -7.9085,0 h 6.3543 V 66.1838 H 63.2674 Z M 55.359,0 h 6.4917 V 66.1838 H 55.359 Z m -7.9084,0 h 6.6291 v 66.1838 h -6.6291 z m -7.9084,0 h 6.7665 v 66.1838 h -6.7665 z m -7.9085,0 h 6.904 v 66.1838 h -6.904 z m -7.9084,0 h 7.0415 v 66.1838 h -7.0415 z m -7.9084,0 h 7.1789 V 66.1838 H 15.8169 Z M 7.9084,0 h 7.3164 V 66.1838 H 7.9084 Z M 0,0 H 7.4538 V 66.1838 H 0 Z" />
    </pattern>
    <pattern
       xlink:href="#shading6-9-6-1-3-2-5-4-7-3-1"
       preserveAspectRatio="xMidYMid"
       id="pattern10-5-5-7-4-2-7-92-1-2-6"
       patternTransform="matrix(0.05,0,0,0.05,82.272414,25.499974)"
       x="-123"
       y="0" />
    <pattern
       patternUnits="userSpaceOnUse"
       width="372.6899"
       height="66.1838"
       patternTransform="scale(0.2)"
       preserveAspectRatio="xMidYMid"
       id="shading6-9-6-1-3-2-5-4-7-3-1"
       style="fill:#000000">
      <path
         id="path34-4-5-5-8-7-7-9-1-2-2"
         style="stroke-width:0.487199;stroke-linecap:square;paint-order:markers fill stroke;stop-color:#000000"
         d="m 371.6961,0 h 0.9938 v 66.1838 h -0.9938 z m -7.9084,0 h 1.1312 v 66.1838 h -1.1312 z m -7.9085,0 h 1.2687 v 66.1838 h -1.2687 z m -7.9084,0 h 1.4062 v 66.1838 h -1.4062 z m -7.9084,0 h 1.5436 v 66.1838 h -1.5436 z m -7.9084,0 h 1.681 v 66.1838 h -1.681 z m -7.9085,0 h 1.8185 v 66.1838 h -1.8185 z m -7.9084,0 h 1.9559 v 66.1838 h -1.9559 z m -7.9084,0 h 2.0934 v 66.1838 h -2.0934 z m -7.9085,0 h 2.2309 v 66.1838 h -2.2309 z m -7.9084,0 h 2.3683 v 66.1838 h -2.3683 z m -7.9084,0 h 2.5057 v 66.1838 h -2.5057 z m -7.9084,0 h 2.6431 v 66.1838 h -2.6431 z m -7.9085,0 h 2.7807 v 66.1838 h -2.7807 z m -7.9084,0 h 2.9181 v 66.1838 h -2.9181 z m -7.9084,0 h 3.0555 v 66.1838 h -3.0555 z m -7.9084,0 h 3.1929 v 66.1838 h -3.1929 z m -7.9085,0 h 3.3304 v 66.1838 h -3.3304 z m -7.9084,0 h 3.4679 v 66.1838 h -3.4679 z m -7.9084,0 h 3.6053 v 66.1838 h -3.6053 z m -7.9085,0 h 3.7428 v 66.1838 h -3.7428 z m -7.9084,0 h 3.8802 v 66.1838 h -3.8802 z m -7.9084,0 h 4.0176 v 66.1838 h -4.0176 z m -7.9084,0 h 4.1551 v 66.1838 h -4.1551 z m -7.9085,0 h 4.2926 v 66.1838 h -4.2926 z m -7.9084,0 h 4.43 v 66.1838 h -4.43 z m -7.9084,0 h 4.5674 v 66.1838 h -4.5674 z m -7.9084,0 h 4.7048 v 66.1838 h -4.7048 z m -7.9085,0 h 4.8424 v 66.1838 h -4.8424 z m -7.9084,0 h 4.9798 v 66.1838 h -4.9798 z m -7.9084,0 h 5.1172 v 66.1838 h -5.1172 z m -7.9084,0 h 5.2546 v 66.1838 h -5.2546 z m -7.9085,0 h 5.3921 v 66.1838 h -5.3921 z m -7.9084,0 h 5.5295 v 66.1838 h -5.5295 z m -7.9084,0 h 5.667 v 66.1838 h -5.667 z m -7.9085,0 h 5.8045 v 66.1838 h -5.8045 z m -7.9084,0 h 5.9419 v 66.1838 h -5.9419 z m -7.9084,0 h 6.0793 v 66.1838 h -6.0793 z m -7.9084,0 h 6.2167 v 66.1838 h -6.2167 z m -7.9085,0 h 6.3543 V 66.1838 H 63.2674 Z M 55.359,0 h 6.4917 V 66.1838 H 55.359 Z m -7.9084,0 h 6.6291 v 66.1838 h -6.6291 z m -7.9084,0 h 6.7665 v 66.1838 h -6.7665 z m -7.9085,0 h 6.904 v 66.1838 h -6.904 z m -7.9084,0 h 7.0415 v 66.1838 h -7.0415 z m -7.9084,0 h 7.1789 V 66.1838 H 15.8169 Z M 7.9084,0 h 7.3164 V 66.1838 H 7.9084 Z M 0,0 H 7.4538 V 66.1838 H 0 Z" />
    </pattern>
    <pattern
       xlink:href="#pattern14-8-8-8-9-3-2-2"
       preserveAspectRatio="xMidYMid"
       id="pattern15-1-4-4-4-8-1-33"
       patternTransform="matrix(0,-0.09,0.09,0,225.13742,850.00855)"
       x="-128"
       y="0" />
    <pattern
       patternUnits="userSpaceOnUse"
       width="372.6899"
       height="66.1838"
       patternTransform="scale(0.2)"
       preserveAspectRatio="xMidYMid"
       id="pattern14-8-8-8-9-3-2-2"
       style="fill:#000000">
      <path
         id="path13-1-0-3-5-6-6-1"
         style="stroke-width:0.487199;stroke-linecap:square;paint-order:markers fill stroke;stop-color:#000000"
         d="m 371.6961,0 h 0.9938 v 66.1838 h -0.9938 z m -7.9084,0 h 1.1312 v 66.1838 h -1.1312 z m -7.9085,0 h 1.2687 v 66.1838 h -1.2687 z m -7.9084,0 h 1.4062 v 66.1838 h -1.4062 z m -7.9084,0 h 1.5436 v 66.1838 h -1.5436 z m -7.9084,0 h 1.681 v 66.1838 h -1.681 z m -7.9085,0 h 1.8185 v 66.1838 h -1.8185 z m -7.9084,0 h 1.9559 v 66.1838 h -1.9559 z m -7.9084,0 h 2.0934 v 66.1838 h -2.0934 z m -7.9085,0 h 2.2309 v 66.1838 h -2.2309 z m -7.9084,0 h 2.3683 v 66.1838 h -2.3683 z m -7.9084,0 h 2.5057 v 66.1838 h -2.5057 z m -7.9084,0 h 2.6431 v 66.1838 h -2.6431 z m -7.9085,0 h 2.7807 v 66.1838 h -2.7807 z m -7.9084,0 h 2.9181 v 66.1838 h -2.9181 z m -7.9084,0 h 3.0555 v 66.1838 h -3.0555 z m -7.9084,0 h 3.1929 v 66.1838 h -3.1929 z m -7.9085,0 h 3.3304 v 66.1838 h -3.3304 z m -7.9084,0 h 3.4679 v 66.1838 h -3.4679 z m -7.9084,0 h 3.6053 v 66.1838 h -3.6053 z m -7.9085,0 h 3.7428 v 66.1838 h -3.7428 z m -7.9084,0 h 3.8802 v 66.1838 h -3.8802 z m -7.9084,0 h 4.0176 v 66.1838 h -4.0176 z m -7.9084,0 h 4.1551 v 66.1838 h -4.1551 z m -7.9085,0 h 4.2926 v 66.1838 h -4.2926 z m -7.9084,0 h 4.43 v 66.1838 h -4.43 z m -7.9084,0 h 4.5674 v 66.1838 h -4.5674 z m -7.9084,0 h 4.7048 v 66.1838 h -4.7048 z m -7.9085,0 h 4.8424 v 66.1838 h -4.8424 z m -7.9084,0 h 4.9798 v 66.1838 h -4.9798 z m -7.9084,0 h 5.1172 v 66.1838 h -5.1172 z m -7.9084,0 h 5.2546 v 66.1838 h -5.2546 z m -7.9085,0 h 5.3921 v 66.1838 h -5.3921 z m -7.9084,0 h 5.5295 v 66.1838 h -5.5295 z m -7.9084,0 h 5.667 v 66.1838 h -5.667 z m -7.9085,0 h 5.8045 v 66.1838 h -5.8045 z m -7.9084,0 h 5.9419 v 66.1838 h -5.9419 z m -7.9084,0 h 6.0793 v 66.1838 h -6.0793 z m -7.9084,0 h 6.2167 v 66.1838 h -6.2167 z m -7.9085,0 h 6.3543 V 66.1838 H 63.2674 Z M 55.359,0 h 6.4917 V 66.1838 H 55.359 Z m -7.9084,0 h 6.6291 v 66.1838 h -6.6291 z m -7.9084,0 h 6.7665 v 66.1838 h -6.7665 z m -7.9085,0 h 6.904 v 66.1838 h -6.904 z m -7.9084,0 h 7.0415 v 66.1838 h -7.0415 z m -7.9084,0 h 7.1789 V 66.1838 H 15.8169 Z M 7.9084,0 h 7.3164 V 66.1838 H 7.9084 Z M 0,0 H 7.4538 V 66.1838 H 0 Z" />
    </pattern>
    <pattern
       xlink:href="#pattern14-7-5-0-6-0-9-4-1"
       preserveAspectRatio="xMidYMid"
       id="pattern15-8-8-7-7-5-2-3-9"
       patternTransform="matrix(0,-0.05,0.05,0,264.10857,877.50857)"
       x="0"
       y="0" />
    <pattern
       patternUnits="userSpaceOnUse"
       width="372.6899"
       height="66.1838"
       patternTransform="scale(0.2)"
       preserveAspectRatio="xMidYMid"
       id="pattern14-7-5-0-6-0-9-4-1"
       style="fill:#000000">
      <path
         id="path13-8-5-0-2-6-1-8-6"
         style="stroke-width:0.487199;stroke-linecap:square;paint-order:markers fill stroke;stop-color:#000000"
         d="m 371.6961,0 h 0.9938 v 66.1838 h -0.9938 z m -7.9084,0 h 1.1312 v 66.1838 h -1.1312 z m -7.9085,0 h 1.2687 v 66.1838 h -1.2687 z m -7.9084,0 h 1.4062 v 66.1838 h -1.4062 z m -7.9084,0 h 1.5436 v 66.1838 h -1.5436 z m -7.9084,0 h 1.681 v 66.1838 h -1.681 z m -7.9085,0 h 1.8185 v 66.1838 h -1.8185 z m -7.9084,0 h 1.9559 v 66.1838 h -1.9559 z m -7.9084,0 h 2.0934 v 66.1838 h -2.0934 z m -7.9085,0 h 2.2309 v 66.1838 h -2.2309 z m -7.9084,0 h 2.3683 v 66.1838 h -2.3683 z m -7.9084,0 h 2.5057 v 66.1838 h -2.5057 z m -7.9084,0 h 2.6431 v 66.1838 h -2.6431 z m -7.9085,0 h 2.7807 v 66.1838 h -2.7807 z m -7.9084,0 h 2.9181 v 66.1838 h -2.9181 z m -7.9084,0 h 3.0555 v 66.1838 h -3.0555 z m -7.9084,0 h 3.1929 v 66.1838 h -3.1929 z m -7.9085,0 h 3.3304 v 66.1838 h -3.3304 z m -7.9084,0 h 3.4679 v 66.1838 h -3.4679 z m -7.9084,0 h 3.6053 v 66.1838 h -3.6053 z m -7.9085,0 h 3.7428 v 66.1838 h -3.7428 z m -7.9084,0 h 3.8802 v 66.1838 h -3.8802 z m -7.9084,0 h 4.0176 v 66.1838 h -4.0176 z m -7.9084,0 h 4.1551 v 66.1838 h -4.1551 z m -7.9085,0 h 4.2926 v 66.1838 h -4.2926 z m -7.9084,0 h 4.43 v 66.1838 h -4.43 z m -7.9084,0 h 4.5674 v 66.1838 h -4.5674 z m -7.9084,0 h 4.7048 v 66.1838 h -4.7048 z m -7.9085,0 h 4.8424 v 66.1838 h -4.8424 z m -7.9084,0 h 4.9798 v 66.1838 h -4.9798 z m -7.9084,0 h 5.1172 v 66.1838 h -5.1172 z m -7.9084,0 h 5.2546 v 66.1838 h -5.2546 z m -7.9085,0 h 5.3921 v 66.1838 h -5.3921 z m -7.9084,0 h 5.5295 v 66.1838 h -5.5295 z m -7.9084,0 h 5.667 v 66.1838 h -5.667 z m -7.9085,0 h 5.8045 v 66.1838 h -5.8045 z m -7.9084,0 h 5.9419 v 66.1838 h -5.9419 z m -7.9084,0 h 6.0793 v 66.1838 h -6.0793 z m -7.9084,0 h 6.2167 v 66.1838 h -6.2167 z m -7.9085,0 h 6.3543 V 66.1838 H 63.2674 Z M 55.359,0 h 6.4917 V 66.1838 H 55.359 Z m -7.9084,0 h 6.6291 v 66.1838 h -6.6291 z m -7.9084,0 h 6.7665 v 66.1838 h -6.7665 z m -7.9085,0 h 6.904 v 66.1838 h -6.904 z m -7.9084,0 h 7.0415 v 66.1838 h -7.0415 z m -7.9084,0 h 7.1789 V 66.1838 H 15.8169 Z M 7.9084,0 h 7.3164 V 66.1838 H 7.9084 Z M 0,0 H 7.4538 V 66.1838 H 0 Z" />
    </pattern>
    <pattern
       xlink:href="#shading6-9-6-1-5-4-4-6-1-9"
       preserveAspectRatio="xMidYMid"
       id="pattern10-5-5-7-7-8-2-6-6-3"
       patternTransform="matrix(0.05,0,0,0.05,82.372409,3.920155)"
       x="-123"
       y="0" />
    <pattern
       patternUnits="userSpaceOnUse"
       width="372.6899"
       height="66.1838"
       patternTransform="scale(0.2)"
       preserveAspectRatio="xMidYMid"
       id="shading6-9-6-1-5-4-4-6-1-9"
       style="fill:#000000">
      <path
         id="path34-4-5-5-3-9-9-4-5-1"
         style="stroke-width:0.487199;stroke-linecap:square;paint-order:markers fill stroke;stop-color:#000000"
         d="m 371.6961,0 h 0.9938 v 66.1838 h -0.9938 z m -7.9084,0 h 1.1312 v 66.1838 h -1.1312 z m -7.9085,0 h 1.2687 v 66.1838 h -1.2687 z m -7.9084,0 h 1.4062 v 66.1838 h -1.4062 z m -7.9084,0 h 1.5436 v 66.1838 h -1.5436 z m -7.9084,0 h 1.681 v 66.1838 h -1.681 z m -7.9085,0 h 1.8185 v 66.1838 h -1.8185 z m -7.9084,0 h 1.9559 v 66.1838 h -1.9559 z m -7.9084,0 h 2.0934 v 66.1838 h -2.0934 z m -7.9085,0 h 2.2309 v 66.1838 h -2.2309 z m -7.9084,0 h 2.3683 v 66.1838 h -2.3683 z m -7.9084,0 h 2.5057 v 66.1838 h -2.5057 z m -7.9084,0 h 2.6431 v 66.1838 h -2.6431 z m -7.9085,0 h 2.7807 v 66.1838 h -2.7807 z m -7.9084,0 h 2.9181 v 66.1838 h -2.9181 z m -7.9084,0 h 3.0555 v 66.1838 h -3.0555 z m -7.9084,0 h 3.1929 v 66.1838 h -3.1929 z m -7.9085,0 h 3.3304 v 66.1838 h -3.3304 z m -7.9084,0 h 3.4679 v 66.1838 h -3.4679 z m -7.9084,0 h 3.6053 v 66.1838 h -3.6053 z m -7.9085,0 h 3.7428 v 66.1838 h -3.7428 z m -7.9084,0 h 3.8802 v 66.1838 h -3.8802 z m -7.9084,0 h 4.0176 v 66.1838 h -4.0176 z m -7.9084,0 h 4.1551 v 66.1838 h -4.1551 z m -7.9085,0 h 4.2926 v 66.1838 h -4.2926 z m -7.9084,0 h 4.43 v 66.1838 h -4.43 z m -7.9084,0 h 4.5674 v 66.1838 h -4.5674 z m -7.9084,0 h 4.7048 v 66.1838 h -4.7048 z m -7.9085,0 h 4.8424 v 66.1838 h -4.8424 z m -7.9084,0 h 4.9798 v 66.1838 h -4.9798 z m -7.9084,0 h 5.1172 v 66.1838 h -5.1172 z m -7.9084,0 h 5.2546 v 66.1838 h -5.2546 z m -7.9085,0 h 5.3921 v 66.1838 h -5.3921 z m -7.9084,0 h 5.5295 v 66.1838 h -5.5295 z m -7.9084,0 h 5.667 v 66.1838 h -5.667 z m -7.9085,0 h 5.8045 v 66.1838 h -5.8045 z m -7.9084,0 h 5.9419 v 66.1838 h -5.9419 z m -7.9084,0 h 6.0793 v 66.1838 h -6.0793 z m -7.9084,0 h 6.2167 v 66.1838 h -6.2167 z m -7.9085,0 h 6.3543 V 66.1838 H 63.2674 Z M 55.359,0 h 6.4917 V 66.1838 H 55.359 Z m -7.9084,0 h 6.6291 v 66.1838 h -6.6291 z m -7.9084,0 h 6.7665 v 66.1838 h -6.7665 z m -7.9085,0 h 6.904 v 66.1838 h -6.904 z m -7.9084,0 h 7.0415 v 66.1838 h -7.0415 z m -7.9084,0 h 7.1789 V 66.1838 H 15.8169 Z M 7.9084,0 h 7.3164 V 66.1838 H 7.9084 Z M 0,0 H 7.4538 V 66.1838 H 0 Z" />
    </pattern>
  </defs>
  <g
     id="layer1"
     transform="translate(-177.10817,-869.19421)">
    <path
       style="fill:none;fill-opacity:0.5;stroke:#000000;stroke-width:1;stroke-linecap:round;stroke-linejoin:round;stroke-dasharray:none"
       d="m 296.1148,953.88134 25.98078,15"
       id="path7-0-6-8-5-9-6-2-3" />
    <path
       style="fill:#000000;fill-opacity:1;stroke:#000000;stroke-width:0.1;stroke-linecap:round;stroke-linejoin:bevel"
       d="m 300.51082,961.50004 8.66026,-5 4.33013,7.5 z"
       id="path6-8-2-8-8-9-4-9-0" />
    <path
       style="opacity:0.2;fill:url(#pattern15-1-4-4-4-8-1-33);fill-opacity:1;stroke:none;stroke-width:0.499999;stroke-linecap:round;stroke-linejoin:round;stroke-dasharray:none;stroke-dashoffset:0"
       d="m 329.06047,985.00854 h 8.66026 l 21.65062,-12.49999 -17.3205,-10 h -8.66025 l 17.3205,10 z"
       id="path10-0-5-7-1-6-4-6" />
    <path
       style="fill:#9a9996;fill-opacity:0.5;stroke:#000000;stroke-width:0.3;stroke-linecap:round;stroke-linejoin:bevel;stroke-dasharray:none"
       d="m 311.71077,975.00571 21.67983,-12.49716 17.3205,10 -21.62143,12.4915 z"
       id="path4-8-1-6-7-2-8-4-7-6" />
    <path
       style="fill:#9a9996;fill-opacity:0.881766;stroke:#000000;stroke-width:0.3;stroke-linecap:round;stroke-linejoin:bevel;stroke-dasharray:none"
       d="m 333.39061,937.50855 0.008,24.99641 17.34158,10.00145 -0.0291,-24.99786 z"
       id="path5-3-2-9-5-3-5-4-9-6" />
    <path
       style="fill:none;fill-opacity:0.5;stroke:#000000;stroke-width:1;stroke-linecap:round;stroke-linejoin:round;stroke-dasharray:none"
       d="m 339.88578,978.75855 25.98077,14.99997"
       id="path7-0-6-8-5-9-6-6-44" />
    <path
       style="fill:#000000;fill-opacity:1;stroke:#000000;stroke-width:0.1;stroke-linecap:round;stroke-linejoin:bevel"
       d="m 344.2818,986.37718 8.66025,-5 4.33013,7.5 z"
       id="path6-8-2-8-8-9-4-6-4" />
    <path
       style="fill:#d6d6d4;fill-opacity:0.854701;stroke:#000000;stroke-width:0.3;stroke-linecap:round;stroke-linejoin:bevel;stroke-dasharray:none"
       d="m 311.71077,950.00571 21.67983,-12.49716 17.3205,10 -21.62143,12.49149 z"
       id="path4-8-1-1-3-6-1-3-0-7-5" />
    <path
       style="fill:#b3b2b1;fill-opacity:0.900285;stroke:#000000;stroke-width:0.3;stroke-linecap:round;stroke-linejoin:bevel;stroke-dasharray:none"
       d="m 311.73996,950.00855 0.008,24.99641 17.3416,10.00145 -0.0293,-24.99786 z"
       id="path5-3-2-5-4-3-8-0-7" />
    <path
       style="opacity:0.2;fill:url(#pattern15-8-8-7-7-5-2-3-9);fill-opacity:1;stroke:none;stroke-width:0.3;stroke-linecap:round;stroke-linejoin:round;stroke-dasharray:none;stroke-dashoffset:0"
       d="m 372.36174,1005.0085 h 8.66025 l 12.99038,-7.49996 -12.99038,-7.49999 h -8.66025 l 12.99037,7.49999 z"
       id="path10-3-2-6-6-7-5-0-67" />
    <text
       xml:space="preserve"
       style="font-weight:bold;font-stretch:condensed;font-size:6.03711px;line-height:1;font-family:'DIN Condensed';-inkscape-font-specification:'DIN Condensed,  Bold Condensed';text-align:start;letter-spacing:0px;writing-mode:lr-tb;direction:ltr;text-anchor:start;fill:#000000;stroke-width:0.0777868;stroke-linecap:round;stroke-linejoin:bevel"
       x="403.1485"
       y="960.34393"
       id="text2-7-4-1-9-1-4-3-7-4-7"
       transform="matrix(0.96378287,0.00111605,-0.00103668,1.0375769,0,0)"><tspan
         id="tspan2-9-7-4-3-9-1-1-1-0-0"
         style="stroke-width:0.0777868"
         x="403.1485"
         y="960.34393">}</tspan></text>
    <text
       xml:space="preserve"
       style="font-weight:500;font-size:2.11667px;line-height:1;font-family:'Kohinoor Telugu';-inkscape-font-specification:'Kohinoor Telugu Medium';text-align:start;letter-spacing:0px;writing-mode:lr-tb;direction:ltr;text-anchor:start;fill:#000000;fill-opacity:0.881766;stroke:none;stroke-width:0.0115198;stroke-linecap:round;stroke-linejoin:round;stroke-dasharray:none;stroke-dashoffset:0;stroke-opacity:1"
       x="390.41727"
       y="994.9646"
       id="text17-9-7-8-7-5-6-9-1-0-0-6-2"><tspan
         style="font-size:2.11667px;fill:#000000;stroke:none;stroke-width:0.0115198"
         x="390.41727"
         y="994.9646"
         id="tspan18-0-2-1-3-9-4-0-5-2-6-5-1">n</tspan></text>
    <rect
       style="fill:#ffffff;fill-opacity:1;stroke:#000000;stroke-width:0.171021;stroke-linecap:round;stroke-linejoin:round;stroke-dasharray:none"
       id="rect7-3-6-5-7-3-8-1"
       width="11.657883"
       height="4.2557225"
       x="366.71219"
       y="970.75854"
       ry="0.85114431" />
    <text
       xml:space="preserve"
       style="font-weight:500;font-size:2.11667px;line-height:1;font-family:'Kohinoor Telugu';-inkscape-font-specification:'Kohinoor Telugu Medium';text-align:start;letter-spacing:0px;writing-mode:lr-tb;direction:ltr;text-anchor:start;fill:#000000;fill-opacity:1;stroke:none;stroke-width:1;stroke-linecap:round;stroke-linejoin:round;stroke-dasharray:none"
       x="369.12589"
       y="973.3479"
       id="text7-1-6-8-1-3-5-4"><tspan
         id="tspan7-0-7-2-8-5-1-3"
         style="font-size:2.11667px;fill:#000000;stroke:none;stroke-width:1"
         x="369.12589"
         y="973.3479">Output</tspan></text>
    <path
       style="fill:#000000;fill-opacity:1;stroke:#000000;stroke-width:0.554675;stroke-linecap:round;stroke-linejoin:round;stroke-dasharray:0.554675, 1.10935;stroke-dashoffset:0"
       d="m 372.41041,975.24499 v 10"
       id="path8-1-0-9-9-0-2-7" />
    <rect
       style="fill:#ffffff;fill-opacity:1;stroke:#000000;stroke-width:0.21225;stroke-linecap:round;stroke-linejoin:round;stroke-dasharray:none"
       id="rect7-3-6-7-8-37-2-4-4"
       width="18.13201"
       height="4.2144928"
       x="323.82724"
       y="926.9715"
       ry="0.84289843" />
    <text
       xml:space="preserve"
       style="font-weight:500;font-size:2.11667px;line-height:1;font-family:'Kohinoor Telugu';-inkscape-font-specification:'Kohinoor Telugu Medium';text-align:start;letter-spacing:0px;writing-mode:lr-tb;direction:ltr;text-anchor:start;fill:#000000;fill-opacity:1;stroke:none;stroke-width:1;stroke-linecap:round;stroke-linejoin:round;stroke-dasharray:none"
       x="329.59647"
       y="930.005"
       id="text7-1-6-9-2-4-3-6-4"><tspan
         id="tspan7-0-7-8-0-80-2-7-3"
         style="font-weight:bold;font-size:2.11667px;fill:#000000;stroke:none;stroke-width:1"
         x="329.59647"
         y="930.005">count</tspan><tspan
         style="font-size:2.11667px;fill:#000000;stroke:none;stroke-width:1"
         x="329.59647"
         y="932.1217"
         id="tspan3-7-40-7-5-0" /></text>
    <path
       style="fill:#000000;fill-opacity:1;stroke:#000000;stroke-width:0.554675;stroke-linecap:round;stroke-linejoin:round;stroke-dasharray:0.554675, 1.10935;stroke-dashoffset:0"
       d="m 333.36781,932.2372 v 10"
       id="path8-1-0-4-4-5-1-5-7" />
    <g
       id="g6-0-2-2-7-9"
       style="stroke-width:0.3;stroke-dasharray:none"
       transform="translate(181.73641,873.58151)">
      <path
         style="fill:#ff7800;fill-opacity:0.5;stroke:#000000;stroke-width:0.3;stroke-linecap:round;stroke-linejoin:bevel;stroke-dasharray:none"
         d="m 177.6352,123.92017 12.99038,-7.49999 12.99038,7.49999 -12.99038,7.5 z"
         id="path4-4-0-5-2-4-9-0-9-9" />
      <path
         style="fill:#ff7800;fill-opacity:0.5;stroke:#000000;stroke-width:0.3;stroke-linecap:round;stroke-linejoin:bevel;stroke-dasharray:none"
         d="m 177.6352,118.92018 12.99038,-7.49999 12.99038,7.49999 -12.99038,7.5 z"
         id="path4-8-0-4-6-0-5-9-6-7-9" />
      <path
         style="fill:#ff7800;fill-opacity:0.5;stroke:#000000;stroke-width:0.3;stroke-linecap:round;stroke-linejoin:bevel;stroke-dasharray:none"
         d="m 177.6352,118.92018 v 4.99999 l 12.99038,7.5 v -5 z"
         id="path5-46-8-7-4-7-8-0-5-4" />
      <path
         style="fill:#ff7800;fill-opacity:0.5;stroke:#000000;stroke-width:0.3;stroke-linecap:round;stroke-linejoin:bevel;stroke-dasharray:none"
         d="m 203.61596,118.92019 v 4.99999 l -12.99038,7.5 v -5 z"
         id="path5-7-4-5-9-4-1-3-7-3-4" />
      <path
         style="opacity:0.3;mix-blend-mode:darken;fill:url(#pattern10-5-5-7-7-8-2-6-6-3);fill-opacity:1;stroke:#000000;stroke-width:0.3;stroke-linecap:round;stroke-linejoin:bevel;stroke-dasharray:none"
         d="m 203.61596,118.92019 v 4.99998 l -12.99038,7.5 v -5 z"
         id="path5-7-2-64-5-4-0-0-7-2-9-1" />
    </g>
    <rect
       style="fill:#f9f06b;fill-opacity:1;stroke:#000000;stroke-width:0.367352;stroke-linecap:round;stroke-linejoin:round;stroke-dasharray:none"
       id="rect7-3-6-7-8-3-8-3-23-6"
       width="31.993313"
       height="7.1548023"
       x="260.53961"
       y="881.70245"
       ry="1.4309601" />
    <g
       id="g1-4-0-13-5"
       transform="translate(128.9375,452.45239)">
      <path
         style="fill:#f8e45c;fill-opacity:0.5;stroke:#000000;stroke-width:0.3;stroke-linecap:round;stroke-linejoin:bevel;stroke-dasharray:none"
         d="m 122.1808,437.5498 4.33013,-2.5 17.32051,10 -4.33013,2.5 z"
         id="path4-8-1-1-3-0-7-5-0-1-2-7" />
      <path
         style="fill:#f6d32d;fill-opacity:0.5;stroke:#000000;stroke-width:0.115015;stroke-linecap:round;stroke-linejoin:bevel"
         d="m 126.51093,435.0498 0.008,24.99641 17.3416,10.00145 -0.0293,-24.99786 z"
         id="path5-3-2-6-1-9-0-9-1-3" />
      <path
         style="fill:#f8e45c;fill-opacity:0.5;stroke:#000000;stroke-width:0.3;stroke-linecap:round;stroke-linejoin:bevel;stroke-dasharray:none"
         d="m 139.50131,447.5498 4.33013,-2.5 -10e-6,25 -4.30103,2.49786 z"
         id="path4-8-1-1-3-0-5-1-3-6-8-6-6" />
    </g>
    <rect
       style="fill:#ffffff;fill-opacity:1;stroke:#000000;stroke-width:0.351618;stroke-linecap:round;stroke-linejoin:round;stroke-dasharray:none"
       id="rect7-3-6-7-8-37-2-8-3"
       width="50.93716"
       height="4.1172123"
       x="241.60362"
       y="879.51379"
       ry="0.82344228" />
    <text
       xml:space="preserve"
       style="font-weight:500;font-size:2.11667px;line-height:1;font-family:'Kohinoor Telugu';-inkscape-font-specification:'Kohinoor Telugu Medium';text-align:start;letter-spacing:0px;writing-mode:lr-tb;direction:ltr;text-anchor:start;fill:#000000;fill-opacity:1;stroke:none;stroke-width:1;stroke-linecap:round;stroke-linejoin:round;stroke-dasharray:none"
       x="247.32419"
       y="882.49866"
       id="text7-1-6-9-2-4-3-1-2"><tspan
         id="tspan7-0-7-8-0-80-2-0-5"
         style="font-weight:bold;font-size:2.11667px;fill:#000000;stroke:none;stroke-width:1"
         x="247.32419"
         y="882.49866">filter</tspan><tspan
         style="font-size:2.11667px;fill:#000000;stroke:none;stroke-width:1"
         x="247.32419"
         y="884.61536"
         id="tspan3-7-40-7-6-0" /></text>
    <path
       style="fill:#000000;fill-opacity:1;stroke:#000000;stroke-width:0.554675;stroke-linecap:round;stroke-linejoin:round;stroke-dasharray:0.554675, 1.10935;stroke-dashoffset:0"
       d="m 251.09553,884.73084 v 10"
       id="path8-1-0-4-4-5-1-0-3" />
    <text
       xml:space="preserve"
       style="font-weight:500;font-size:2.11667px;line-height:1;font-family:'Kohinoor Telugu';-inkscape-font-specification:'Kohinoor Telugu Medium';text-align:start;letter-spacing:0px;writing-mode:lr-tb;direction:ltr;text-anchor:start;fill:#000000;fill-opacity:1;stroke:none;stroke-width:1;stroke-linecap:round;stroke-linejoin:round;stroke-dasharray:none"
       x="263.17068"
       y="885.92035"
       id="text7-1-6-9-2-0-7-0-4-7"><tspan
         id="tspan7-0-7-8-0-8-0-0-9-3"
         style="font-style:normal;font-size:2.11667px;fill:#e5a50a;stroke:none;stroke-width:1"
         x="263.17068"
         y="885.92035">parameter</tspan><tspan
         style="font-size:2.11667px;fill:#000000;stroke:none;stroke-width:1"
         x="263.17068"
         y="888.03705"
         id="tspan4-0-9-9-5">predicate: field &quot;age&quot; &lt;= 12 </tspan><tspan
         style="font-size:2.11667px;fill:#000000;stroke:none;stroke-width:1"
         x="263.17068"
         y="890.15369"
         id="tspan3-7-4-5-7-4-9" /></text>
    <path
       style="fill:#000000;fill-opacity:1;stroke:#000000;stroke-width:0.482759;stroke-linecap:round;stroke-linejoin:round;stroke-dasharray:0.482759, 0.965517;stroke-dashoffset:0"
       d="m 268.85928,889.53063 v 7.575"
       id="path8-1-0-4-4-0-6-1-5-1" />
    <path
       style="opacity:0.2;fill:url(#pattern15-8-8-3-3-0-7-6-6);fill-opacity:1;stroke:none;stroke-width:0.3;stroke-linecap:round;stroke-linejoin:round;stroke-dasharray:none;stroke-dashoffset:0"
       d="m 203.51598,907.50003 h 8.66028 l 12.99037,-7.5 -12.99037,-7.49999 h -8.66028 l 12.99039,7.49999 z"
       id="path10-3-2-39-2-6-6-4-8" />
    <text
       xml:space="preserve"
       style="font-weight:500;font-size:2.11667px;line-height:1;font-family:'Kohinoor Telugu';-inkscape-font-specification:'Kohinoor Telugu Medium';text-align:start;letter-spacing:0px;writing-mode:lr-tb;direction:ltr;text-anchor:start;fill:#000000;fill-opacity:1;stroke:none;stroke-width:1;stroke-linecap:round;stroke-linejoin:round;stroke-dasharray:none"
       x="200.98608"
       y="870.67804"
       id="text7-1-9-7-0-8-9-4"><tspan
         id="tspan7-0-1-4-1-5-6-0"
         style="font-size:2.11667px;fill:#000000;stroke:none;stroke-width:1"
         x="200.98608"
         y="870.67804">Input</tspan></text>
    <path
       style="opacity:0.2;fill:url(#pattern15-1-4-4-4-8-1-3-5);fill-opacity:1;stroke:none;stroke-width:0.499999;stroke-linecap:round;stroke-linejoin:round;stroke-dasharray:none;stroke-dashoffset:0"
       d="m 246.81727,937.50004 h 8.66026 l 21.65062,-12.49999 -17.32051,-10 h -8.66024 l 17.32049,10 z"
       id="path10-0-5-7-1-6-4-4-8" />
    <path
       style="fill:#9a9996;fill-opacity:0.5;stroke:#000000;stroke-width:0.3;stroke-linecap:round;stroke-linejoin:bevel;stroke-dasharray:none"
       d="m 229.46756,927.49721 21.67984,-12.49716 17.32049,10 -21.62143,12.4915 z"
       id="path4-8-1-6-7-2-8-4-7-2-9" />
    <path
       style="fill:#9a9996;fill-opacity:0.881766;stroke:#000000;stroke-width:0.3;stroke-linecap:round;stroke-linejoin:bevel;stroke-dasharray:none"
       d="m 251.1474,890.00005 0.008,24.99641 17.34158,10.00145 -0.0291,-24.99786 z"
       id="path5-3-2-9-5-3-5-4-9-8-5" />
    <path
       style="fill:none;fill-opacity:0.5;stroke:#000000;stroke-width:1;stroke-linecap:round;stroke-linejoin:round;stroke-dasharray:none"
       d="m 210.01116,903.75003 30.24629,17.4553"
       id="path7-0-6-6-8-8-6-4-8" />
    <path
       style="fill:none;fill-opacity:0.5;stroke:#000000;stroke-width:1;stroke-linecap:round;stroke-linejoin:round;stroke-dasharray:none"
       d="m 257.64258,931.25005 25.98077,14.99997"
       id="path7-0-6-8-5-9-6-6-4-2" />
    <path
       style="fill:#000000;fill-opacity:1;stroke:#000000;stroke-width:0.1;stroke-linecap:round;stroke-linejoin:bevel"
       d="m 210.87721,909.25005 8.66025,-5 4.33013,7.5 z"
       id="path6-8-7-5-9-1-6-9-3" />
    <path
       style="fill:#000000;fill-opacity:1;stroke:#000000;stroke-width:0.1;stroke-linecap:round;stroke-linejoin:bevel"
       d="m 262.0386,938.86868 8.66025,-5 4.33013,7.5 z"
       id="path6-8-2-8-8-9-4-6-8-2" />
    <path
       style="fill:#d6d6d4;fill-opacity:0.854701;stroke:#000000;stroke-width:0.3;stroke-linecap:round;stroke-linejoin:bevel;stroke-dasharray:none"
       d="m 229.46756,902.49721 21.67984,-12.49716 17.32049,10 -21.62143,12.49149 z"
       id="path4-8-1-1-3-6-1-3-0-7-1-6" />
    <path
       style="fill:#b3b2b1;fill-opacity:0.900285;stroke:#000000;stroke-width:0.3;stroke-linecap:round;stroke-linejoin:bevel;stroke-dasharray:none"
       d="m 229.49675,902.50005 0.008,24.99641 17.34161,10.00145 -0.0293,-24.99786 z"
       id="path5-3-2-5-4-3-8-0-03-6" />
    <g
       id="g8-9-0-5-0-8-2-6"
       style="stroke-width:0.3;stroke-dasharray:none"
       transform="translate(12.124382,750.00002)">
      <path
         style="fill:#33d17a;fill-opacity:0.5;stroke:#000000;stroke-width:0.3;stroke-linecap:round;stroke-linejoin:bevel;stroke-dasharray:none"
         d="m 178.40123,150.00001 12.99038,-7.49999 12.99038,7.49999 -12.99038,7.5 z"
         id="path4-4-0-5-7-46-6-8-8-8-3" />
      <path
         style="fill:#33d17a;fill-opacity:0.5;stroke:#000000;stroke-width:0.3;stroke-linecap:round;stroke-linejoin:bevel;stroke-dasharray:none"
         d="m 178.40123,135.1299 12.99038,-7.49999 12.99038,7.49999 -12.99038,7.5 z"
         id="path4-8-0-4-6-5-0-8-4-4-3-4" />
      <path
         style="fill:#33d17a;fill-opacity:0.5;stroke:#000000;stroke-width:0.3;stroke-linecap:round;stroke-linejoin:bevel;stroke-dasharray:none"
         d="m 178.40123,135.12991 v 14.8701 l 12.99038,7.5 V 142.6299 Z"
         id="path5-46-8-7-6-3-5-9-5-9-4" />
      <path
         style="fill:#33d17a;fill-opacity:0.5;stroke:#000000;stroke-width:0.3;stroke-linecap:round;stroke-linejoin:bevel;stroke-dasharray:none"
         d="m 204.38199,135.00002 v 15 l -12.99038,7.5 v -15.00001 z"
         id="path5-7-4-5-9-5-2-3-3-7-9-2" />
      <path
         style="opacity:0.3;mix-blend-mode:darken;fill:url(#pattern10-5-5-7-4-2-7-92-1-1-8);fill-opacity:1;stroke:#000000;stroke-width:0.3;stroke-linecap:round;stroke-linejoin:bevel;stroke-dasharray:none"
         d="m 204.38199,135.1299 v 14.87011 l -12.99038,7.5 v -14.87013 z"
         id="path5-7-2-64-5-4-3-6-7-0-9-9-9" />
    </g>
    <text
       xml:space="preserve"
       style="font-weight:bold;font-stretch:condensed;font-size:5.64703px;line-height:1;font-family:'DIN Condensed';-inkscape-font-specification:'DIN Condensed,  Bold Condensed';text-align:start;letter-spacing:0px;writing-mode:lr-tb;direction:ltr;text-anchor:start;fill:#000000;stroke-width:0.0727607;stroke-linecap:round;stroke-linejoin:bevel"
       x="-185.64348"
       y="894.35681"
       id="text2-7-4-1-1-6-5-8-6-2"
       transform="matrix(-0.99999942,0.00107563,0.00107563,0.99999942,0,0)"><tspan
         id="tspan2-9-7-4-8-8-2-4-1-8"
         style="stroke-width:0.0727607"
         x="-185.64348"
         y="894.35681">}</tspan></text>
    <text
       xml:space="preserve"
       style="font-weight:500;font-size:2.11667px;line-height:1;font-family:'Kohinoor Telugu';-inkscape-font-specification:'Kohinoor Telugu Medium';text-align:start;letter-spacing:0px;writing-mode:lr-tb;direction:ltr;text-anchor:start;fill:#000000;fill-opacity:0.881766;stroke:none;stroke-width:0.0115198;stroke-linecap:round;stroke-linejoin:round;stroke-dasharray:none;stroke-dashoffset:0;stroke-opacity:1"
       x="176.91554"
       y="892.74078"
       id="text17-9-7-8-7-5-5-1-7-8-9-9"><tspan
         style="font-size:2.11667px;fill:#000000;stroke:none;stroke-width:0.0115198"
         x="176.91554"
         y="892.74078"
         id="tspan18-0-2-1-3-9-2-8-8-9-8-2">Persons</tspan></text>
    <path
       style="opacity:0.2;fill:url(#pattern15-8-8-7-7-5-2-3-8-2);fill-opacity:1;stroke:none;stroke-width:0.3;stroke-linecap:round;stroke-linejoin:round;stroke-dasharray:none;stroke-dashoffset:0"
       d="m 290.11854,957.50004 h 8.66025 l 12.99038,-7.5 -12.99038,-7.49999 h -8.66025 l 12.99036,7.49999 z"
       id="path10-3-2-6-6-7-5-0-6-5" />
    <path
       style="fill:#000000;fill-opacity:1;stroke:#000000;stroke-width:0.554675;stroke-linecap:round;stroke-linejoin:round;stroke-dasharray:0.554675, 1.10935;stroke-dashoffset:0"
       d="m 203.51599,872.50004 v 10"
       id="path8-1-5-3-0-3-7-6" />
    <rect
       style="fill:#ffffff;fill-opacity:1;stroke:#000000;stroke-width:0.171021;stroke-linecap:round;stroke-linejoin:round;stroke-dasharray:none"
       id="rect7-3-6-5-7-3-8-4-7"
       width="11.657883"
       height="4.2557225"
       x="284.46899"
       y="923.25"
       ry="0.85114431" />
    <text
       xml:space="preserve"
       style="font-weight:500;font-size:2.11667px;line-height:1;font-family:'Kohinoor Telugu';-inkscape-font-specification:'Kohinoor Telugu Medium';text-align:start;letter-spacing:0px;writing-mode:lr-tb;direction:ltr;text-anchor:start;fill:#000000;fill-opacity:1;stroke:none;stroke-width:1;stroke-linecap:round;stroke-linejoin:round;stroke-dasharray:none"
       x="286.88269"
       y="925.83936"
       id="text7-1-6-8-1-3-5-9-2"><tspan
         id="tspan7-0-7-2-8-5-1-4-8"
         style="font-size:2.11667px;fill:#000000;stroke:none;stroke-width:1"
         x="286.88269"
         y="925.83936">children</tspan></text>
    <path
       style="fill:#000000;fill-opacity:1;stroke:#000000;stroke-width:0.554675;stroke-linecap:round;stroke-linejoin:round;stroke-dasharray:0.554675, 1.10935;stroke-dashoffset:0"
       d="m 290.16721,927.73649 v 10"
       id="path8-1-0-9-9-0-2-1-0" />
    <g
       id="g8-9-0-5-0-8-0-0"
       style="stroke-width:0.3;stroke-dasharray:none"
       transform="translate(99.592957,804.50006)">
      <path
         style="fill:#33d17a;fill-opacity:0.5;stroke:#000000;stroke-width:0.3;stroke-linecap:round;stroke-linejoin:bevel;stroke-dasharray:none"
         d="M 177.5352,145.49999 190.52558,138 l 12.99038,7.49999 -12.99038,7.5 z"
         id="path4-4-0-5-7-46-6-8-8-1-8" />
      <path
         style="fill:#33d17a;fill-opacity:0.5;stroke:#000000;stroke-width:0.3;stroke-linecap:round;stroke-linejoin:bevel;stroke-dasharray:none"
         d="m 177.5352,140.5 12.99038,-7.49999 12.99038,7.49999 -12.99038,7.5 z"
         id="path4-8-0-4-6-5-0-8-4-4-38-2" />
      <path
         style="fill:#33d17a;fill-opacity:0.5;stroke:#000000;stroke-width:0.3;stroke-linecap:round;stroke-linejoin:bevel;stroke-dasharray:none"
         d="m 177.5352,140.5 v 4.99999 l 12.99038,7.5 v -5 z"
         id="path5-46-8-7-6-3-5-9-5-0-5" />
      <path
         style="fill:#33d17a;fill-opacity:0.5;stroke:#000000;stroke-width:0.3;stroke-linecap:round;stroke-linejoin:bevel;stroke-dasharray:none"
         d="M 203.51596,140.50001 V 145.5 l -12.99038,7.5 v -5 z"
         id="path5-7-4-5-9-5-2-3-3-7-0-8" />
      <path
         style="opacity:0.3;mix-blend-mode:darken;fill:url(#pattern10-5-5-7-4-2-7-92-1-2-6);fill-opacity:1;stroke:#000000;stroke-width:0.3;stroke-linecap:round;stroke-linejoin:bevel;stroke-dasharray:none"
         d="m 203.51596,140.50001 v 4.99998 l -12.99038,7.5 v -5 z"
         id="path5-7-2-64-5-4-3-6-7-0-9-94-0" />
    </g>
  </g>
</svg>
